STARTFONT 2.3
FONT -FontForge-Rajdhani-Book-R-Normal--24-240-72-72-P-147-ISO10646-1
SIZE 24 72 72  4
FONTBOUNDINGBOX 59 29 -10 -8
COMMENT "Generated by fontforge, http://fontforge.sourceforge.net"
COMMENT "Copyright (c) 2014 Indian Type Foundry (info@indiantypefoundry.com)"
STARTPROPERTIES 41
FOUNDRY "FontForge"
FAMILY_NAME "Rajdhani"
WEIGHT_NAME "Book"
SLANT "R"
SETWIDTH_NAME "Normal"
ADD_STYLE_NAME ""
PIXEL_SIZE 24
POINT_SIZE 240
RESOLUTION_X 72
RESOLUTION_Y 72
SPACING "P"
AVERAGE_WIDTH 147
CHARSET_REGISTRY "ISO10646"
CHARSET_ENCODING "1"
FONTNAME_REGISTRY ""
CHARSET_COLLECTIONS "ISO8859-2 ISO8859-9 ISO8859-4 ISO10646-1"
BITS_PER_PIXEL 4
FONT_NAME "Rajdhani-Regular"
FACE_NAME "Rajdhani Regular"
COPYRIGHT "Copyright (c) 2014 Indian Type Foundry (info@indiantypefoundry.com)"
FONT_VERSION "1.201;PS 1.0;hotconv 1.0.78;makeotf.lib2.5.61930; ttfautohint (v1.1) -l 7 -r 28 -G 50 -x 13 -D latn -f deva -w G"
FONT_ASCENT 19
FONT_DESCENT 5
UNDERLINE_POSITION -2
UNDERLINE_THICKNESS 2
X_HEIGHT 11
CAP_HEIGHT 14
DEFAULT_CHAR 3
RAW_ASCENT 800
RAW_DESCENT 200
NORM_SPACE 6
RELATIVE_WEIGHT 40
RELATIVE_SETWIDTH 50
SUPERSCRIPT_X 0
SUPERSCRIPT_Y 8
SUPERSCRIPT_SIZE 14
SUBSCRIPT_X 0
SUBSCRIPT_Y 1
SUBSCRIPT_SIZE 14
AVG_LOWERCASE_WIDTH 108
AVG_UPPERCASE_WIDTH 125
ENDPROPERTIES
CHARS 1043
STARTCHAR NULL.dup1
ENCODING 0
SWIDTH 0 0
DWIDTH 0 0
BBX 1 1 0 0
BITMAP
00
ENDCHAR
STARTCHAR CR
ENCODING 13
SWIDTH 0 0
DWIDTH 0 0
BBX 1 1 0 0
BITMAP
00
ENDCHAR
STARTCHAR space
ENCODING 32
SWIDTH 267 0
DWIDTH 6 0
BBX 1 1 0 0
BITMAP
00
ENDCHAR
STARTCHAR exclam
ENCODING 33
SWIDTH 237 0
DWIDTH 6 0
BBX 2 15 2 0
BITMAP
C8
D8
D8
D8
C8
C7
B6
B6
A5
94
00
00
C7
C7
C7
ENDCHAR
STARTCHAR quotedbl
ENCODING 34
SWIDTH 330 0
DWIDTH 8 0
BBX 6 5 1 10
BITMAP
7B00C6
6A00B5
5900A4
480093
370082
ENDCHAR
STARTCHAR numbersign
ENCODING 35
SWIDTH 677 0
DWIDTH 16 0
BBX 14 15 1 0
BITMAP
000003D0000870
00000790000D30
00000B50002E00
00001E10006A00
01EEEFEEEEEEEC
0022A82222E321
0000D30004C000
0003D000088000
000790000D3000
000C40002D0000
9EEFEEEEEFEE40
127B2222C62200
00960001E10000
00E20005B00000
03D00008700000
ENDCHAR
STARTCHAR dollar
ENCODING 36
SWIDTH 504 0
DWIDTH 12 0
BBX 10 21 1 -3
BITMAP
0000160000
00003D0000
00003D0000
01AEFFEA20
0CA3112AD0
3F100000E4
5D000000C6
5D00000031
4E00000000
1F81000000
05DFEEDB30
00012239E2
00000000E6
12000000C7
5D000000C6
3F100000E5
0CA21129D1
02AEFFEB20
00003D0000
00003D0000
0000160000
ENDCHAR
STARTCHAR percent
ENCODING 37
SWIDTH 717 0
DWIDTH 17 0
BBX 15 15 1 0
BITMAP
1AEFD50000C30000
8A214E1003C00000
B4000B400A500000
C3000B402D000000
B4000B4097000000
99003E11D1000000
1CFEE60780000000
0012000D20000000
0000005A02BDDB20
000000C30C5006B0
000004C01E0000E0
00000B501E0000F0
00002D001F0000E0
000097000D7117B0
0001D10003CFEB20
ENDCHAR
STARTCHAR ampersand
ENCODING 38
SWIDTH 597 0
DWIDTH 14 0
BBX 12 15 1 0
BITMAP
0006CFEB3000
005E5128E100
00B80000D600
00D60000B800
00C700008500
009B00000000
002F70000000
04CFF6000000
1E92AFEEEEED
4F000AF52222
4E0000BE2000
4E00000BD100
3F100001EB00
0CA21128CBA0
02AEFFEB21C8
ENDCHAR
STARTCHAR quotesingle
ENCODING 39
SWIDTH 186 0
DWIDTH 4 0
BBX 2 5 1 10
BITMAP
5C
5B
4B
3A
29
ENDCHAR
STARTCHAR parenleft
ENCODING 40
SWIDTH 283 0
DWIDTH 7 0
BBX 5 19 1 -4
BITMAP
03BE20
1E7200
7A0000
970000
A70000
A70000
A70000
A70000
A70000
A70000
A70000
A70000
A70000
A70000
970000
7A0000
2E5000
04DF20
000100
ENDCHAR
STARTCHAR parenright
ENCODING 41
SWIDTH 283 0
DWIDTH 7 0
BBX 5 19 1 -4
BITMAP
9D7000
13C800
002F00
000E20
000D30
000D30
000D30
000D30
000D30
000D30
000D30
000D30
000D30
000D30
000E20
001F00
01A900
9F9100
100000
ENDCHAR
STARTCHAR asterisk
ENCODING 42
SWIDTH 406 0
DWIDTH 10 0
BBX 8 6 1 9
BITMAP
00096000
14085150
3BC87DA1
00177000
00C48800
03901B10
ENDCHAR
STARTCHAR plus
ENCODING 43
SWIDTH 523 0
DWIDTH 13 0
BBX 10 9 1 3
BITMAP
00004C0000
00004D0000
00004D0000
00004D0000
4EEEEFEEEC
02226D2221
00004D0000
00004D0000
00004C0000
ENDCHAR
STARTCHAR comma
ENCODING 44
SWIDTH 191 0
DWIDTH 5 0
BBX 2 6 1 -3
BITMAP
6E
6E
6E
6A
65
41
ENDCHAR
STARTCHAR hyphen
ENCODING 45
SWIDTH 312 0
DWIDTH 7 0
BBX 6 2 1 6
BITMAP
EEEEE7
222221
ENDCHAR
STARTCHAR period
ENCODING 46
SWIDTH 191 0
DWIDTH 5 0
BBX 2 3 1 0
BITMAP
6E
6E
6E
ENDCHAR
STARTCHAR slash
ENCODING 47
SWIDTH 396 0
DWIDTH 10 0
BBX 7 15 1 0
BITMAP
000004E0
00000A90
00001F30
00006D00
0000C700
0002F200
0008B000
000D6000
003F1000
009A0000
00E50000
05E00000
0A900000
1F300000
6C000000
ENDCHAR
STARTCHAR zero
ENCODING 48
SWIDTH 514 0
DWIDTH 12 0
BBX 10 15 1 0
BITMAP
02AEFFFC50
1D921126F3
4E00000099
6C0000007B
6C0000007B
6C0000007B
6C0000007B
6C0000007B
6C0000007B
6C0000007B
6C0000007B
6C0000007B
4E00000099
1D921126F4
02BEFFFC50
ENDCHAR
STARTCHAR one
ENCODING 49
SWIDTH 317 0
DWIDTH 8 0
BBX 6 15 0 0
BITMAP
0007E8
04DCC8
2E6098
010098
000098
000098
000098
000098
000098
000098
000098
000098
000098
000098
000098
ENDCHAR
STARTCHAR two
ENCODING 50
SWIDTH 478 0
DWIDTH 11 0
BBX 10 15 1 0
BITMAP
04CEFFD800
3F62114D80
8B000005E0
A9000003F0
65000003F0
00000008C0
0000006E30
00001AD300
0003DA1000
007E600000
09D3000000
5E20000000
8B00000000
8B11111110
8FFFFFFFF1
ENDCHAR
STARTCHAR three
ENCODING 51
SWIDTH 496 0
DWIDTH 12 0
BBX 10 15 1 0
BITMAP
03BEFFEA10
1E82112AC0
5D000001F3
7B000000D5
35000000D5
00000000F3
00000018C0
0000CEFC10
0000123AB0
00000001F3
35000000D5
7B000000D5
6D000000F3
1E82112AC0
03BEFFEA20
ENDCHAR
STARTCHAR four
ENCODING 52
SWIDTH 520 0
DWIDTH 12 0
BBX 11 15 1 0
BITMAP
0000007F8000
000002EB9000
00000B899000
00005D199000
0001D5099000
0008B0099000
002E20099000
00B800099000
05D100099000
1D5000099000
8B0000099000
DEEEEEEFFE90
12222229A210
000000099000
000000089000
ENDCHAR
STARTCHAR five
ENCODING 53
SWIDTH 482 0
DWIDTH 12 0
BBX 10 15 1 0
BITMAP
6FFFFFFFE0
6C11111110
6C00000000
6C00000000
6C00000000
6C8DEED810
6F83224CA0
25000002F1
00000000F3
00000000F3
47000000F3
6C000000F3
4E000002F1
0D92113CA0
02BEFFD910
ENDCHAR
STARTCHAR six
ENCODING 54
SWIDTH 497 0
DWIDTH 12 0
BBX 10 15 1 0
BITMAP
03BEFFFF80
2E72111100
7C00000000
9900000000
9900000000
9900000000
9FEEEED910
9A22223BC0
99000001E4
99000000D6
99000000C6
99000000D6
7C000000E4
2E72112AD0
04CEFFEA20
ENDCHAR
STARTCHAR seven
ENCODING 55
SWIDTH 380 0
DWIDTH 9 0
BBX 9 15 0 0
BITMAP
8FFFFFFF90
0111111D70
0000003F10
0000009A00
000001E500
000006E000
00000B8000
00002F2000
00008C0000
0000E60000
0005E10000
000A900000
001F300000
007D000000
00C6000000
ENDCHAR
STARTCHAR eight
ENCODING 56
SWIDTH 519 0
DWIDTH 12 0
BBX 10 15 1 0
BITMAP
02AEFFFD60
1D921115E5
4E0000007B
6C0000005D
6C0000005D
5E0000007B
1D800003D6
03EFEEEF90
0CA32225E4
5E0000007B
6C0000005D
6C0000005D
5E0000007B
1E921114E6
03BEFFFD60
ENDCHAR
STARTCHAR nine
ENCODING 57
SWIDTH 497 0
DWIDTH 12 0
BBX 10 15 1 0
BITMAP
04CEFFEA20
2F72113AC0
8B000001F3
A9000000D5
A8000000D5
A9000000D5
8A000000D5
3F500000D5
06EFEEEEF5
00012222D5
00000000D5
00000000D5
00000001F3
0111112AC0
0DFFFFEA20
ENDCHAR
STARTCHAR colon
ENCODING 58
SWIDTH 191 0
DWIDTH 5 0
BBX 2 12 1 0
BITMAP
6E
6E
6E
00
00
00
00
00
00
6E
6E
6E
ENDCHAR
STARTCHAR semicolon
ENCODING 59
SWIDTH 191 0
DWIDTH 5 0
BBX 2 15 1 -3
BITMAP
6E
6E
6E
00
00
00
00
00
37
6E
6E
6C
68
63
10
ENDCHAR
STARTCHAR less
ENCODING 60
SWIDTH 513 0
DWIDTH 12 0
BBX 10 9 1 3
BITMAP
0000000157
0000039EC5
0017DD7200
2BE9300000
6E61000000
039EA50000
00016BE940
00000028DA
0000000002
ENDCHAR
STARTCHAR equal
ENCODING 61
SWIDTH 531 0
DWIDTH 13 0
BBX 10 6 1 4
BITMAP
3EEEEEEEED
0222222222
0000000000
0000000000
3EEEEEEEED
0222222222
ENDCHAR
STARTCHAR greater
ENCODING 62
SWIDTH 531 0
DWIDTH 13 0
BBX 10 9 1 3
BITMAP
2930000000
19EC610000
0004AEA400
0000016BD8
00000003BE
000027DC71
016CE93000
2FB5000000
1200000000
ENDCHAR
STARTCHAR question
ENCODING 63
SWIDTH 473 0
DWIDTH 11 0
BBX 9 15 1 0
BITMAP
01AEFEC400
0CA3126E20
2F10000B80
4E00000890
3900000A90
0000004E30
000005E500
00004E3000
0000A80000
0000B70000
0000530000
0000000000
0000C70000
0000D80000
0000C70000
ENDCHAR
STARTCHAR at
ENCODING 64
SWIDTH 753 0
DWIDTH 18 0
BBX 15 17 2 -2
BITMAP
0006BDEEEEEC6000
02CB52222225D600
1D70000000002E00
7A00000000000D10
C3002ADEEE500C20
E001E8322B600C20
E006C0000A600C20
E00890000A600C20
E00890000A600C20
E00890000A600C20
E006B0000C600E00
D202E5017E619A00
88005DFF88FFA100
2E40001100200000
04E8200000000000
0029EFEEEE800000
0000012222100000
ENDCHAR
STARTCHAR A
ENCODING 65
SWIDTH 533 0
DWIDTH 13 0
BBX 12 15 0 0
BITMAP
000008F50000
00000DCA0000
00004E3F1000
00009A0D5000
0000D508A000
0003F104F100
0008B000E500
000D60009A00
003F10004F10
008B00000E50
00DFEEEEEFA0
03F3222226E1
08B0000000E5
0D600000009A
3E100000004E
ENDCHAR
STARTCHAR B
ENCODING 66
SWIDTH 546 0
DWIDTH 13 0
BBX 10 15 2 0
BITMAP
EFFFFFE910
E511113BB0
E4000001F2
E4000000E4
E4000000E4
E4000001F2
E400001AB0
EFEEEEFC10
E522223AC0
E4000000E4
E4000000C6
E4000000C6
E4000000E5
E5111129D1
EFFFFFEB20
ENDCHAR
STARTCHAR C
ENCODING 67
SWIDTH 542 0
DWIDTH 13 0
BBX 11 15 1 0
BITMAP
019DFFFEB300
0BC311128E10
1F2000000C60
3F0000000A80
3F0000000760
3F0000000000
3F0000000000
3F0000000000
3F0000000000
3F0000000000
3F0000000760
3F0000000A80
1F2000000C60
0BB311128E10
019EFFFEB300
ENDCHAR
STARTCHAR D
ENCODING 68
SWIDTH 557 0
DWIDTH 13 0
BBX 10 15 2 0
BITMAP
EFFFFFEB30
E5111128E2
E4000000C6
E4000000A8
E400000098
E400000098
E400000098
E400000098
E400000098
E400000098
E400000098
E4000000A8
E4000000C6
E5111128E2
EFFFFFEB30
ENDCHAR
STARTCHAR E
ENCODING 69
SWIDTH 481 0
DWIDTH 12 0
BBX 8 15 2 0
BITMAP
EFFFFFFE
E5111111
E4000000
E4000000
E4000000
E4000000
E4000000
EFEEEEE4
E5222220
E4000000
E4000000
E4000000
E4000000
E5111111
EFFFFFFE
ENDCHAR
STARTCHAR F
ENCODING 70
SWIDTH 459 0
DWIDTH 11 0
BBX 8 15 2 0
BITMAP
EFFFFFFE
E5111111
E4000000
E4000000
E4000000
E4000000
E4000000
EFEEEEE3
E5222220
E4000000
E4000000
E4000000
E4000000
E4000000
E3000000
ENDCHAR
STARTCHAR G
ENCODING 71
SWIDTH 539 0
DWIDTH 13 0
BBX 11 15 1 0
BITMAP
019DFFFD9100
0BC31113CA00
1F2000003F10
3F0000001F20
3F0000000810
3F0000000000
3F0000000000
3F0004EEEE20
3F0000223F20
3F0000001F20
3F0000001F20
3F0000001F20
1F2000004F00
0BB31113C900
019EFFFD8100
ENDCHAR
STARTCHAR H
ENCODING 72
SWIDTH 570 0
DWIDTH 14 0
BBX 10 15 2 0
BITMAP
E300000089
E40000008A
E40000008A
E40000008A
E40000008A
E40000008A
E40000009A
EFEEEEEEFA
E5222222AA
E40000008A
E40000008A
E40000008A
E40000008A
E40000008A
E300000089
ENDCHAR
STARTCHAR I
ENCODING 73
SWIDTH 230 0
DWIDTH 6 0
BBX 2 15 2 0
BITMAP
C5
D5
D5
D5
D5
D5
D5
D5
D5
D5
D5
D5
D5
D5
C5
ENDCHAR
STARTCHAR J
ENCODING 74
SWIDTH 499 0
DWIDTH 12 0
BBX 11 15 0 0
BITMAP
000000002F10
000000002F10
000000002F10
000000002F10
000000002F10
000000002F10
000000002F10
000000002F10
000000002F10
181000002F10
1F2000002F10
1F2000002F10
0E4000005E00
09D41114D800
018DFFFD8000
ENDCHAR
STARTCHAR K
ENCODING 75
SWIDTH 530 0
DWIDTH 13 0
BBX 10 15 2 0
BITMAP
E3000005E2
E400002E60
E40001C900
E40009C000
E4006E2000
E403F50000
E41DA00000
E4BCE20000
EAC19C0000
ED101D7000
E40003E300
E400008C00
E400000C80
E4000003E3
E30000006D
ENDCHAR
STARTCHAR L
ENCODING 76
SWIDTH 451 0
DWIDTH 11 0
BBX 9 15 2 0
BITMAP
E300000000
E400000000
E400000000
E400000000
E400000000
E400000000
E400000000
E400000000
E400000000
E400000000
E400000000
E400000000
E400000000
E511111100
EFFFFFFF30
ENDCHAR
STARTCHAR M
ENCODING 77
SWIDTH 696 0
DWIDTH 17 0
BBX 13 15 2 0
BITMAP
EE000000004FA0
EF60000000AFA0
E9C0000002FAA0
E4E4000009A8A0
E37B00001E38A0
E31E20007B08A0
E3099000D508A0
E302E105D008A0
E300B70C7008A0
E3004D3E1008A0
E3000CD80008A0
E30004B20008A0
E30000000008A0
E30000000008A0
E30000000008A0
ENDCHAR
STARTCHAR N
ENCODING 78
SWIDTH 579 0
DWIDTH 14 0
BBX 10 15 2 0
BITMAP
E60000004D
EE1000005D
EE9000005D
E6F300005D
E48C00005D
E40D60005D
E404E1005D
E400A9005D
E4002E305D
E40007C05D
E40000D65D
E400004E6D
E400000ADD
E4000002ED
E30000007D
ENDCHAR
STARTCHAR O
ENCODING 79
SWIDTH 553 0
DWIDTH 13 0
BBX 11 15 1 0
BITMAP
019DFFFEB200
0BC311129D10
1F2000000D50
3F0000000B70
3F0000000B70
3F0000000B70
3F0000000B70
3F0000000B70
3F0000000B70
3F0000000B70
3F0000000B70
3F0000000B70
1F2000000D50
0BB311129E10
019EFFFEB300
ENDCHAR
STARTCHAR P
ENCODING 80
SWIDTH 524 0
DWIDTH 13 0
BBX 10 15 2 0
BITMAP
EFFFFFD910
E511113CA0
E4000003F1
E4000001F3
E4000001F3
E4000001F3
E4000002F1
E400001BB0
EFEEEEFB20
E522220000
E400000000
E400000000
E400000000
E400000000
E300000000
ENDCHAR
STARTCHAR Q
ENCODING 81
SWIDTH 556 0
DWIDTH 13 0
BBX 11 18 1 -3
BITMAP
019DFFFEB300
0AC311128E10
1F3000000D60
2F1000000A80
3F1000000A80
3F1000000A80
3F1000000A80
3F1000000A80
3F1000000A80
3F1000000A80
3F1000000A80
2F1000000A80
1F3000000D60
0AC311128E10
019DFFFFC300
0000009A0000
0000001E5000
00000005E100
ENDCHAR
STARTCHAR R
ENCODING 82
SWIDTH 534 0
DWIDTH 13 0
BBX 10 15 2 0
BITMAP
EFFFFFD800
E511114D90
E4000004F0
E4000001F2
E4000001F2
E4000001F2
E4000003F0
E400002BA0
EFEEEEFA10
E52229C000
E40001E400
E400008C00
E400001E50
E4000008C0
E3000001E5
ENDCHAR
STARTCHAR S
ENCODING 83
SWIDTH 562 0
DWIDTH 13 0
BBX 11 15 1 0
BITMAP
008DFFFEB300
08D411129E10
0E5000000D50
1F3000000B70
1F3000000210
0D8000000000
04EB62000000
0027BEEA5000
00000038EA00
000000002E50
061000000B80
1F3000000B80
0E5000000D60
08D411128E10
008DFFFEB300
ENDCHAR
STARTCHAR T
ENCODING 84
SWIDTH 420 0
DWIDTH 10 0
BBX 10 15 0 0
BITMAP
8FFFFFFFF9
01119A1110
00008A0000
00008A0000
00008A0000
00008A0000
00008A0000
00008A0000
00008A0000
00008A0000
00008A0000
00008A0000
00008A0000
00008A0000
0000890000
ENDCHAR
STARTCHAR U
ENCODING 85
SWIDTH 552 0
DWIDTH 13 0
BBX 11 15 1 0
BITMAP
1F2000000D50
1F2000000D50
1F2000000D50
1F2000000D50
1F2000000D50
1F2000000D50
1F2000000D50
1F2000000D50
1F2000000D50
1F2000000D50
1F2000000D50
1F2000000D50
0E4000001F30
09D41113AC00
018DFFFEA200
ENDCHAR
STARTCHAR V
ENCODING 86
SWIDTH 500 0
DWIDTH 12 0
BBX 12 15 0 0
BITMAP
4E10000001E4
0E50000005E0
0A90000009A0
05E000000E50
01F300003F10
00B800008B00
006C0000C600
002F2002F100
000C6006C000
0007B00B7000
0002F11F2000
0000D55D0000
00008AA80000
00004EE40000
00000EE00000
ENDCHAR
STARTCHAR W
ENCODING 87
SWIDTH 794 0
DWIDTH 19 0
BBX 19 15 0 0
BITMAP
2F2000005F5000002F30
0E6000009EA000005F00
0B900000D7E000008C00
08C00002E0E30000B800
04F00006B0A70000E500
01F3000A606B0003F100
00C7000E202F1006D000
009A004D000D4009A000
005D00890008800C6000
002F10C50004C01F3000
000E41F10001F24E0000
000A85C00000B67B0000
0007B98000007AA80000
0003ED4000003ED40000
0000EE0000000EF10000
ENDCHAR
STARTCHAR X
ENCODING 88
SWIDTH 504 0
DWIDTH 12 0
BBX 12 15 0 0
BITMAP
0B80000007D0
03F200001E50
009B0000AA00
001E5003E200
0005D10C7000
0000B86D0000
00002EE40000
00001EF20000
00008BAA0000
0002F32E4000
000B9008C000
004E1001D600
00D700005E10
07D000000C80
1E40000003E2
ENDCHAR
STARTCHAR Y
ENCODING 89
SWIDTH 493 0
DWIDTH 12 0
BBX 12 15 0 0
BITMAP
3F20000005E1
0B9000000C80
03F200005E10
00B90000C800
003F2005E100
000AA00C7000
0003F25E1000
0000AAC70000
00002FE10000
00000B800000
00000B800000
00000B800000
00000B800000
00000B800000
00000A700000
ENDCHAR
STARTCHAR Z
ENCODING 90
SWIDTH 482 0
DWIDTH 12 0
BBX 10 15 1 0
BITMAP
BFFFFFFFF4
01111116F2
0000001D80
0000008D10
000003F400
00000CA000
00006E2000
0001E60000
000AC00000
004F300000
00D8000000
08D1000000
2F50000000
BB11111110
FFFFFFFFF8
ENDCHAR
STARTCHAR bracketleft
ENCODING 91
SWIDTH 287 0
DWIDTH 7 0
BBX 5 19 1 -4
BITMAP
7FFF30
7A1100
790000
790000
790000
790000
790000
790000
790000
790000
790000
790000
790000
790000
790000
790000
790000
7FEE30
122200
ENDCHAR
STARTCHAR backslash
ENCODING 92
SWIDTH 396 0
DWIDTH 10 0
BBX 7 15 1 0
BITMAP
6C000000
1F300000
0A800000
05E00000
00E50000
009A0000
004F1000
000D6000
0008C000
0002F200
0000C700
00006D00
00001F30
00000A90
000004E0
ENDCHAR
STARTCHAR bracketright
ENCODING 93
SWIDTH 287 0
DWIDTH 7 0
BBX 5 19 1 -4
BITMAP
8FFF20
011E20
000E20
000E20
000E20
000E20
000E20
000E20
000E20
000E20
000E20
000E20
000E20
000E20
000E20
000E20
000E20
8EEF20
122200
ENDCHAR
STARTCHAR asciicircum
ENCODING 94
SWIDTH 465 0
DWIDTH 11 0
BBX 9 7 1 8
BITMAP
0007EA0000
002E4E3000
009907B000
02E200D500
0A80006D00
3E10000C60
4400000350
ENDCHAR
STARTCHAR underscore
ENCODING 95
SWIDTH 372 0
DWIDTH 9 0
BBX 9 2 0 -3
BITMAP
EEEEEEEED0
2222222210
ENDCHAR
STARTCHAR grave
ENCODING 96
SWIDTH 269 0
DWIDTH 6 0
BBX 4 3 1 14
BITMAP
2E60
04E2
0069
ENDCHAR
STARTCHAR a
ENCODING 97
SWIDTH 502 0
DWIDTH 12 0
BBX 10 12 1 0
BITMAP
02BEFFFFF3
1D921111F4
5E000000E4
6C000000E4
7C000000E4
7C000000E4
7C000000E4
7C000000E4
6C000000E4
5E000002F4
1D92113BF4
02BEFFD5E3
ENDCHAR
STARTCHAR b
ENCODING 98
SWIDTH 504 0
DWIDTH 12 0
BBX 10 17 1 0
BITMAP
3F00000000
3F00000000
3F00000000
3F00000000
3F00000000
3F4CFFEB30
3FB41128E1
3F300000C6
3F000000A8
3F000000A8
3F000000A8
3F000000A8
3F000000A8
3F000000A8
3F000000C6
3F111128E1
3FFFFFEB30
ENDCHAR
STARTCHAR c
ENCODING 99
SWIDTH 394 0
DWIDTH 9 0
BBX 8 12 1 0
BITMAP
02BEFFF9
1D921110
5E000000
6C000000
7C000000
7C000000
7C000000
7C000000
6C000000
5E000000
1D921110
02BEFFF9
ENDCHAR
STARTCHAR d
ENCODING 100
SWIDTH 504 0
DWIDTH 12 0
BBX 10 17 1 0
BITMAP
00000000D4
00000000E4
00000000E4
00000000E4
00000000E4
02BEFFD4E4
1D92113BF4
5E000001F4
6C000000E4
7C000000E4
7C000000E4
7C000000E4
7C000000E4
6C000000E4
5E000001F4
1D92113BF4
02BEFFD5D4
ENDCHAR
STARTCHAR e
ENCODING 101
SWIDTH 492 0
DWIDTH 12 0
BBX 10 12 1 0
BITMAP
02BEFFEA10
1DA2112AC0
5E000001F3
6C000000D5
7C000000C6
7C000000D6
7FEEEEEEF6
7C22222220
6C00000000
5D00000000
1D82111110
02BEFFFFF3
ENDCHAR
STARTCHAR f
ENCODING 102
SWIDTH 303 0
DWIDTH 7 0
BBX 7 17 0 0
BITMAP
0001AEC0
000AB210
000F4000
002F2000
002F2000
2FFFFFC0
013F3110
002F2000
002F2000
002F2000
002F2000
002F2000
002F2000
002F2000
002F2000
002F2000
002F1000
ENDCHAR
STARTCHAR g
ENCODING 103
SWIDTH 506 0
DWIDTH 12 0
BBX 10 15 1 -3
BITMAP
02AEFFFFF5
0CA21111D6
3F100000D6
5D000000D6
5D000000D6
5D000000D6
5D000000D6
5D000000D6
4E000000F6
1D810019F6
03CFEEF8D6
00012200D6
00000001F4
0011112AD0
09FFFFEA20
ENDCHAR
STARTCHAR h
ENCODING 104
SWIDTH 507 0
DWIDTH 12 0
BBX 10 17 1 0
BITMAP
3F00000000
3F00000000
3F00000000
3F00000000
3F00000000
3F3CFFEB30
3FB41129E1
3F300000D5
3F000000B7
3F000000B7
3F000000B7
3F000000B7
3F000000B7
3F000000B7
3F000000B7
3F000000B7
3F000000B7
ENDCHAR
STARTCHAR i
ENCODING 105
SWIDTH 210 0
DWIDTH 5 0
BBX 3 17 1 0
BITMAP
1F20
1F20
1D10
0000
0000
1F20
1F20
1F20
1F20
1F20
1F20
1F20
1F20
1F20
1F20
1F20
1F20
ENDCHAR
STARTCHAR j
ENCODING 106
SWIDTH 210 0
DWIDTH 5 0
BBX 6 20 -2 -3
BITMAP
0001F2
0001F2
0001D1
000000
000000
0001F2
0001F2
0001F2
0001F2
0001F2
0001F2
0001F2
0001F2
0001F2
0001F2
0001F2
0001F2
0004F0
014C90
3FD810
ENDCHAR
STARTCHAR k
ENCODING 107
SWIDTH 431 0
DWIDTH 10 0
BBX 9 17 1 0
BITMAP
3F00000000
3F00000000
3F00000000
3F00000000
3F00000000
3F00001D60
3F0000AB00
3F0005E200
3F001E7000
3F00AC0000
3F04F20000
3F02E50000
3F005E2000
3F000AB000
3F0001E700
3F00004F30
3F000008C0
ENDCHAR
STARTCHAR l
ENCODING 108
SWIDTH 210 0
DWIDTH 5 0
BBX 3 17 1 0
BITMAP
1F20
1F20
1F20
1F20
1F20
1F20
1F20
1F20
1F20
1F20
1F20
1F20
1F20
1F20
1F20
1F20
1F20
ENDCHAR
STARTCHAR m
ENCODING 109
SWIDTH 769 0
DWIDTH 18 0
BBX 16 12 1 0
BITMAP
3F3CFFD705CFFC50
3FB4115E9C4126F4
3F300007F200009A
3F000005E000007C
3F000005E000007C
3F000005E000007C
3F000005E000007C
3F000005E000007C
3F000005E000007C
3F000005E000007C
3F000005E000007C
3F000004D000007B
ENDCHAR
STARTCHAR n
ENCODING 110
SWIDTH 507 0
DWIDTH 12 0
BBX 10 12 1 0
BITMAP
3F3CFFEB30
3FB41129E1
3F300000D5
3F000000B7
3F000000B7
3F000000B7
3F000000B7
3F000000B7
3F000000B7
3F000000B7
3F000000B7
3F000000B7
ENDCHAR
STARTCHAR o
ENCODING 111
SWIDTH 496 0
DWIDTH 12 0
BBX 10 12 1 0
BITMAP
02BEFFEA20
1D92112AC0
5E000001E4
6C000000D5
7C000000C6
7C000000C6
7C000000C6
7C000000C6
6C000000D5
5E000001E4
1D92112AC0
02BEFFEA20
ENDCHAR
STARTCHAR p
ENCODING 112
SWIDTH 504 0
DWIDTH 12 0
BBX 10 15 1 -3
BITMAP
3F3CFFEB30
3FB41128E1
3F300000C6
3F000000A8
3F000000A8
3F000000A8
3F000000A8
3F000000A8
3F000000A8
3F300000C6
3FB41128E1
3F4DFFEB30
3F00000000
3F00000000
3F00000000
ENDCHAR
STARTCHAR q
ENCODING 113
SWIDTH 502 0
DWIDTH 12 0
BBX 10 15 1 -3
BITMAP
02BEFFFFF4
1D921111F4
5E000000E4
6C000000E4
7C000000E4
7C000000E4
7C000000E4
7C000000E4
6C000000F4
5E000003F4
1D92114CF4
02BEFFD4E4
00000000E4
00000000E4
00000000E3
ENDCHAR
STARTCHAR r
ENCODING 114
SWIDTH 313 0
DWIDTH 8 0
BBX 6 12 1 0
BITMAP
3F3BFD
3FB411
3F4000
3F0000
3F0000
3F0000
3F0000
3F0000
3F0000
3F0000
3F0000
3F0000
ENDCHAR
STARTCHAR s
ENCODING 115
SWIDTH 431 0
DWIDTH 10 0
BBX 8 12 1 0
BITMAP
19DFFFF6
8D411110
B7000000
A8000000
4E820000
029EB500
00016CD3
0000009C
0000004F
0000004F
011113BB
AFFFFEA2
ENDCHAR
STARTCHAR t
ENCODING 116
SWIDTH 347 0
DWIDTH 8 0
BBX 8 15 0 0
BITMAP
00350000
007C0000
007C0000
6FFFFFF1
018C1110
007C0000
007C0000
007C0000
007C0000
007C0000
007C0000
007C0000
005E0000
001D9210
0002AEF5
ENDCHAR
STARTCHAR u
ENCODING 117
SWIDTH 507 0
DWIDTH 12 0
BBX 10 12 1 0
BITMAP
4D000000C5
5D000000C6
5D000000C6
5D000000C6
5D000000C6
5D000000C6
5D000000C6
5D000000C6
5D000000D6
3F100001F6
0CA3113BE6
02AEFFD6C5
ENDCHAR
STARTCHAR v
ENCODING 118
SWIDTH 416 0
DWIDTH 10 0
BBX 10 12 0 0
BITMAP
6C000000C6
2F200002F2
0C600007C0
07B0000B70
03F1001F20
00D5006C00
008A00A800
003E00E300
000E44D000
0009998000
0004DD4000
0000EE0000
ENDCHAR
STARTCHAR w
ENCODING 119
SWIDTH 683 0
DWIDTH 16 0
BBX 16 12 0 0
BITMAP
6C000008E000007C
2F20000CF30000B8
0D60001E970001F3
08A0005A5B0005E0
04E000A61E000990
00E300E20C400D50
00A703D008802F10
006C079004C06B00
001F1B5000E1B700
000C5E1000B5E300
0008DC00007DD000
0003F800002F9000
ENDCHAR
STARTCHAR x
ENCODING 120
SWIDTH 413 0
DWIDTH 10 0
BBX 10 12 0 0
BITMAP
1E500007D0
07D0001E40
00D7009B00
005E12E300
000B899000
0002EE1000
0003EE2000
000C78B000
006D01E500
01E5006D10
09B0000C80
3F300004F2
ENDCHAR
STARTCHAR y
ENCODING 121
SWIDTH 459 0
DWIDTH 11 0
BBX 11 15 0 -3
BITMAP
3E1000001E40
0D6000005D00
07B00000B800
02F20001F300
00B70007C000
006D000C7000
001E303F1000
000A808B0000
0004E0D50000
0000E8E10000
00008F900000
00000E400000
00006D000000
0126E4000000
0BFD50000000
ENDCHAR
STARTCHAR z
ENCODING 122
SWIDTH 405 0
DWIDTH 10 0
BBX 9 12 0 0
BITMAP
0FFFFFFFB0
0111112E60
000000AC00
000005F200
00001D8000
00009D0000
0003F40000
000C900000
007E100000
02F5000000
0BB1111110
2FFFFFFFD0
ENDCHAR
STARTCHAR braceleft
ENCODING 123
SWIDTH 298 0
DWIDTH 7 0
BBX 6 19 0 -4
BITMAP
0004DA
001E51
004C00
005B00
005B00
005B00
006A00
00A700
2FC000
03C600
006A00
005B00
005B00
005B00
005B00
004C00
001E30
0005EA
000001
ENDCHAR
STARTCHAR bar
ENCODING 124
SWIDTH 207 0
DWIDTH 5 0
BBX 1 15 2 0
BITMAP
E0
F0
F0
F0
F0
F0
F0
F0
F0
F0
F0
F0
F0
F0
E0
ENDCHAR
STARTCHAR braceright
ENCODING 125
SWIDTH 298 0
DWIDTH 7 0
BBX 6 19 0 -4
BITMAP
2EA100
02A900
003D00
001F00
001F00
001F00
001F00
000D50
0004FA
000B81
001F10
001F00
001F00
001F00
002F00
003D00
009900
2FC100
010000
ENDCHAR
STARTCHAR asciitilde
ENCODING 126
SWIDTH 523 0
DWIDTH 13 0
BBX 10 2 1 6
BITMAP
2BDEEEEEEA
0222222200
ENDCHAR
STARTCHAR uni00A0
ENCODING 160
SWIDTH 267 0
DWIDTH 6 0
BBX 1 1 0 0
BITMAP
00
ENDCHAR
STARTCHAR exclamdown
ENCODING 161
SWIDTH 237 0
DWIDTH 6 0
BBX 2 15 2 0
BITMAP
C7
C7
C7
00
00
94
A5
B6
B6
C7
C8
D8
D8
D8
C8
ENDCHAR
STARTCHAR cent
ENCODING 162
SWIDTH 414 0
DWIDTH 10 0
BBX 9 17 1 -2
BITMAP
0000250000
00005C0000
00005C0000
02BEFFFF10
1D92111100
5E00000000
6C00000000
7C00000000
7C00000000
7C00000000
7C00000000
6C00000000
5E00000000
1D92111100
02BEFFFF10
00005C0000
00005B0000
ENDCHAR
STARTCHAR sterling
ENCODING 163
SWIDTH 528 0
DWIDTH 13 0
BBX 11 15 0 0
BITMAP
0003BEFFD700
001E92114D70
005E000006C0
006C000004C0
006C00000000
006C00000000
006C00000000
2EEFEEEE0000
027D22220000
006C00000000
006C00000000
006C00000000
007B00000000
02C711111110
2FFFFFFFFFF0
ENDCHAR
STARTCHAR yen
ENCODING 165
SWIDTH 499 0
DWIDTH 12 0
BBX 12 15 0 0
BITMAP
2F30000004F2
0AA000000BA0
03F300003F20
00AA0000BA00
003F2003F200
000A900AA000
0003F22F2000
1EEEF9AFEEE1
00003EE20000
00000A900000
2EEEEFFEEEE1
02222A922220
000009900000
000009900000
000009800000
ENDCHAR
STARTCHAR brokenbar
ENCODING 166
SWIDTH 201 0
DWIDTH 5 0
BBX 2 15 1 0
BITMAP
2E
2E
2E
2E
2E
2D
00
00
00
2D
2E
2E
2E
2E
2E
ENDCHAR
STARTCHAR section
ENCODING 167
SWIDTH 454 0
DWIDTH 11 0
BBX 9 15 1 0
BITMAP
06DFFFFA00
4F51111000
8B00000000
8B00000000
8F83000000
8A8DFD9200
8900139E10
7B00000C60
2E82000B70
039DEC8C70
0000039F70
0000000D70
0000000D50
0111127E20
6FFFFEC400
ENDCHAR
STARTCHAR dieresis
ENCODING 168
SWIDTH 345 0
DWIDTH 8 0
BBX 6 3 1 14
BITMAP
6B007A
6C007A
6B007A
ENDCHAR
STARTCHAR copyright
ENCODING 169
SWIDTH 723 0
DWIDTH 17 0
BBX 15 15 1 0
BITMAP
02AEFFFFFFFFC400
0C92111111115E30
2D00000000000870
4B0008DFEA100690
4B006C3129900590
4B00960003C00590
4B00950000500590
4B00950000000590
4B00950000500590
4B00860002C00590
4B005B1008900590
4B0007CDD9100690
2D00000000000870
0C92111111115E30
02AEFFFFFFFFC500
ENDCHAR
STARTCHAR guillemotleft
ENCODING 171
SWIDTH 431 0
DWIDTH 10 0
BBX 8 9 1 2
BITMAP
00001001
0008603A
008B03D3
08A04D30
5B00D300
4D20C500
05D21C60
005D11C5
00045018
ENDCHAR
STARTCHAR registered
ENCODING 174
SWIDTH 439 0
DWIDTH 11 0
BBX 8 9 1 8
BITMAP
05DFFFB1
2C311179
561FF80B
651A1B0B
651FE90B
561A570B
2C13045A
07FEEFD2
00022100
ENDCHAR
STARTCHAR macron
ENCODING 175
SWIDTH 358 0
DWIDTH 9 0
BBX 6 2 1 13
BITMAP
6FFFFF
011111
ENDCHAR
STARTCHAR degree
ENCODING 176
SWIDTH 298 0
DWIDTH 7 0
BBX 5 6 1 11
BITMAP
0CFD10
2B1A40
2A0840
2B0940
0EEE10
012100
ENDCHAR
STARTCHAR plusminus
ENCODING 177
SWIDTH 523 0
DWIDTH 13 0
BBX 10 10 1 2
BITMAP
00004C0000
00004D0000
00004D0000
4EEEEFEEEC
02226D2221
00004D0000
00004C0000
0000000000
4EEEEEEEEC
0222222221
ENDCHAR
STARTCHAR acute
ENCODING 180
SWIDTH 269 0
DWIDTH 6 0
BBX 4 3 1 14
BITMAP
01D8
09B0
3C10
ENDCHAR
STARTCHAR paragraph
ENCODING 182
SWIDTH 513 0
DWIDTH 12 0
BBX 10 15 1 0
BITMAP
19DFFFFFF3
8FFF4111D3
BFFF3000D3
CFFF3000D3
CFFF3000D3
AFFF3000D3
4FFF3000D3
026E3000D3
000D3000D3
000D3000D3
000D3000D3
000D3000D3
000D3000D3
000D3000D3
000D3000D3
ENDCHAR
STARTCHAR periodcentered
ENCODING 183
SWIDTH 207 0
DWIDTH 5 0
BBX 3 3 1 6
BITMAP
3F20
3F20
3F20
ENDCHAR
STARTCHAR cedilla
ENCODING 184
SWIDTH 257 0
DWIDTH 6 0
BBX 4 6 1 -5
BITMAP
03B0
1D30
4DB3
0068
3EE4
0200
ENDCHAR
STARTCHAR guillemotright
ENCODING 187
SWIDTH 431 0
DWIDTH 10 0
BBX 8 9 1 2
BITMAP
10001000
6701C100
1B806C10
01B806C1
000B506A
002D3098
02D40990
2D409900
54019000
ENDCHAR
STARTCHAR questiondown
ENCODING 191
SWIDTH 473 0
DWIDTH 11 0
BBX 9 15 1 0
BITMAP
0002F20000
0002F30000
0002F20000
0000000000
0000600000
0001F10000
0003F00000
001B900000
02C9000000
0C90000000
4F10000560
4E00000990
2F10000B80
0CA2116F20
01AEFEC400
ENDCHAR
STARTCHAR Agrave
ENCODING 192
SWIDTH 532 0
DWIDTH 13 0
BBX 12 20 0 0
BITMAP
000371000000
0001C9000000
00002D300000
000003500000
000000000000
000008F50000
00000DCA0000
00004E3F1000
00009A0D5000
0000D508A000
0003F104F100
0008B000E500
000D60009A00
003F10004F10
008B00000E50
00DFEEEEEFA0
03F3222226E1
08B0000000E5
0D600000009A
3E100000004E
ENDCHAR
STARTCHAR Aacute
ENCODING 193
SWIDTH 532 0
DWIDTH 13 0
BBX 12 20 0 0
BITMAP
000000027200
0000000C9000
0000007B0000
000000610000
000000000000
000008F50000
00000DCA0000
00004E3F1000
00009A0D5000
0000D508A000
0003F104F100
0008B000E500
000D60009A00
003F10004F10
008B00000E50
00DFEEEEEFA0
03F3222226E1
08B0000000E5
0D600000009A
3E100000004E
ENDCHAR
STARTCHAR Acircumflex
ENCODING 194
SWIDTH 532 0
DWIDTH 13 0
BBX 12 20 0 0
BITMAP
000002710000
00000C890000
0000690C3000
000061035000
000000000000
000008F50000
00000DCA0000
00004E3F1000
00009A0D5000
0000D508A000
0003F104F100
0008B000E500
000D60009A00
003F10004F10
008B00000E50
00DFEEEEEFA0
03F3222226E1
08B0000000E5
0D600000009A
3E100000004E
ENDCHAR
STARTCHAR Atilde
ENCODING 195
SWIDTH 532 0
DWIDTH 13 0
BBX 12 20 0 0
BITMAP
0002805D7000
000290B3C000
0001A2A0B000
00009B309000
000000000000
000008F50000
00000DCA0000
00004E3F1000
00009A0D5000
0000D508A000
0003F104F100
0008B000E500
000D60009A00
003F10004F10
008B00000E50
00DFEEEEEFA0
03F3222226E1
08B0000000E5
0D600000009A
3E100000004E
ENDCHAR
STARTCHAR Adieresis
ENCODING 196
SWIDTH 532 0
DWIDTH 13 0
BBX 12 20 0 0
BITMAP
0002F003D000
0002F004E000
0002F003E000
000000000000
000000000000
000008F50000
00000DCA0000
00004E3F1000
00009A0D5000
0000D508A000
0003F104F100
0008B000E500
000D60009A00
003F10004F10
008B00000E50
00DFEEEEEFA0
03F3222226E1
08B0000000E5
0D600000009A
3E100000004E
ENDCHAR
STARTCHAR Aring
ENCODING 197
SWIDTH 532 0
DWIDTH 13 0
BBX 12 21 0 0
BITMAP
00002CEA0000
0000872A4000
000092065000
000085094000
00003EFC0000
000000100000
000008F50000
00000DCA0000
00004E3F1000
00009A0D5000
0000D508A000
0003F104F100
0008B000E500
000D60009A00
003F10004F10
008B00000E50
00DFEEEEEFA0
03F3222226E1
08B0000000E5
0D600000009A
3E100000004E
ENDCHAR
STARTCHAR AE
ENCODING 198
SWIDTH 773 0
DWIDTH 19 0
BBX 17 15 0 0
BITMAP
00000001DFFFFFFFE0
00000008DF51111110
0000002E5E40000000
0000009B0E40000000
000003F30E40000000
00000B900E40000000
00005E200E40000000
0000D8000EFEEEEE40
0007E1000E62222200
001E60000E40000000
009FEEEEEF40000000
02F522222E40000000
0BB000000E40000000
4F2000000E51111110
C80000000EFFFFFFE0
ENDCHAR
STARTCHAR Ccedilla
ENCODING 199
SWIDTH 542 0
DWIDTH 13 0
BBX 11 20 1 -5
BITMAP
019DFFFEB300
0BC311128E10
1F2000000C60
3F0000000A80
3F0000000760
3F0000000000
3F0000000000
3F0000000000
3F0000000000
3F0000000000
3F0000000760
3F0000000A80
1F2000000C60
0BB311128E10
019EFFFEB300
00001B300000
00004AA20000
000000770000
00004EE30000
000002000000
ENDCHAR
STARTCHAR Egrave
ENCODING 200
SWIDTH 481 0
DWIDTH 12 0
BBX 8 20 2 0
BITMAP
04710000
01D80000
002E3000
00034000
00000000
EFFFFFFE
E5111111
E4000000
E4000000
E4000000
E4000000
E4000000
EFEEEEE4
E5222220
E4000000
E4000000
E4000000
E4000000
E5111111
EFFFFFFE
ENDCHAR
STARTCHAR Eacute
ENCODING 201
SWIDTH 481 0
DWIDTH 12 0
BBX 8 20 2 0
BITMAP
00000740
00008D10
0002E300
00043000
00000000
EFFFFFFE
E5111111
E4000000
E4000000
E4000000
E4000000
E4000000
EFEEEEE4
E5222220
E4000000
E4000000
E4000000
E4000000
E5111111
EFFFFFFE
ENDCHAR
STARTCHAR Ecircumflex
ENCODING 202
SWIDTH 481 0
DWIDTH 12 0
BBX 8 20 2 0
BITMAP
00055000
004CC300
00C33C00
02600620
00000000
EFFFFFFE
E5111111
E4000000
E4000000
E4000000
E4000000
E4000000
EFEEEEE4
E5222220
E4000000
E4000000
E4000000
E4000000
E5111111
EFFFFFFE
ENDCHAR
STARTCHAR Edieresis
ENCODING 203
SWIDTH 481 0
DWIDTH 12 0
BBX 8 20 2 0
BITMAP
08900980
08900980
08900980
00000000
00000000
EFFFFFFE
E5111111
E4000000
E4000000
E4000000
E4000000
E4000000
EFEEEEE4
E5222220
E4000000
E4000000
E4000000
E4000000
E5111111
EFFFFFFE
ENDCHAR
STARTCHAR Igrave
ENCODING 204
SWIDTH 230 0
DWIDTH 6 0
BBX 4 20 0 0
BITMAP
7400
6E20
08A0
0061
0000
00C5
00D5
00D5
00D5
00D5
00D5
00D5
00D5
00D5
00D5
00D5
00D5
00D5
00D5
00C5
ENDCHAR
STARTCHAR Iacute
ENCODING 205
SWIDTH 231 0
DWIDTH 6 0
BBX 4 20 2 0
BITMAP
0174
08D1
3E20
4300
0000
C500
D500
D500
D500
D500
D500
D500
D500
D500
D500
D500
D500
D500
D500
C500
ENDCHAR
STARTCHAR Icircumflex
ENCODING 206
SWIDTH 229 0
DWIDTH 6 0
BBX 5 20 0 0
BITMAP
007300
079D10
2D1780
340070
000000
00C500
00D500
00D500
00D500
00D500
00D500
00D500
00D500
00D500
00D500
00D500
00D500
00D500
00D500
00C500
ENDCHAR
STARTCHAR Idieresis
ENCODING 207
SWIDTH 230 0
DWIDTH 6 0
BBX 6 20 0 0
BITMAP
B600D4
C600D4
B600D4
000000
000000
00C500
00D500
00D500
00D500
00D500
00D500
00D500
00D500
00D500
00D500
00D500
00D500
00D500
00D500
00C500
ENDCHAR
STARTCHAR Eth
ENCODING 208
SWIDTH 514 0
DWIDTH 12 0
BBX 12 15 0 0
BITMAP
00DFFFFFEC40
00D6111127F2
00D5000000B8
00D500000099
00D50000008A
00D50000008A
00E50000008A
5EFFEEE4008A
12E62220008A
00D50000008A
00D50000008A
00D500000099
00D5000000B8
00D6111127F2
00DFFFFFEC40
ENDCHAR
STARTCHAR Ntilde
ENCODING 209
SWIDTH 579 0
DWIDTH 14 0
BBX 10 20 2 0
BITMAP
00820BD200
00924A7700
0084933800
004FC03800
0001000100
E60000004D
EE1000005D
EE9000005D
E6F300005D
E48C00005D
E40D60005D
E404E1005D
E400A9005D
E4002E305D
E40007C05D
E40000D65D
E400004E6D
E400000ADD
E4000002ED
E30000007D
ENDCHAR
STARTCHAR Ograve
ENCODING 210
SWIDTH 553 0
DWIDTH 13 0
BBX 11 20 1 0
BITMAP
000740000000
0006E1000000
00009A000000
000006000000
000000000000
019DFFFEB200
0BC311129D10
1F2000000D50
3F0000000B70
3F0000000B70
3F0000000B70
3F0000000B70
3F0000000B70
3F0000000B70
3F0000000B70
3F0000000B70
3F0000000B70
1F2000000D50
0BB311129E10
019EFFFEB300
ENDCHAR
STARTCHAR Oacute
ENCODING 211
SWIDTH 553 0
DWIDTH 13 0
BBX 11 20 1 0
BITMAP
000000271000
000000C90000
000007B00000
000006100000
000000000000
019DFFFEB200
0BC311129D10
1F2000000D50
3F0000000B70
3F0000000B70
3F0000000B70
3F0000000B70
3F0000000B70
3F0000000B70
3F0000000B70
3F0000000B70
3F0000000B70
1F2000000D50
0BB311129E10
019EFFFEB300
ENDCHAR
STARTCHAR Ocircumflex
ENCODING 212
SWIDTH 553 0
DWIDTH 13 0
BBX 11 20 1 0
BITMAP
000017200000
000099C00000
0003C0970000
000430160000
000000000000
019DFFFEB200
0BC311129D10
1F2000000D50
3F0000000B70
3F0000000B70
3F0000000B70
3F0000000B70
3F0000000B70
3F0000000B70
3F0000000B70
3F0000000B70
3F0000000B70
1F2000000D50
0BB311129E10
019EFFFEB300
ENDCHAR
STARTCHAR Otilde
ENCODING 213
SWIDTH 553 0
DWIDTH 13 0
BBX 11 20 1 0
BITMAP
000A02DA0000
000B096B1000
000C1C083000
0009F7083000
000010010000
019DFFFEB200
0BC311129D10
1F2000000D50
3F0000000B70
3F0000000B70
3F0000000B70
3F0000000B70
3F0000000B70
3F0000000B70
3F0000000B70
3F0000000B70
3F0000000B70
1F2000000D50
0BB311129E10
019EFFFEB300
ENDCHAR
STARTCHAR Odieresis
ENCODING 214
SWIDTH 553 0
DWIDTH 13 0
BBX 11 20 1 0
BITMAP
000E300F2000
000E400F3000
000E300F2000
000000000000
000000000000
019DFFFEB200
0BC311129D10
1F2000000D50
3F0000000B70
3F0000000B70
3F0000000B70
3F0000000B70
3F0000000B70
3F0000000B70
3F0000000B70
3F0000000B70
3F0000000B70
1F2000000D50
0BB311129E10
019EFFFEB300
ENDCHAR
STARTCHAR multiply
ENCODING 215
SWIDTH 493 0
DWIDTH 12 0
BBX 8 8 2 4
BITMAP
11000020
8C1003E5
0AC13E70
00ADE700
003FE100
03E8AC10
3E800AC1
770000A4
ENDCHAR
STARTCHAR Oslash
ENCODING 216
SWIDTH 559 0
DWIDTH 13 0
BBX 12 15 1 0
BITMAP
019DFFFFC382
0AC311127FB0
1F3000003F60
2F100001CD80
2F1000097A80
2F10005B0A80
2F1002D10A80
2F100C400A80
2F1098000A80
2F15B0000A80
2F3D20000A80
2FC400000A80
0F8000000C60
5FC311128E20
939EFFFEB300
ENDCHAR
STARTCHAR Ugrave
ENCODING 217
SWIDTH 552 0
DWIDTH 13 0
BBX 11 20 1 0
BITMAP
000750000000
0004F3000000
00007C000000
000006100000
000000000000
1F2000000D50
1F2000000D50
1F2000000D50
1F2000000D50
1F2000000D50
1F2000000D50
1F2000000D50
1F2000000D50
1F2000000D50
1F2000000D50
1F2000000D50
1F2000000D50
0E4000001F30
09D41113AC00
018DFFFEA200
ENDCHAR
STARTCHAR Uacute
ENCODING 218
SWIDTH 552 0
DWIDTH 13 0
BBX 11 20 1 0
BITMAP
000000272000
000000C90000
000007B00000
000006100000
000000000000
1F2000000D50
1F2000000D50
1F2000000D50
1F2000000D50
1F2000000D50
1F2000000D50
1F2000000D50
1F2000000D50
1F2000000D50
1F2000000D50
1F2000000D50
1F2000000D50
0E4000001F30
09D41113AC00
018DFFFEA200
ENDCHAR
STARTCHAR Ucircumflex
ENCODING 219
SWIDTH 552 0
DWIDTH 13 0
BBX 11 20 1 0
BITMAP
000017200000
000098C00000
0003C0970000
000430160000
000000000000
1F2000000D50
1F2000000D50
1F2000000D50
1F2000000D50
1F2000000D50
1F2000000D50
1F2000000D50
1F2000000D50
1F2000000D50
1F2000000D50
1F2000000D50
1F2000000D50
0E4000001F30
09D41113AC00
018DFFFEA200
ENDCHAR
STARTCHAR Udieresis
ENCODING 220
SWIDTH 552 0
DWIDTH 13 0
BBX 11 20 1 0
BITMAP
000E300F2000
000E400F3000
000E300F2000
000000000000
000000000000
1F2000000D50
1F2000000D50
1F2000000D50
1F2000000D50
1F2000000D50
1F2000000D50
1F2000000D50
1F2000000D50
1F2000000D50
1F2000000D50
1F2000000D50
1F2000000D50
0E4000001F30
09D41113AC00
018DFFFEA200
ENDCHAR
STARTCHAR Yacute
ENCODING 221
SWIDTH 493 0
DWIDTH 12 0
BBX 12 20 0 0
BITMAP
000000074000
0000008D1000
000002E30000
000004300000
000000000000
3F20000005E1
0B9000000C80
03F200005E10
00B90000C800
003F2005E100
000AA00C7000
0003F25E1000
0000AAC70000
00002FE10000
00000B800000
00000B800000
00000B800000
00000B800000
00000B800000
00000A700000
ENDCHAR
STARTCHAR Thorn
ENCODING 222
SWIDTH 501 0
DWIDTH 12 0
BBX 9 15 2 0
BITMAP
3F00000000
4F00000000
4F00000000
4FFFFEA100
4F1113BC00
4F00001F30
4F00000D50
4F00000D50
4F00000D50
4F00000F30
4F00019D00
4FEEEFC200
4F22210000
4F00000000
3F00000000
ENDCHAR
STARTCHAR germandbls
ENCODING 223
SWIDTH 540 0
DWIDTH 13 0
BBX 11 15 1 0
BITMAP
018DFFFD7000
09C31114D800
0F4000005E00
1F2000003F00
2F1000002F10
2F1000005E00
2F100003D800
2F102EEFA000
2F100225D900
2F1000002F20
2F1000000E40
2F1000000E40
2F1000001F20
2F100113BC00
1F109FFEA200
ENDCHAR
STARTCHAR agrave
ENCODING 224
SWIDTH 502 0
DWIDTH 12 0
BBX 10 17 1 0
BITMAP
000CB00000
0002E40000
00005D0000
0000041000
0000000000
02BEFFFFF3
1D921111F4
5E000000E4
6C000000E4
7C000000E4
7C000000E4
7C000000E4
7C000000E4
6C000000E4
5E000002F4
1D92113BF4
02BEFFD5E3
ENDCHAR
STARTCHAR aacute
ENCODING 225
SWIDTH 502 0
DWIDTH 12 0
BBX 10 17 1 0
BITMAP
000000CB00
000006E100
00001D4000
0000130000
0000000000
02BEFFFFF3
1D921111F4
5E000000E4
6C000000E4
7C000000E4
7C000000E4
7C000000E4
7C000000E4
6C000000E4
5E000002F4
1D92113BF4
02BEFFD5E3
ENDCHAR
STARTCHAR acircumflex
ENCODING 226
SWIDTH 502 0
DWIDTH 12 0
BBX 10 17 1 0
BITMAP
00008E3000
0002D4B000
000A60C400
0005002300
0000000000
02BEFFFFF3
1D921111F4
5E000000E4
6C000000E4
7C000000E4
7C000000E4
7C000000E4
7C000000E4
6C000000E4
5E000002F4
1D92113BF4
02BEFFD5E3
ENDCHAR
STARTCHAR atilde
ENCODING 227
SWIDTH 504 0
DWIDTH 12 0
BBX 10 17 1 0
BITMAP
001A04E900
001B0A3C00
000B1A0A10
0007B30810
0000000000
02BEFFFFF3
1D921111F4
5E000000E4
6C000000E4
7C000000E4
7C000000E4
7C000000E4
7C000000E4
6C000000E4
5E000002F4
1D92113BF4
02BEFFD5E3
ENDCHAR
STARTCHAR adieresis
ENCODING 228
SWIDTH 502 0
DWIDTH 12 0
BBX 10 17 1 0
BITMAP
002F103E00
002F103E00
002F103E00
0000000000
0000000000
02BEFFFFF3
1D921111F4
5E000000E4
6C000000E4
7C000000E4
7C000000E4
7C000000E4
7C000000E4
6C000000E4
5E000002F4
1D92113BF4
02BEFFD5E3
ENDCHAR
STARTCHAR aring
ENCODING 229
SWIDTH 502 0
DWIDTH 12 0
BBX 10 17 1 0
BITMAP
0006DE9000
000B32B100
000B00A100
0008FEB000
0000110000
02BEFFFFF3
1D921111F4
5E000000E4
6C000000E4
7C000000E4
7C000000E4
7C000000E4
7C000000E4
6C000000E4
5E000002F4
1D92113BF4
02BEFFD5E3
ENDCHAR
STARTCHAR ae
ENCODING 230
SWIDTH 795 0
DWIDTH 19 0
BBX 17 12 1 0
BITMAP
04FFFFE806DFFEB300
0011113CBD51127E10
00000003F600000B60
00000001F300000980
00000001F300000880
02ADEEEEF300000980
1D821111FEEEEEEF80
5D000000F522222210
7B000000F300000000
5D000002F500000000
1E82113CCD41111100
03BEFFD708EFFFFF80
ENDCHAR
STARTCHAR ccedilla
ENCODING 231
SWIDTH 394 0
DWIDTH 9 0
BBX 8 17 1 -5
BITMAP
02BEFFF9
1D921110
5E000000
6C000000
7C000000
7C000000
7C000000
7C000000
6C000000
5E000000
1D921110
02BEFFF9
0001B400
0003AA30
00000680
0004EE40
00002000
ENDCHAR
STARTCHAR egrave
ENCODING 232
SWIDTH 492 0
DWIDTH 12 0
BBX 10 17 1 0
BITMAP
006F300000
000AB00000
0001D40000
0000230000
0000000000
02BEFFEA10
1DA2112AC0
5E000001F3
6C000000D5
7C000000C6
7C000000D6
7FEEEEEEF6
7C22222220
6C00000000
5D00000000
1D82111110
02BEFFFFF3
ENDCHAR
STARTCHAR eacute
ENCODING 233
SWIDTH 492 0
DWIDTH 12 0
BBX 10 17 1 0
BITMAP
000005F300
00001D7000
00007A0000
0000410000
0000000000
02BEFFEA10
1DA2112AC0
5E000001F3
6C000000D5
7C000000C6
7C000000D6
7FEEEEEEF6
7C22222220
6C00000000
5D00000000
1D82111110
02BEFFFFF3
ENDCHAR
STARTCHAR ecircumflex
ENCODING 234
SWIDTH 492 0
DWIDTH 12 0
BBX 10 17 1 0
BITMAP
0000CC0000
0007896000
001D12D100
0013004100
0000000000
02BEFFEA10
1DA2112AC0
5E000001F3
6C000000D5
7C000000C6
7C000000D6
7FEEEEEEF6
7C22222220
6C00000000
5D00000000
1D82111110
02BEFFFFF3
ENDCHAR
STARTCHAR edieresis
ENCODING 235
SWIDTH 492 0
DWIDTH 12 0
BBX 10 17 1 0
BITMAP
0089009700
0089009800
0089009700
0000000000
0000000000
02BEFFEA10
1DA2112AC0
5E000001F3
6C000000D5
7C000000C6
7C000000D6
7FEEEEEEF6
7C22222220
6C00000000
5D00000000
1D82111110
02BEFFFFF3
ENDCHAR
STARTCHAR igrave
ENCODING 236
SWIDTH 210 0
DWIDTH 5 0
BBX 5 17 -1 0
BITMAP
2E7000
05E100
009800
000400
000000
001F20
001F20
001F20
001F20
001F20
001F20
001F20
001F20
001F20
001F20
001F20
001F20
ENDCHAR
STARTCHAR iacute
ENCODING 237
SWIDTH 208 0
DWIDTH 5 0
BBX 5 17 1 0
BITMAP
007E20
01E500
099000
040000
000000
1F2000
1F2000
1F2000
1F2000
1F2000
1F2000
1F2000
1F2000
1F2000
1F2000
1F2000
1F2000
ENDCHAR
STARTCHAR icircumflex
ENCODING 238
SWIDTH 210 0
DWIDTH 5 0
BBX 5 17 0 0
BITMAP
05E500
0D3D10
690870
410140
000000
01F200
01F200
01F200
01F200
01F200
01F200
01F200
01F200
01F200
01F200
01F200
01F200
ENDCHAR
STARTCHAR idieresis
ENCODING 239
SWIDTH 210 0
DWIDTH 5 0
BBX 6 17 0 0
BITMAP
F201F1
F202F1
F201F1
000000
000000
01F200
01F200
01F200
01F200
01F200
01F200
01F200
01F200
01F200
01F200
01F200
01F200
ENDCHAR
STARTCHAR eth
ENCODING 240
SWIDTH 488 0
DWIDTH 12 0
BBX 10 17 1 0
BITMAP
0075000810
003E41B900
0004ED7000
0004EE2000
006D37D100
01A1008C10
0000000A90
02ADEEC6F1
0DA3225CF3
4E100003F3
6C000000F3
7C000000F3
7C000000F3
6C000000F3
4E000003F1
1D92113CA0
02BEFFD910
ENDCHAR
STARTCHAR ntilde
ENCODING 241
SWIDTH 507 0
DWIDTH 12 0
BBX 10 17 1 0
BITMAP
00740BE500
00756A4900
003FE21A00
0001100100
0000000000
3F3CFFEB30
3FB41129E1
3F300000D5
3F000000B7
3F000000B7
3F000000B7
3F000000B7
3F000000B7
3F000000B7
3F000000B7
3F000000B7
3F000000B7
ENDCHAR
STARTCHAR ograve
ENCODING 242
SWIDTH 496 0
DWIDTH 12 0
BBX 10 17 1 0
BITMAP
009E100000
001C800000
0002E20000
0000320000
0000000000
02BEFFEA20
1D92112AC0
5E000001E4
6C000000D5
7C000000C6
7C000000C6
7C000000C6
7C000000C6
6C000000D5
5E000001E4
1D92112AC0
02BEFFEA20
ENDCHAR
STARTCHAR oacute
ENCODING 243
SWIDTH 496 0
DWIDTH 12 0
BBX 10 17 1 0
BITMAP
000001E800
000009C000
00002E2000
0000220000
0000000000
02BEFFEA20
1D92112AC0
5E000001E4
6C000000D5
7C000000C6
7C000000C6
7C000000C6
7C000000C6
6C000000D5
5E000001E4
1D92112AC0
02BEFFEA20
ENDCHAR
STARTCHAR ocircumflex
ENCODING 244
SWIDTH 496 0
DWIDTH 12 0
BBX 10 17 1 0
BITMAP
0001CB0000
00078A5000
001D12D000
0023004100
0000000000
02BEFFEA20
1D92112AC0
5E000001E4
6C000000D5
7C000000C6
7C000000C6
7C000000C6
7C000000C6
6C000000D5
5E000001E4
1D92112AC0
02BEFFEA20
ENDCHAR
STARTCHAR otilde
ENCODING 245
SWIDTH 496 0
DWIDTH 12 0
BBX 10 17 1 0
BITMAP
00911DE200
0092877700
006FD14700
0001000100
0000000000
02BEFFEA20
1D92112AC0
5E000001E4
6C000000D5
7C000000C6
7C000000C6
7C000000C6
7C000000C6
6C000000D5
5E000001E4
1D92112AC0
02BEFFEA20
ENDCHAR
STARTCHAR odieresis
ENCODING 246
SWIDTH 496 0
DWIDTH 12 0
BBX 10 17 1 0
BITMAP
008800A700
009900A800
009800A700
0000000000
0000000000
02BEFFEA20
1D92112AC0
5E000001E4
6C000000D5
7C000000C6
7C000000C6
7C000000C6
7C000000C6
6C000000D5
5E000001E4
1D92112AC0
02BEFFEA20
ENDCHAR
STARTCHAR divide
ENCODING 247
SWIDTH 510 0
DWIDTH 12 0
BBX 10 9 1 3
BITMAP
0000690000
0000590000
0000000000
0000000000
3EEEEEEEE6
0222222221
0000000000
0000690000
0000590000
ENDCHAR
STARTCHAR oslash
ENCODING 248
SWIDTH 521 0
DWIDTH 13 0
BBX 12 12 0 0
BITMAP
0018DFFFC403
00AC31127EB9
00F300000DB0
02F10000BEA0
02F1001B88A0
02F101B708A0
02F11C7008A0
02F2C60008A0
02FD600009A0
02F700000B80
2DCC31127F30
1419EFFEC400
ENDCHAR
STARTCHAR ugrave
ENCODING 249
SWIDTH 507 0
DWIDTH 12 0
BBX 10 17 1 0
BITMAP
007E200000
000BA00000
0001D30000
0000230000
0000000000
4D000000C5
5D000000C6
5D000000C6
5D000000C6
5D000000C6
5D000000C6
5D000000C6
5D000000C6
5D000000D6
3F100001F6
0CA3113BE6
02AEFFD6C5
ENDCHAR
STARTCHAR uacute
ENCODING 250
SWIDTH 507 0
DWIDTH 12 0
BBX 10 17 1 0
BITMAP
000001E800
000008C000
00002E2000
0000220000
0000000000
4D000000C5
5D000000C6
5D000000C6
5D000000C6
5D000000C6
5D000000C6
5D000000C6
5D000000C6
5D000000D6
3F100001F6
0CA3113BE6
02AEFFD6C5
ENDCHAR
STARTCHAR ucircumflex
ENCODING 251
SWIDTH 507 0
DWIDTH 12 0
BBX 10 17 1 0
BITMAP
0000CC0000
0006987000
001D21D100
0014003100
0000000000
4D000000C5
5D000000C6
5D000000C6
5D000000C6
5D000000C6
5D000000C6
5D000000C6
5D000000C6
5D000000D6
3F100001F6
0CA3113BE6
02AEFFD6C5
ENDCHAR
STARTCHAR udieresis
ENCODING 252
SWIDTH 507 0
DWIDTH 12 0
BBX 10 17 1 0
BITMAP
007A009800
008A009800
007A009800
0000000000
0000000000
4D000000C5
5D000000C6
5D000000C6
5D000000C6
5D000000C6
5D000000C6
5D000000C6
5D000000C6
5D000000D6
3F100001F6
0CA3113BE6
02AEFFD6C5
ENDCHAR
STARTCHAR yacute
ENCODING 253
SWIDTH 459 0
DWIDTH 11 0
BBX 11 20 0 -3
BITMAP
0000006E2000
000001E50000
000008900000
000004000000
000000000000
3E1000001E40
0D6000005D00
07B00000B800
02F20001F300
00B70007C000
006D000C7000
001E303F1000
000A808B0000
0004E0D50000
0000E8E10000
00008F900000
00000E400000
00006D000000
0126E4000000
0BFD50000000
ENDCHAR
STARTCHAR thorn
ENCODING 254
SWIDTH 508 0
DWIDTH 12 0
BBX 10 20 1 -3
BITMAP
1F10000000
2F10000000
2F10000000
2F10000000
2F10000000
2F4CFFEC40
2FC41127E2
2F400000B7
2F20000099
2F10000089
2F10000089
2F10000089
2F10000089
2F20000099
2F400000B7
2FC41127E2
2F5CFFEC40
2F10000000
2F10000000
1F10000000
ENDCHAR
STARTCHAR ydieresis
ENCODING 255
SWIDTH 459 0
DWIDTH 11 0
BBX 11 20 0 -3
BITMAP
000F201F1000
000F202F1000
000F201F1000
000000000000
000000000000
3E1000001E40
0D6000005D00
07B00000B800
02F20001F300
00B70007C000
006D000C7000
001E303F1000
000A808B0000
0004E0D50000
0000E8E10000
00008F900000
00000E400000
00006D000000
0126E4000000
0BFD50000000
ENDCHAR
STARTCHAR Amacron
ENCODING 256
SWIDTH 532 0
DWIDTH 13 0
BBX 12 19 0 0
BITMAP
0004EEEEE100
000022222000
000000000000
000000000000
000008F50000
00000DCA0000
00004E3F1000
00009A0D5000
0000D508A000
0003F104F100
0008B000E500
000D60009A00
003F10004F10
008B00000E50
00DFEEEEEFA0
03F3222226E1
08B0000000E5
0D600000009A
3E100000004E
ENDCHAR
STARTCHAR amacron
ENCODING 257
SWIDTH 502 0
DWIDTH 12 0
BBX 10 15 1 0
BITMAP
001FFFFF50
0001111100
0000000000
02BEFFFFF3
1D921111F4
5E000000E4
6C000000E4
7C000000E4
7C000000E4
7C000000E4
7C000000E4
6C000000E4
5E000002F4
1D92113BF4
02BEFFD5E3
ENDCHAR
STARTCHAR Abreve
ENCODING 258
SWIDTH 532 0
DWIDTH 13 0
BBX 12 20 0 0
BITMAP
000060005000
0000D104A000
00004BBA2000
000000000000
000000000000
000008F50000
00000DCA0000
00004E3F1000
00009A0D5000
0000D508A000
0003F104F100
0008B000E500
000D60009A00
003F10004F10
008B00000E50
00DFEEEEEFA0
03F3222226E1
08B0000000E5
0D600000009A
3E100000004E
ENDCHAR
STARTCHAR abreve
ENCODING 259
SWIDTH 502 0
DWIDTH 12 0
BBX 10 17 1 0
BITMAP
000D000C00
000D001C00
0009506800
0001AB9100
0000000000
02BEFFFFF3
1D921111F4
5E000000E4
6C000000E4
7C000000E4
7C000000E4
7C000000E4
7C000000E4
6C000000E4
5E000002F4
1D92113BF4
02BEFFD5E3
ENDCHAR
STARTCHAR Aogonek
ENCODING 260
SWIDTH 532 0
DWIDTH 13 0
BBX 12 18 0 -3
BITMAP
000008F50000
00000DCA0000
00004E3F1000
00009A0D5000
0000D508A000
0003F104F100
0008B000E500
000D60009A00
003F10004F10
008B00000E50
00DFEEEEEFA0
03F3222226E1
08B0000000E5
0D600000009A
3E100000005E
000000000290
000000000CE6
000000000110
ENDCHAR
STARTCHAR aogonek
ENCODING 261
SWIDTH 502 0
DWIDTH 12 0
BBX 10 16 1 -4
BITMAP
02BEFFFFF3
1D921111F4
5E000000E4
6C000000E4
7C000000E4
7C000000E4
7C000000E4
7C000000E4
6C000000E4
5E000002F4
1D92113BF4
02BEFFD5F3
0000000840
0000003900
0000008E90
0000000100
ENDCHAR
STARTCHAR Cacute
ENCODING 262
SWIDTH 542 0
DWIDTH 13 0
BBX 11 20 1 0
BITMAP
000000272000
000000CA0000
000007C00000
000006100000
000000000000
019DFFFEB300
0BC311128E10
1F2000000C60
3F0000000A80
3F0000000760
3F0000000000
3F0000000000
3F0000000000
3F0000000000
3F0000000000
3F0000000760
3F0000000A80
1F2000000C60
0BB311128E10
019EFFFEB300
ENDCHAR
STARTCHAR cacute
ENCODING 263
SWIDTH 394 0
DWIDTH 9 0
BBX 8 17 1 0
BITMAP
00000AD0
00003E30
0000C600
00004000
00000000
02BEFFF9
1D921110
5E000000
6C000000
7C000000
7C000000
7C000000
7C000000
6C000000
5E000000
1D921110
02BEFFF9
ENDCHAR
STARTCHAR Cdotaccent
ENCODING 266
SWIDTH 542 0
DWIDTH 13 0
BBX 11 20 1 0
BITMAP
00000B300000
00000E400000
00000E400000
000000000000
000000000000
019DFFFEB300
0BC311128E10
1F2000000C60
3F0000000A80
3F0000000760
3F0000000000
3F0000000000
3F0000000000
3F0000000000
3F0000000000
3F0000000760
3F0000000A80
1F2000000C60
0BB311128E10
019EFFFEB300
ENDCHAR
STARTCHAR cdotaccent
ENCODING 267
SWIDTH 394 0
DWIDTH 9 0
BBX 8 17 1 0
BITMAP
0001F200
0001F200
0001D100
00000000
00000000
02BEFFF9
1D921110
5E000000
6C000000
7C000000
7C000000
7C000000
7C000000
6C000000
5E000000
1D921110
02BEFFF9
ENDCHAR
STARTCHAR Ccaron
ENCODING 268
SWIDTH 542 0
DWIDTH 13 0
BBX 11 20 1 0
BITMAP
000430170000
0002D0880000
000089C00000
000017300000
000000000000
019DFFFEB300
0BC311128E10
1F2000000C60
3F0000000A80
3F0000000760
3F0000000000
3F0000000000
3F0000000000
3F0000000000
3F0000000000
3F0000000760
3F0000000A80
1F2000000C60
0BB311128E10
019EFFFEB300
ENDCHAR
STARTCHAR ccaron
ENCODING 269
SWIDTH 394 0
DWIDTH 9 0
BBX 8 17 1 0
BITMAP
007804C0
001D1B40
0006CB00
00005100
00000000
02BEFFF9
1D921110
5E000000
6C000000
7C000000
7C000000
7C000000
7C000000
6C000000
5E000000
1D921110
02BEFFF9
ENDCHAR
STARTCHAR Dcaron
ENCODING 270
SWIDTH 557 0
DWIDTH 13 0
BBX 10 20 2 0
BITMAP
0052016000
004C096000
00098C0000
0001720000
0000000000
EFFFFFEB30
E5111128E2
E4000000C6
E4000000A8
E400000098
E400000098
E400000098
E400000098
E400000098
E400000098
E400000098
E4000000A8
E4000000C6
E5111128E2
EFFFFFEB30
ENDCHAR
STARTCHAR dcaron
ENCODING 271
SWIDTH 534 0
DWIDTH 13 0
BBX 12 17 1 0
BITMAP
00000000D44E
00000000E44E
00000000E44E
00000000E44B
00000000E447
02BEFFD5E443
1D81002BF400
5E000001F400
6C000000E400
7C000000E400
7C000000E400
7C000000E400
7C000000E400
6C000000E400
5E000001F400
1D92113BF400
02BEFFD5D400
ENDCHAR
STARTCHAR Dcroat
ENCODING 272
SWIDTH 514 0
DWIDTH 12 0
BBX 12 15 0 0
BITMAP
00DFFFFFEC40
00D6111127F2
00D5000000B8
00D500000099
00D50000008A
00E50000008A
5EFFEEE4008A
12E62220008A
00D50000008A
00D50000008A
00D50000008A
00D500000099
00D5000000B8
00D6111127F2
00DFFFFFEC40
ENDCHAR
STARTCHAR dcroat
ENCODING 273
SWIDTH 539 0
DWIDTH 13 0
BBX 12 17 1 0
BITMAP
00000000D400
00000000E400
00000000E500
0003EEEEFFE4
00002222E620
00000000E400
019DEEC4E400
0CA3224CE400
4E100002F400
6C000000E400
7C000000E400
7C000000E400
7C000000E400
6C000000E400
4E000002F400
0D92113BF400
02AEFFD5D400
ENDCHAR
STARTCHAR Emacron
ENCODING 274
SWIDTH 481 0
DWIDTH 12 0
BBX 8 19 2 0
BITMAP
0AEEEE90
01222210
00000000
00000000
EFFFFFFE
E5111111
E4000000
E4000000
E4000000
E4000000
E4000000
EFEEEEE4
E5222220
E4000000
E4000000
E4000000
E4000000
E5111111
EFFFFFFE
ENDCHAR
STARTCHAR emacron
ENCODING 275
SWIDTH 492 0
DWIDTH 12 0
BBX 10 15 1 0
BITMAP
00AFFFFA00
0001111000
0000000000
02BEFFEA10
1DA2112AC0
5E000001F3
6C000000D5
7C000000C6
7C000000D6
7FEEEEEEF6
7C22222220
6C00000000
5D00000000
1D82111110
02BEFFFFF3
ENDCHAR
STARTCHAR Ebreve
ENCODING 276
SWIDTH 481 0
DWIDTH 12 0
BBX 8 20 2 0
BITMAP
04300420
06800B20
009BB600
00000000
00000000
EFFFFFFE
E5111111
E4000000
E4000000
E4000000
E4000000
E4000000
EFEEEEE4
E5222220
E4000000
E4000000
E4000000
E4000000
E5111111
EFFFFFFE
ENDCHAR
STARTCHAR ebreve
ENCODING 277
SWIDTH 492 0
DWIDTH 12 0
BBX 10 17 1 0
BITMAP
0076008400
0067009300
003B01C100
0006BB4000
0000000000
02BEFFEA10
1DA2112AC0
5E000001F3
6C000000D5
7C000000C6
7C000000D6
7FEEEEEEF6
7C22222220
6C00000000
5D00000000
1D82111110
02BEFFFFF3
ENDCHAR
STARTCHAR Edotaccent
ENCODING 278
SWIDTH 496 0
DWIDTH 12 0
BBX 8 20 2 0
BITMAP
00077000
00099000
00099000
00000000
00000000
EFFFFFFE
E5111111
E4000000
E4000000
E4000000
E4000000
E4000000
EFEEEEE4
E5222220
E4000000
E4000000
E4000000
E4000000
E5111111
EFFFFFFE
ENDCHAR
STARTCHAR edotaccent
ENCODING 279
SWIDTH 492 0
DWIDTH 12 0
BBX 10 17 1 0
BITMAP
0000990000
0000990000
0000870000
0000000000
0000000000
02BEFFEA10
1DA2112AC0
5E000001F3
6C000000D5
7C000000C6
7C000000D6
7FEEEEEEF6
7C22222220
6C00000000
5D00000000
1D82111110
02BEFFFFF3
ENDCHAR
STARTCHAR Eogonek
ENCODING 280
SWIDTH 481 0
DWIDTH 12 0
BBX 8 18 2 -3
BITMAP
EFFFFFFE
E5111111
E4000000
E4000000
E4000000
E4000000
E4000000
EFEEEEE4
E5222220
E4000000
E4000000
E4000000
E4000000
E5111111
EFFFFFFE
00001810
00009E80
00001100
ENDCHAR
STARTCHAR eogonek
ENCODING 281
SWIDTH 492 0
DWIDTH 12 0
BBX 10 16 1 -4
BITMAP
02BEFFEA10
1DA2112AC0
5E000001F3
6C000000D5
7C000000C6
7C000000D6
7FEEEEEEF6
7C22222220
6C00000000
5D00000000
1D82111110
02BEFFFFF3
0000009300
0000049000
000008E800
0000001000
ENDCHAR
STARTCHAR Ecaron
ENCODING 282
SWIDTH 481 0
DWIDTH 12 0
BBX 8 20 2 0
BITMAP
02600520
00C43C00
003CB400
00055000
00000000
EFFFFFFE
E5111111
E4000000
E4000000
E4000000
E4000000
E4000000
EFEEEEE4
E5222220
E4000000
E4000000
E4000000
E4000000
E5111111
EFFFFFFE
ENDCHAR
STARTCHAR ecaron
ENCODING 283
SWIDTH 492 0
DWIDTH 12 0
BBX 10 17 1 0
BITMAP
002D00D200
0009669000
0002DD1000
0000330000
0000000000
02BEFFEA10
1DA2112AC0
5E000001F3
6C000000D5
7C000000C6
7C000000D6
7FEEEEEEF6
7C22222220
6C00000000
5D00000000
1D82111110
02BEFFFFF3
ENDCHAR
STARTCHAR Gcircumflex
ENCODING 284
SWIDTH 539 0
DWIDTH 13 0
BBX 11 20 1 0
BITMAP
000027100000
0000B8A00000
0005A0B40000
000620250000
000000000000
019DFFFD9100
0BC31113CA00
1F2000003F10
3F0000001F20
3F0000000810
3F0000000000
3F0000000000
3F0004EEEE20
3F0000223F20
3F0000001F20
3F0000001F20
3F0000001F20
1F2000004F00
0BB31113C900
019EFFFD8100
ENDCHAR
STARTCHAR gcircumflex
ENCODING 285
SWIDTH 506 0
DWIDTH 12 0
BBX 10 20 1 -3
BITMAP
00006E4000
0001D3D000
0008809600
0004101400
0000000000
02AEFFFFF5
0CA21111D6
3F100000D6
5D000000D6
5D000000D6
5D000000D6
5D000000D6
5D000000D6
4E000000F6
1D810019F6
03CFEEF8D6
00012200D6
00000001F4
0011112AD0
09FFFFEA20
ENDCHAR
STARTCHAR Gbreve
ENCODING 286
SWIDTH 539 0
DWIDTH 13 0
BBX 11 20 1 0
BITMAP
000600060000
000C202B0000
0003BBB30000
000000000000
000000000000
019DFFFD9100
0BC31113CA00
1F2000003F10
3F0000001F20
3F0000000810
3F0000000000
3F0000000000
3F0004EEEE20
3F0000223F20
3F0000001F20
3F0000001F20
3F0000001F20
1F2000004F00
0BB31113C900
019EFFFD8100
ENDCHAR
STARTCHAR gbreve
ENCODING 287
SWIDTH 506 0
DWIDTH 12 0
BBX 10 20 1 -3
BITMAP
000A200C10
0008601D00
00019BB300
0000000000
0000000000
02AEFFFFF5
0CA21111D6
3F100000D6
5D000000D6
5D000000D6
5D000000D6
5D000000D6
5D000000D6
4E000000F6
1D810019F6
03CFEEF8D6
00012200D6
00000001F4
0011112AD0
09FFFFEA20
ENDCHAR
STARTCHAR Gdotaccent
ENCODING 288
SWIDTH 539 0
DWIDTH 13 0
BBX 11 20 1 0
BITMAP
00002D100000
00002F100000
00002F100000
000000000000
000000000000
019DFFFD9100
0BC31113CA00
1F2000003F10
3F0000001F20
3F0000000810
3F0000000000
3F0000000000
3F0004EEEE20
3F0000223F20
3F0000001F20
3F0000001F20
3F0000001F20
1F2000004F00
0BB31113C900
019EFFFD8100
ENDCHAR
STARTCHAR gdotaccent
ENCODING 289
SWIDTH 506 0
DWIDTH 12 0
BBX 10 20 1 -3
BITMAP
00000F3000
00000F3000
00000C2000
0000000000
0000000000
02AEFFFFF5
0CA21111D6
3F100000D6
5D000000D6
5D000000D6
5D000000D6
5D000000D6
5D000000D6
4E000000F6
1D810019F6
03CFEEF8D6
00012200D6
00000001F4
0011112AD0
09FFFFEA20
ENDCHAR
STARTCHAR uni0122
ENCODING 290
SWIDTH 539 0
DWIDTH 13 0
BBX 11 21 1 -6
BITMAP
019DFFFD9100
0BC31113CA00
1F2000003F10
3F0000001F20
3F0000000810
3F0000000000
3F0000000000
3F0004EEEE20
3F0000223F20
3F0000001F20
3F0000001F20
3F0000001F20
1F2000004F00
0BB31113C900
019EFFFD8100
000000000000
00000B700000
00000C700000
00000C500000
00000B100000
000007000000
ENDCHAR
STARTCHAR uni0123
ENCODING 291
SWIDTH 506 0
DWIDTH 12 0
BBX 10 22 1 -3
BITMAP
0000052000
00000A2000
00000E2000
00002F2000
00002F2000
0000000000
0000000000
02AEFFFFF5
0CA21111D6
3F100000D6
5D000000D6
5D000000D6
5D000000D6
5D000000D6
5D000000D6
4E000000F6
1D810019F6
03CFEEF8D6
00012200D6
00000001F4
0011112AD0
09FFFFEA20
ENDCHAR
STARTCHAR hcircumflex
ENCODING 293
SWIDTH 507 0
DWIDTH 12 0
BBX 10 18 1 0
BITMAP
00005B7000
3F02C1B300
3F06403700
3F00000000
3F00000000
3F00000000
3F3CFFEB30
3FB41129E1
3F300000D5
3F000000B7
3F000000B7
3F000000B7
3F000000B7
3F000000B7
3F000000B7
3F000000B7
3F000000B7
3F000000B7
ENDCHAR
STARTCHAR Hbar
ENCODING 294
SWIDTH 523 0
DWIDTH 13 0
BBX 14 15 0 0
BITMAP
00D50000007B00
00D50000007C00
00D60000007C00
6FFFFFFFFFFFF4
01D61111118C10
00D50000007C00
00D60000007C00
00DFEEEEEEFC00
00D72222228C00
00D50000007C00
00D50000007C00
00D50000007C00
00D50000007C00
00D50000007C00
00D50000007B00
ENDCHAR
STARTCHAR hbar
ENCODING 295
SWIDTH 544 0
DWIDTH 13 0
BBX 12 17 0 0
BITMAP
006C00000000
006D00000000
006D00000000
5EFFEEEE2000
127D22220000
006D00000000
006D5CEED910
006EC4223BB0
006F100001F3
006D000000D5
006D000000D6
006D000000D6
006D000000D6
006D000000D6
006D000000D6
006D000000D6
006C000000C5
ENDCHAR
STARTCHAR Itilde
ENCODING 296
SWIDTH 230 0
DWIDTH 6 0
BBX 6 20 0 0
BITMAP
A01CB0
B077A4
B1C175
7F9065
010010
00C500
00D500
00D500
00D500
00D500
00D500
00D500
00D500
00D500
00D500
00D500
00D500
00D500
00D500
00C500
ENDCHAR
STARTCHAR itilde
ENCODING 297
SWIDTH 210 0
DWIDTH 5 0
BBX 7 17 -1 0
BITMAP
1A05EA00
0C1D3C10
0BF80A10
00100100
00000000
001F2000
001F2000
001F2000
001F2000
001F2000
001F2000
001F2000
001F2000
001F2000
001F2000
001F2000
001F2000
ENDCHAR
STARTCHAR Imacron
ENCODING 298
SWIDTH 230 0
DWIDTH 6 0
BBX 6 19 0 0
BITMAP
DEEEE6
222221
000000
000000
00C500
00D500
00D500
00D500
00D500
00D500
00D500
00D500
00D500
00D500
00D500
00D500
00D500
00D500
00C500
ENDCHAR
STARTCHAR imacron
ENCODING 299
SWIDTH 208 0
DWIDTH 5 0
BBX 7 15 -1 0
BITMAP
3FFFFF30
01111100
00000000
001F2000
001F2000
001F2000
001F2000
001F2000
001F2000
001F2000
001F2000
001F2000
001F2000
001F2000
001F2000
ENDCHAR
STARTCHAR Ibreve
ENCODING 300
SWIDTH 231 0
DWIDTH 6 0
BBX 6 20 0 0
BITMAP
420051
7701D1
19BB50
000000
000000
00C500
00D500
00D500
00D500
00D500
00D500
00D500
00D500
00D500
00D500
00D500
00D500
00D500
00D500
00C500
ENDCHAR
STARTCHAR ibreve
ENCODING 301
SWIDTH 211 0
DWIDTH 5 0
BBX 5 17 0 0
BITMAP
C000C0
C100C0
860590
19BA10
000000
01F200
01F200
01F200
01F200
01F200
01F200
01F200
01F200
01F200
01F200
01F200
01F200
ENDCHAR
STARTCHAR Iogonek
ENCODING 302
SWIDTH 230 0
DWIDTH 6 0
BBX 4 18 0 -3
BITMAP
00C5
00D5
00D5
00D5
00D5
00D5
00D5
00D5
00D5
00D5
00D5
00D5
00D5
00D5
00D5
0550
2FD2
0100
ENDCHAR
STARTCHAR iogonek
ENCODING 303
SWIDTH 210 0
DWIDTH 5 0
BBX 4 21 0 -4
BITMAP
01F2
01F2
01D1
0000
0000
01F2
01F2
01F2
01F2
01F2
01F2
01F2
01F2
01F2
01F2
01F2
01F2
0750
2B00
6EA0
0100
ENDCHAR
STARTCHAR Idotaccent
ENCODING 304
SWIDTH 230 0
DWIDTH 6 0
BBX 2 19 2 0
BITMAP
C5
D5
A4
00
C5
D5
D5
D5
D5
D5
D5
D5
D5
D5
D5
D5
D5
D5
C5
ENDCHAR
STARTCHAR dotlessi
ENCODING 305
SWIDTH 212 0
DWIDTH 5 0
BBX 3 12 1 0
BITMAP
1F20
1F20
1F20
1F20
1F20
1F20
1F20
1F20
1F20
1F20
1F20
1F20
ENDCHAR
STARTCHAR IJ
ENCODING 306
SWIDTH 721 0
DWIDTH 17 0
BBX 14 15 2 0
BITMAP
C60000000000B7
C60000000000B7
C60000000000B7
C60000000000B7
C60000000000B7
C60000000000B7
C60000000000B7
C60000000000B7
C60000000000B7
C60054000000B7
C600A8000000B7
C600A8000000B7
C6008A000000E5
C6003F621129D1
C60004CEFFEB20
ENDCHAR
STARTCHAR ij
ENCODING 307
SWIDTH 419 0
DWIDTH 10 0
BBX 8 20 1 -3
BITMAP
1F2001F2
1F2001F2
1D1001D2
00000000
00000000
1F2001F2
1F2001F2
1F2001F2
1F2001F2
1F2001F2
1F2001F2
1F2001F2
1F2001F2
1F2001F2
1F2001F2
1F2001F2
1F2001F2
000003F0
00013C90
003FD810
ENDCHAR
STARTCHAR Jcircumflex
ENCODING 308
SWIDTH 494 0
DWIDTH 12 0
BBX 12 20 0 0
BITMAP
000000002710
00000000C890
0000000690C3
000000061035
000000000000
000000002F10
000000002F10
000000002F10
000000002F10
000000002F10
000000002F10
000000002F10
000000002F10
000000002F10
181000002F10
1F2000002F10
1F2000002F10
0E4000005E00
09D41114D800
018DFFFD8000
ENDCHAR
STARTCHAR jcircumflex
ENCODING 309
SWIDTH 209 0
DWIDTH 5 0
BBX 7 20 -2 -3
BITMAP
0005E500
000D3D00
00790870
00410140
00000000
0001F200
0001F200
0001F200
0001F200
0001F200
0001F200
0001F200
0001F200
0001F200
0001F200
0001F200
0001F200
0004F000
014C9000
3FD81000
ENDCHAR
STARTCHAR uni0136
ENCODING 310
SWIDTH 530 0
DWIDTH 13 0
BBX 10 21 2 -6
BITMAP
E3000005E2
E400002E60
E40001C900
E40009C000
E4006E2000
E403F50000
E41DA00000
E4BCE20000
EAC19C0000
ED101D7000
E40003E300
E400008C00
E400000C80
E4000003E3
E30000006D
0000450000
00009A0000
0000990000
0000950000
0000910000
0000200000
ENDCHAR
STARTCHAR uni0137
ENCODING 311
SWIDTH 431 0
DWIDTH 10 0
BBX 9 23 1 -6
BITMAP
3F00000000
3F00000000
3F00000000
3F00000000
3F00000000
3F00001D60
3F0000AB00
3F0005E200
3F001E7000
3F00AC0000
3F04F20000
3F02E50000
3F005E2000
3F000AB000
3F0001E700
3F00004F30
3F000008C0
0000000000
0000D50000
0000E50000
0000E20000
0000C00000
0000700000
ENDCHAR
STARTCHAR Lacute
ENCODING 313
SWIDTH 451 0
DWIDTH 11 0
BBX 9 20 2 0
BITMAP
0173000000
0AB0000000
4D10000000
5200000000
0000000000
E300000000
E400000000
E400000000
E400000000
E400000000
E400000000
E400000000
E400000000
E400000000
E400000000
E400000000
E400000000
E400000000
E511111100
EFFFFFFF30
ENDCHAR
STARTCHAR lacute
ENCODING 314
SWIDTH 207 0
DWIDTH 5 0
BBX 5 21 1 0
BITMAP
002710
00C900
07B000
061000
1F2000
1F2000
1F2000
1F2000
1F2000
1F2000
1F2000
1F2000
1F2000
1F2000
1F2000
1F2000
1F2000
1F2000
1F2000
1F2000
1F2000
ENDCHAR
STARTCHAR uni013B
ENCODING 315
SWIDTH 451 0
DWIDTH 11 0
BBX 9 21 2 -6
BITMAP
E300000000
E400000000
E400000000
E400000000
E400000000
E400000000
E400000000
E400000000
E400000000
E400000000
E400000000
E400000000
E400000000
E511111100
EFFFFFFF30
0000000000
0008B00000
0008B00000
0008800000
0008400000
0007000000
ENDCHAR
STARTCHAR uni013C
ENCODING 316
SWIDTH 211 0
DWIDTH 5 0
BBX 3 23 1 -6
BITMAP
1F20
1F20
1F20
1F20
1F20
1F20
1F20
1F20
1F20
1F20
1F20
1F20
1F20
1F20
1F20
1F20
1F20
0000
1F20
2F20
2E00
2A00
1600
ENDCHAR
STARTCHAR Lcaron
ENCODING 317
SWIDTH 451 0
DWIDTH 11 0
BBX 9 15 2 0
BITMAP
E30008A000
E40009A000
E400099000
E400096000
E400092000
E400060000
E400000000
E400000000
E400000000
E400000000
E400000000
E400000000
E400000000
E511111100
EFFFFFFF30
ENDCHAR
STARTCHAR lcaron
ENCODING 318
SWIDTH 274 0
DWIDTH 7 0
BBX 6 17 1 0
BITMAP
1F21F3
1F21F3
1F21F2
1F21E0
1F21A0
1F2150
1F2000
1F2000
1F2000
1F2000
1F2000
1F2000
1F2000
1F2000
1F2000
1F2000
1F2000
ENDCHAR
STARTCHAR Ldot
ENCODING 319
SWIDTH 500 0
DWIDTH 12 0
BBX 9 15 2 0
BITMAP
E400000000
E400000000
E400000000
E400000000
E400000000
E400000000
E4005E0000
E4005F0000
E4005F0000
E400000000
E400000000
E400000000
E400000000
E511111100
EFFFFFFF30
ENDCHAR
STARTCHAR ldot
ENCODING 320
SWIDTH 314 0
DWIDTH 8 0
BBX 6 17 1 0
BITMAP
1F2000
1F3000
1F3000
1F3000
1F3000
1F3000
1F3000
1F3000
1F30C7
1F30D8
1F30C7
1F3000
1F3000
1F3000
1F3000
1F3000
1F2000
ENDCHAR
STARTCHAR Lslash
ENCODING 321
SWIDTH 504 0
DWIDTH 12 0
BBX 11 15 0 0
BITMAP
00C600000000
00C700000000
00C700000000
00C729200000
00CCE8000000
06EB10000000
ABD700000000
20C700000000
00C700000000
00C700000000
00C700000000
00C700000000
00C700000000
00C711111100
00CFFFFFFF50
ENDCHAR
STARTCHAR lslash
ENCODING 322
SWIDTH 296 0
DWIDTH 7 0
BBX 7 17 0 0
BITMAP
001F2000
001F2000
001F2000
001F2000
001F2010
001F6C60
003FD500
18EF3000
593F2000
001F2000
001F2000
001F2000
001F2000
001F2000
001F2000
001F2000
001F2000
ENDCHAR
STARTCHAR Nacute
ENCODING 323
SWIDTH 579 0
DWIDTH 14 0
BBX 10 20 2 0
BITMAP
0000005600
000003F400
00000C6000
0000260000
0000000000
E60000004D
EE1000005D
EE9000005D
E6F300005D
E48C00005D
E40D60005D
E404E1005D
E400A9005D
E4002E305D
E40007C05D
E40000D65D
E400004E6D
E400000ADD
E4000002ED
E30000007D
ENDCHAR
STARTCHAR nacute
ENCODING 324
SWIDTH 507 0
DWIDTH 12 0
BBX 10 17 1 0
BITMAP
000000CB00
000006D100
00001D3000
0000130000
0000000000
3F3CFFEB30
3FB41129E1
3F300000D5
3F000000B7
3F000000B7
3F000000B7
3F000000B7
3F000000B7
3F000000B7
3F000000B7
3F000000B7
3F000000B7
ENDCHAR
STARTCHAR uni0145
ENCODING 325
SWIDTH 579 0
DWIDTH 14 0
BBX 10 21 2 -6
BITMAP
E60000004D
EE1000005D
EE9000005D
E6F300005D
E48C00005D
E40D60005D
E404E1005D
E400A9005D
E4002E305D
E40007C05D
E40000D65D
E400004E6D
E400000ADD
E4000002ED
E30000007D
0000000000
0000990000
0000990000
0000960000
0000920000
0000700000
ENDCHAR
STARTCHAR uni0146
ENCODING 326
SWIDTH 505 0
DWIDTH 12 0
BBX 10 18 1 -6
BITMAP
3F3CFFEB30
3FB41129E1
3F300000D5
3F000000B7
3F000000B7
3F000000B7
3F000000B7
3F000000B7
3F000000B7
3F000000B7
3F000000B7
3F000000B7
0000000000
00007C0000
00007C0000
0000790000
0000750000
0000610000
ENDCHAR
STARTCHAR Ncaron
ENCODING 327
SWIDTH 579 0
DWIDTH 14 0
BBX 10 20 2 0
BITMAP
0026006200
000C33C000
0003CB3000
0000550000
0000000000
E60000004D
EE1000005D
EE9000005D
E6F300005D
E48C00005D
E40D60005D
E404E1005D
E400A9005D
E4002E305D
E40007C05D
E40000D65D
E400004E6D
E400000ADD
E4000002ED
E30000007D
ENDCHAR
STARTCHAR ncaron
ENCODING 328
SWIDTH 507 0
DWIDTH 12 0
BBX 10 17 1 0
BITMAP
001D10B400
000784B000
0000DC3000
0000240000
0000000000
3F3CFFEB30
3FB41129E1
3F300000D5
3F000000B7
3F000000B7
3F000000B7
3F000000B7
3F000000B7
3F000000B7
3F000000B7
3F000000B7
3F000000B7
ENDCHAR
STARTCHAR Eng
ENCODING 330
SWIDTH 519 0
DWIDTH 12 0
BBX 10 18 2 -3
BITMAP
E70000004D
EE2000004E
EEA000004E
E6E400004E
E47D00004E
E40D70004E
E404E1004E
E400AA004E
E4002E404E
E40007C04E
E40000D64E
E400004E6E
E400000ADE
E4000002EE
E40000007E
000000006C
00000014D6
000006FD70
ENDCHAR
STARTCHAR eng
ENCODING 331
SWIDTH 507 0
DWIDTH 12 0
BBX 10 15 1 -3
BITMAP
3F3CFFEB30
3FB41128E1
3F300000D5
3F000000B7
3F000000B7
3F000000B7
3F000000B7
3F000000B7
3F000000B7
3F000000B7
3F000000B7
3F000000B7
00000000D5
00000129E1
00000DEB30
ENDCHAR
STARTCHAR Omacron
ENCODING 332
SWIDTH 553 0
DWIDTH 13 0
BBX 11 19 1 0
BITMAP
001EEEEE4000
000222220000
000000000000
000000000000
019DFFFEB200
0BC311129D10
1F2000000D50
3F0000000B70
3F0000000B70
3F0000000B70
3F0000000B70
3F0000000B70
3F0000000B70
3F0000000B70
3F0000000B70
3F0000000B70
1F2000000D50
0BB311129E10
019EFFFEB300
ENDCHAR
STARTCHAR omacron
ENCODING 333
SWIDTH 496 0
DWIDTH 12 0
BBX 10 15 1 0
BITMAP
00BFFFF900
0001111000
0000000000
02BEFFEA20
1D92112AC0
5E000001E4
6C000000D5
7C000000C6
7C000000C6
7C000000C6
7C000000C6
6C000000D5
5E000001E4
1D92112AC0
02BEFFEA20
ENDCHAR
STARTCHAR Obreve
ENCODING 334
SWIDTH 553 0
DWIDTH 13 0
BBX 11 20 1 0
BITMAP
000510060000
000A501D0000
0002ABB40000
000000000000
000000000000
019DFFFEB200
0BC311129D10
1F2000000D50
3F0000000B70
3F0000000B70
3F0000000B70
3F0000000B70
3F0000000B70
3F0000000B70
3F0000000B70
3F0000000B70
3F0000000B70
1F2000000D50
0BB311129E10
019EFFFEB300
ENDCHAR
STARTCHAR obreve
ENCODING 335
SWIDTH 496 0
DWIDTH 12 0
BBX 10 17 1 0
BITMAP
0066007500
0068008400
002C01C100
0006BB5000
0000000000
02BEFFEA20
1D92112AC0
5E000001E4
6C000000D5
7C000000C6
7C000000C6
7C000000C6
7C000000C6
6C000000D5
5E000001E4
1D92112AC0
02BEFFEA20
ENDCHAR
STARTCHAR Ohungarumlaut
ENCODING 336
SWIDTH 553 0
DWIDTH 13 0
BBX 11 20 1 0
BITMAP
00001D51D400
000089098000
0002B02B0000
000000000000
000000000000
019DFFFEB200
0BC311129D10
1F2000000D50
3F0000000B70
3F0000000B70
3F0000000B70
3F0000000B70
3F0000000B70
3F0000000B70
3F0000000B70
3F0000000B70
3F0000000B70
1F2000000D50
0BB311129E10
019EFFFEB300
ENDCHAR
STARTCHAR ohungarumlaut
ENCODING 337
SWIDTH 496 0
DWIDTH 12 0
BBX 10 17 1 0
BITMAP
00007B08A0
0002D12D10
000A40A300
0000000000
0000000000
02BEFFEA20
1D92112AC0
5E000001E4
6C000000D5
7C000000C6
7C000000C6
7C000000C6
7C000000C6
6C000000D5
5E000001E4
1D92112AC0
02BEFFEA20
ENDCHAR
STARTCHAR OE
ENCODING 338
SWIDTH 775 0
DWIDTH 19 0
BBX 16 15 1 0
BITMAP
019DFFFFFFFFFFFC
0AC31113F3111111
1F300001F2000000
2F100001F2000000
3F100001F2000000
3F100001F2000000
3F100001F2000000
3F100001FEEEEEE1
3F100001F4222220
3F100001F2000000
3F100001F2000000
2F100001F2000000
1F300001F2000000
0AC31113F3111111
019DFFFFFFFFFFFC
ENDCHAR
STARTCHAR oe
ENCODING 339
SWIDTH 812 0
DWIDTH 19 0
BBX 17 12 1 0
BITMAP
02BEFFE914CFFFD600
1D92112ABE51115E50
5E000001F9000007C0
6C000000D6000004E0
7C000000D6000004E0
7C000000D6000004E0
7C000000DFEEEEEFE0
7C000000D722222220
6C000000D600000000
5E000001F700000000
1D92112ACE51111110
02BEFFEA15CFFFFFB0
ENDCHAR
STARTCHAR Racute
ENCODING 340
SWIDTH 534 0
DWIDTH 13 0
BBX 10 20 2 0
BITMAP
0000074000
00007D1000
0002E30000
0004300000
0000000000
EFFFFFD800
E511114D90
E4000004F0
E4000001F2
E4000001F2
E4000001F2
E4000003F0
E400002BA0
EFEEEEFA10
E52229C000
E40001E400
E400008C00
E400001E50
E4000008C0
E3000001E5
ENDCHAR
STARTCHAR racute
ENCODING 341
SWIDTH 313 0
DWIDTH 8 0
BBX 6 17 1 0
BITMAP
0006E2
001E60
008900
004000
000000
3F3BFD
3FB411
3F4000
3F0000
3F0000
3F0000
3F0000
3F0000
3F0000
3F0000
3F0000
3F0000
ENDCHAR
STARTCHAR uni0156
ENCODING 342
SWIDTH 534 0
DWIDTH 13 0
BBX 10 21 2 -6
BITMAP
EFFFFFD800
E511114D90
E4000004F0
E4000001F2
E4000001F2
E4000001F2
E4000003F0
E400002BA0
EFEEEEFA10
E52229C000
E40001E400
E400008C00
E400001E50
E4000008C0
E3000001E5
0000000000
0003F00000
0003F00000
0003D00000
0003800000
0003400000
ENDCHAR
STARTCHAR uni0157
ENCODING 343
SWIDTH 313 0
DWIDTH 8 0
BBX 6 18 1 -6
BITMAP
3F3BFD
3FB411
3F4000
3F0000
3F0000
3F0000
3F0000
3F0000
3F0000
3F0000
3F0000
3F0000
000000
3F1000
3F0000
3D0000
390000
340000
ENDCHAR
STARTCHAR Rcaron
ENCODING 344
SWIDTH 534 0
DWIDTH 13 0
BBX 10 20 2 0
BITMAP
0160052000
00B42C0000
002CB40000
0005600000
0000000000
EFFFFFD800
E511114D90
E4000004F0
E4000001F2
E4000001F2
E4000001F2
E4000003F0
E400002BA0
EFEEEEFA10
E52229C000
E40001E400
E400008C00
E400001E50
E4000008C0
E3000001E5
ENDCHAR
STARTCHAR rcaron
ENCODING 345
SWIDTH 313 0
DWIDTH 8 0
BBX 6 17 1 0
BITMAP
0D20A5
0693C0
00CC40
002400
000000
3F3BFD
3FB411
3F4000
3F0000
3F0000
3F0000
3F0000
3F0000
3F0000
3F0000
3F0000
3F0000
ENDCHAR
STARTCHAR Sacute
ENCODING 346
SWIDTH 562 0
DWIDTH 13 0
BBX 11 20 1 0
BITMAP
000000272000
000000CA0000
000007C00000
000006100000
000000000000
008DFFFEB300
08D411129E10
0E5000000D50
1F3000000B70
1F3000000210
0D8000000000
04EB62000000
0027BEEA5000
00000038EA00
000000002E50
061000000B80
1F3000000B80
0E5000000D60
08D411128E10
008DFFFEB300
ENDCHAR
STARTCHAR sacute
ENCODING 347
SWIDTH 427 0
DWIDTH 10 0
BBX 8 17 1 0
BITMAP
00006F30
0001D700
0007A000
00041000
00000000
19DFFFF6
8D411110
B7000000
A8000000
4E820000
029EB500
00016CD3
0000009C
0000004F
0000004F
011113BB
AFFFFEA2
ENDCHAR
STARTCHAR Scircumflex
ENCODING 348
SWIDTH 562 0
DWIDTH 13 0
BBX 11 20 1 0
BITMAP
000007300000
000079D10000
0002D1780000
000440070000
000000000000
008DFFFEB300
08D411129E10
0E5000000D50
1F3000000B70
1F3000000210
0D8000000000
04EB62000000
0027BEEA5000
00000038EA00
000000002E50
061000000B80
1F3000000B80
0E5000000D60
08D411128E10
008DFFFEB300
ENDCHAR
STARTCHAR scircumflex
ENCODING 349
SWIDTH 427 0
DWIDTH 10 0
BBX 8 17 1 0
BITMAP
000CC000
005A8700
00D21D10
01400320
00000000
19DFFFF6
8D411110
B7000000
A8000000
4E820000
029EB500
00016CD3
0000009C
0000004F
0000004F
011113BB
AFFFFEA2
ENDCHAR
STARTCHAR uni015E
ENCODING 350
SWIDTH 562 0
DWIDTH 13 0
BBX 11 20 1 -5
BITMAP
008DFFFEB300
08D411129E10
0E5000000D50
1F3000000B70
1F3000000210
0D8000000000
04EB62000000
0027BEEA5000
00000038EA00
000000002E50
061000000B80
1F3000000B80
0E5000000D60
08D411128E10
008DFFFEB300
000009500000
00004FC40000
000002790000
00002EE50000
000002000000
ENDCHAR
STARTCHAR uni015F
ENCODING 351
SWIDTH 427 0
DWIDTH 10 0
BBX 8 17 1 -5
BITMAP
19DFFFF6
8D411110
B7000000
A8000000
4E810000
029EA500
00016CD3
0000009C
0000004F
0000004F
011113BC
AFFFFEB2
00059000
000ED700
00013D00
000CF900
00011000
ENDCHAR
STARTCHAR Scaron
ENCODING 352
SWIDTH 562 0
DWIDTH 13 0
BBX 11 20 1 0
BITMAP
000430170000
0002D0880000
000089D10000
000017300000
000000000000
008DFFFEB300
08D411129E10
0E5000000D50
1F3000000B70
1F3000000210
0D8000000000
04EB62000000
0027BEEA5000
00000038EA00
000000002E50
061000000B80
1F3000000B80
0E5000000D60
08D411128E10
008DFFFEB300
ENDCHAR
STARTCHAR scaron
ENCODING 353
SWIDTH 427 0
DWIDTH 10 0
BBX 8 17 1 0
BITMAP
01D10C30
00875A00
001DC200
00033000
00000000
19DFFFF6
8D411110
B7000000
A8000000
4E820000
029EB500
00016CD3
0000009C
0000004F
0000004F
011113BB
AFFFFEA2
ENDCHAR
STARTCHAR uni0162
ENCODING 354
SWIDTH 420 0
DWIDTH 10 0
BBX 10 21 0 -6
BITMAP
8FFFFFFFF9
01119A1110
00008A0000
00008A0000
00008A0000
00008A0000
00008A0000
00008A0000
00008A0000
00008A0000
00008A0000
00008A0000
00008A0000
00008A0000
0000890000
0000450000
00009A0000
0000990000
0000950000
0000810000
0000200000
ENDCHAR
STARTCHAR uni0163
ENCODING 355
SWIDTH 347 0
DWIDTH 8 0
BBX 8 21 0 -6
BITMAP
00350000
007C0000
007C0000
6FFFFFF1
018C1110
007C0000
007C0000
007C0000
007C0000
007C0000
007C0000
007C0000
005E0000
001D9210
0002AEF5
00005400
0000A900
0000A800
0000A400
00009000
00002000
ENDCHAR
STARTCHAR Tcaron
ENCODING 356
SWIDTH 420 0
DWIDTH 10 0
BBX 10 20 0 0
BITMAP
0016005200
000B42C000
0002CB4000
0000560000
0000000000
8FFFFFFFF9
01119A1110
00008A0000
00008A0000
00008A0000
00008A0000
00008A0000
00008A0000
00008A0000
00008A0000
00008A0000
00008A0000
00008A0000
00008A0000
0000890000
ENDCHAR
STARTCHAR tcaron
ENCODING 357
SWIDTH 396 0
DWIDTH 10 0
BBX 10 15 0 0
BITMAP
00230000E4
007C0000E5
007C0000E4
6FFFFFF1E1
018C1110B0
007C000070
007C000000
007C000000
007C000000
007C000000
007C000000
007C000000
005E000000
001D921000
0002AEF500
ENDCHAR
STARTCHAR Tbar
ENCODING 358
SWIDTH 501 0
DWIDTH 12 0
BBX 10 15 0 0
BITMAP
7FFFFFFFFC
01117C1111
00007C0000
00007C0000
00007C0000
00007C0000
03EEFFEEA0
00228C2210
00007C0000
00007C0000
00007C0000
00007C0000
00007C0000
00007C0000
00006B0000
ENDCHAR
STARTCHAR tbar
ENCODING 359
SWIDTH 350 0
DWIDTH 8 0
BBX 8 15 0 0
BITMAP
00360000
007C0000
007C0000
6FFFFFF2
017D1110
007C0000
007C0000
007C0000
5EFFEEE2
128D2220
007C0000
007C0000
005E0000
001E9210
0003BEF6
ENDCHAR
STARTCHAR Utilde
ENCODING 360
SWIDTH 552 0
DWIDTH 13 0
BBX 11 20 1 0
BITMAP
000A02DA0000
000B096B1000
000C1C083000
0009F7083000
000010010000
1F2000000D50
1F2000000D50
1F2000000D50
1F2000000D50
1F2000000D50
1F2000000D50
1F2000000D50
1F2000000D50
1F2000000D50
1F2000000D50
1F2000000D50
1F2000000D50
0E4000001F30
09D41113AC00
018DFFFEA200
ENDCHAR
STARTCHAR utilde
ENCODING 361
SWIDTH 507 0
DWIDTH 12 0
BBX 10 17 1 0
BITMAP
00921CE300
0084786800
005FE13800
0001000100
0000000000
4D000000C5
5D000000C6
5D000000C6
5D000000C6
5D000000C6
5D000000C6
5D000000C6
5D000000C6
5D000000D6
3F100001F6
0CA3113BE6
02AEFFD6C5
ENDCHAR
STARTCHAR Umacron
ENCODING 362
SWIDTH 552 0
DWIDTH 13 0
BBX 11 19 1 0
BITMAP
001EEEEE4000
000222220000
000000000000
000000000000
1F2000000D50
1F2000000D50
1F2000000D50
1F2000000D50
1F2000000D50
1F2000000D50
1F2000000D50
1F2000000D50
1F2000000D50
1F2000000D50
1F2000000D50
1F2000000D50
0E4000001F30
09D41113AC00
018DFFFEA200
ENDCHAR
STARTCHAR umacron
ENCODING 363
SWIDTH 507 0
DWIDTH 12 0
BBX 10 15 1 0
BITMAP
00AFFFFB00
0001111000
0000000000
4D000000C5
5D000000C6
5D000000C6
5D000000C6
5D000000C6
5D000000C6
5D000000C6
5D000000C6
5D000000D6
3F100001F6
0CA3113BE6
02AEFFD6C5
ENDCHAR
STARTCHAR Ubreve
ENCODING 364
SWIDTH 552 0
DWIDTH 13 0
BBX 11 20 1 0
BITMAP
000510060000
000A501D0000
0002ABB40000
000000000000
000000000000
1F2000000D50
1F2000000D50
1F2000000D50
1F2000000D50
1F2000000D50
1F2000000D50
1F2000000D50
1F2000000D50
1F2000000D50
1F2000000D50
1F2000000D50
1F2000000D50
0E4000001F30
09D41113AC00
018DFFFEA200
ENDCHAR
STARTCHAR ubreve
ENCODING 365
SWIDTH 507 0
DWIDTH 12 0
BBX 10 17 1 0
BITMAP
0058006600
0049007500
001C10B200
0005BB5000
0000000000
4D000000C5
5D000000C6
5D000000C6
5D000000C6
5D000000C6
5D000000C6
5D000000C6
5D000000C6
5D000000D6
3F100001F6
0CA3113BE6
02AEFFD6C5
ENDCHAR
STARTCHAR Uring
ENCODING 366
SWIDTH 552 0
DWIDTH 13 0
BBX 11 21 1 0
BITMAP
0000AEC20000
0004A2770000
000560290000
000490680000
0001CFD20000
000001000000
1F2000000D50
1F2000000D50
1F2000000D50
1F2000000D50
1F2000000D50
1F2000000D50
1F2000000D50
1F2000000D50
1F2000000D50
1F2000000D50
1F2000000D50
1F2000000D50
0E4000001F30
09D41113AC00
018DFFFEA200
ENDCHAR
STARTCHAR uring
ENCODING 367
SWIDTH 507 0
DWIDTH 12 0
BBX 10 17 1 0
BITMAP
001BED3000
0059258000
0057039000
002EEE4000
0000210000
4D000000C5
5D000000C6
5D000000C6
5D000000C6
5D000000C6
5D000000C6
5D000000C6
5D000000C6
5D000000D6
3F100001F6
0CA3113BE6
02AEFFD6C5
ENDCHAR
STARTCHAR Uhungarumlaut
ENCODING 368
SWIDTH 552 0
DWIDTH 13 0
BBX 11 20 1 0
BITMAP
00002E32E300
0000A70A7000
0003A04A0000
000000000000
000000000000
1F2000000D50
1F2000000D50
1F2000000D50
1F2000000D50
1F2000000D50
1F2000000D50
1F2000000D50
1F2000000D50
1F2000000D50
1F2000000D50
1F2000000D50
1F2000000D50
0E4000001F30
09D41113AC00
018DFFFEA200
ENDCHAR
STARTCHAR uhungarumlaut
ENCODING 369
SWIDTH 507 0
DWIDTH 12 0
BBX 10 17 1 0
BITMAP
00007B08B0
0002D12D10
000A40A400
0000000000
0000000000
4D000000C5
5D000000C6
5D000000C6
5D000000C6
5D000000C6
5D000000C6
5D000000C6
5D000000C6
5D000000D6
3F100001F6
0CA3113BE6
02AEFFD6C5
ENDCHAR
STARTCHAR Uogonek
ENCODING 370
SWIDTH 552 0
DWIDTH 13 0
BBX 11 18 1 -3
BITMAP
1F2000000D50
1F2000000D50
1F2000000D50
1F2000000D50
1F2000000D50
1F2000000D50
1F2000000D50
1F2000000D50
1F2000000D50
1F2000000D50
1F2000000D50
1F2000000D50
0E4000001F30
09D41113AC00
018DFFFEA200
000008200000
00008E900000
000011000000
ENDCHAR
STARTCHAR uogonek
ENCODING 371
SWIDTH 503 0
DWIDTH 12 0
BBX 10 16 1 -4
BITMAP
4D000000C5
5D000000C6
5D000000C6
5D000000C6
5D000000C6
5D000000C6
5D000000C6
5D000000C6
5D000000D6
3F100001F6
0CA3113BE6
02AEFFD6D5
0000000660
0000002B00
0000006FB0
0000000100
ENDCHAR
STARTCHAR Wcircumflex
ENCODING 372
SWIDTH 795 0
DWIDTH 19 0
BBX 19 20 0 0
BITMAP
00000000172000000000
00000000A8B000000000
00000004B0A500000000
00000005202600000000
00000000000000000000
2F2000005F5000002F30
0E6000009EA000005F00
0B900000D7E000008C00
08C00002E0E30000B800
04F00006B0A70000E500
01F3000A606B0003F100
00C7000E202F1006D000
009A004D000D4009A000
005D00890008800C6000
002F10C50004C01F3000
000E41F10001F24E0000
000A85C00000B67B0000
0007B98000007AA80000
0003ED4000003ED40000
0000EE0000000EF10000
ENDCHAR
STARTCHAR wcircumflex
ENCODING 373
SWIDTH 682 0
DWIDTH 16 0
BBX 16 17 0 0
BITMAP
0000000AD1000000
0000004B69000000
000000C40D200000
0000004003200000
0000000000000000
6C000008E000007C
2F20000CF30000B8
0D60001E970001F3
08A0005A5B0005E0
04E000A61E000990
00E300E20C400D50
00A703D008802F10
006C079004C06B00
001F1B5000E1B700
000C5E1000B5E300
0008DC00007DD000
0003F800002F9000
ENDCHAR
STARTCHAR Ycircumflex
ENCODING 374
SWIDTH 493 0
DWIDTH 12 0
BBX 12 20 0 0
BITMAP
000006400000
00005AC20000
0001D25B0000
000350061000
000000000000
3F20000005E1
0B9000000C80
03F200005E10
00B90000C800
003F2005E100
000AA00C7000
0003F25E1000
0000AAC70000
00002FE10000
00000B800000
00000B800000
00000B800000
00000B800000
00000B800000
00000A700000
ENDCHAR
STARTCHAR ycircumflex
ENCODING 375
SWIDTH 459 0
DWIDTH 11 0
BBX 11 20 0 -3
BITMAP
00003E800000
0000B4D20000
0004C06A0000
000320050000
000000000000
3E1000001E40
0D6000005D00
07B00000B800
02F20001F300
00B70007C000
006D000C7000
001E303F1000
000A808B0000
0004E0D50000
0000E8E10000
00008F900000
00000E400000
00006D000000
0126E4000000
0BFD50000000
ENDCHAR
STARTCHAR Ydieresis
ENCODING 376
SWIDTH 493 0
DWIDTH 12 0
BBX 12 20 0 0
BITMAP
0009800B6000
000A800B7000
0009800B7000
000000000000
000000000000
3F20000005E1
0B9000000C80
03F200005E10
00B90000C800
003F2005E100
000AA00C7000
0003F25E1000
0000AAC70000
00002FE10000
00000B800000
00000B800000
00000B800000
00000B800000
00000B800000
00000A700000
ENDCHAR
STARTCHAR Zacute
ENCODING 377
SWIDTH 482 0
DWIDTH 12 0
BBX 10 20 1 0
BITMAP
0000005600
000004F300
00000D5000
0000250000
0000000000
BFFFFFFFF4
01111116F2
0000001D80
0000008D10
000003F400
00000CA000
00006E2000
0001E60000
000AC00000
004F300000
00D8000000
08D1000000
2F50000000
BB11111110
FFFFFFFFF8
ENDCHAR
STARTCHAR zacute
ENCODING 378
SWIDTH 405 0
DWIDTH 10 0
BBX 9 17 0 0
BITMAP
000000BC00
000004E200
00000C5000
0000140000
0000000000
0FFFFFFFB0
0111112E60
000000AC00
000005F200
00001D8000
00009D0000
0003F40000
000C900000
007E100000
02F5000000
0BB1111110
2FFFFFFFD0
ENDCHAR
STARTCHAR Zdotaccent
ENCODING 379
SWIDTH 482 0
DWIDTH 12 0
BBX 10 20 1 0
BITMAP
00004B0000
00005D0000
00005D0000
0000000000
0000000000
BFFFFFFFF4
01111116F2
0000001D80
0000008D10
000003F400
00000CA000
00006E2000
0001E60000
000AC00000
004F300000
00D8000000
08D1000000
2F50000000
BB11111110
FFFFFFFFF8
ENDCHAR
STARTCHAR zdotaccent
ENCODING 380
SWIDTH 405 0
DWIDTH 10 0
BBX 9 17 0 0
BITMAP
00004E0000
00004E0000
00003B0000
0000000000
0000000000
0FFFFFFFB0
0111112E60
000000AC00
000005F200
00001D8000
00009D0000
0003F40000
000C900000
007E100000
02F5000000
0BB1111110
2FFFFFFFD0
ENDCHAR
STARTCHAR Zcaron
ENCODING 381
SWIDTH 482 0
DWIDTH 12 0
BBX 10 20 1 0
BITMAP
0007004300
000A61D100
0001DA6000
0000460000
0000000000
BFFFFFFFF4
01111116F2
0000001D80
0000008D10
000003F400
00000CA000
00006E2000
0001E60000
000AC00000
004F300000
00D8000000
08D1000000
2F50000000
BB11111110
FFFFFFFFF8
ENDCHAR
STARTCHAR zcaron
ENCODING 382
SWIDTH 405 0
DWIDTH 10 0
BBX 9 17 0 0
BITMAP
000B408700
0004B1D100
0000BC6000
0000150000
0000000000
0FFFFFFFB0
0111112E60
000000AC00
000005F200
00001D8000
00009D0000
0003F40000
000C900000
007E100000
02F5000000
0BB1111110
2FFFFFFFD0
ENDCHAR
STARTCHAR florin
ENCODING 402
SWIDTH 494 0
DWIDTH 12 0
BBX 12 20 0 -3
BITMAP
000000007DF6
00000007D410
0000001E4000
0000005E0000
0000008A0000
000000B70000
000000E40000
000AEEFEED00
000128D22200
000009900000
00000D600000
00001F300000
00004E000000
00007B000000
0000A8000000
0000D5000000
0001F2000000
0006C0000000
015E50000000
8FC500000000
ENDCHAR
STARTCHAR AEacute
ENCODING 508
SWIDTH 773 0
DWIDTH 19 0
BBX 17 20 0 0
BITMAP
000000000005600000
00000000004F400000
0000000000D5000000
000000000250000000
000000000000000000
00000001DFFFFFFFE0
00000008DF51111110
0000002E5E40000000
0000009B0E40000000
000003F30E40000000
00000B900E40000000
00005E200E40000000
0000D8000EFEEEEE40
0007E1000E62222200
001E60000E40000000
009FEEEEEF40000000
02F522222E40000000
0BB000000E40000000
4F2000000E51111110
C80000000EFFFFFFE0
ENDCHAR
STARTCHAR aeacute
ENCODING 509
SWIDTH 795 0
DWIDTH 19 0
BBX 17 17 1 0
BITMAP
0000000004F4000000
000000000C80000000
000000006B00000000
000000003100000000
000000000000000000
04FFFFE806DFFEB300
0011113CBD51127E10
00000003F600000B60
00000001F300000980
00000001F300000880
02ADEEEEF300000980
1D821111FEEEEEEF80
5D000000F522222210
7B000000F300000000
5D000002F500000000
1E82113CCD41111100
03BEFFD708EFFFFF80
ENDCHAR
STARTCHAR Oslashacute
ENCODING 510
SWIDTH 558 0
DWIDTH 13 0
BBX 12 20 1 0
BITMAP
000000272000
000000CA0000
000007C00000
000006100000
000000000000
019DFFFFC382
0AC311127FB0
1F3000003F60
2F100001CD80
2F1000097A80
2F10005B0A80
2F1002D10A80
2F100C400A80
2F1098000A80
2F15B0000A80
2F3D20000A80
2FC400000A80
0F8000000C60
5FC311128E20
939EFFFEB300
ENDCHAR
STARTCHAR oslashacute
ENCODING 511
SWIDTH 521 0
DWIDTH 13 0
BBX 12 17 0 0
BITMAP
00000009D100
0000003F3000
000000B60000
000000400000
000000000000
0018DFFFC403
00AC31127EB9
00F300000DB0
02F10000BEA0
02F1001B88A0
02F101B708A0
02F11C7008A0
02F2C60008A0
02FD600009A0
02F700000B80
2DCC31127F30
1419EFFEC400
ENDCHAR
STARTCHAR uni0218
ENCODING 536
SWIDTH 562 0
DWIDTH 13 0
BBX 11 21 1 -6
BITMAP
008DFFFEB300
08D411129E10
0E5000000D50
1F3000000B70
1F3000000210
0D8000000000
04EB62000000
0027BEEA5000
00000038EA00
000000002E50
061000000B80
1F3000000B80
0E5000000D60
08D411128E10
008DFFFEB300
000000000000
000009900000
00000A900000
00000A700000
00000A200000
000007000000
ENDCHAR
STARTCHAR uni0219
ENCODING 537
SWIDTH 427 0
DWIDTH 10 0
BBX 8 18 1 -6
BITMAP
19DFFFF6
8D411110
B7000000
A8000000
4E820000
029EB500
00016CD3
0000009C
0000004F
0000004F
011113BB
AFFFFEA2
00018000
0003F100
0003E000
0003B000
00036000
00011000
ENDCHAR
STARTCHAR circumflex
ENCODING 710
SWIDTH 326 0
DWIDTH 8 0
BBX 6 3 1 14
BITMAP
01CB00
096960
3C01D1
ENDCHAR
STARTCHAR caron
ENCODING 711
SWIDTH 326 0
DWIDTH 8 0
BBX 6 3 1 14
BITMAP
3C01D1
096960
01CB00
ENDCHAR
STARTCHAR uni02C9
ENCODING 713
SWIDTH 358 0
DWIDTH 9 0
BBX 6 2 1 13
BITMAP
6FFFFF
011111
ENDCHAR
STARTCHAR breve
ENCODING 728
SWIDTH 332 0
DWIDTH 8 0
BBX 6 3 1 14
BITMAP
670075
4B00B3
07BB70
ENDCHAR
STARTCHAR dotaccent
ENCODING 729
SWIDTH 183 0
DWIDTH 4 0
BBX 2 3 1 14
BITMAP
6C
6C
5A
ENDCHAR
STARTCHAR ring
ENCODING 730
SWIDTH 297 0
DWIDTH 7 0
BBX 5 5 1 12
BITMAP
5DEA00
B32B20
B10A20
7FEC00
012000
ENDCHAR
STARTCHAR ogonek
ENCODING 731
SWIDTH 243 0
DWIDTH 6 0
BBX 3 5 1 -4
BITMAP
0010
02A0
0A10
4FC0
0100
ENDCHAR
STARTCHAR tilde
ENCODING 732
SWIDTH 369 0
DWIDTH 9 0
BBX 6 4 1 13
BITMAP
650BE5
665B3A
2EE30B
011001
ENDCHAR
STARTCHAR hungarumlaut
ENCODING 733
SWIDTH 377 0
DWIDTH 9 0
BBX 7 3 1 14
BITMAP
01D42D30
0970A700
3B04A000
ENDCHAR
STARTCHAR Mu
ENCODING 924
SWIDTH 527 0
DWIDTH 13 0
BBX 9 17 2 -4
BITMAP
6100000340
F3000008A0
F3000008A0
F3000008A0
F3000008A0
F3000008A0
F3000008A0
F3000008A0
F3000008A0
F3000008A0
F500000AA0
FC20006FA0
FAFEEFB9A0
F302210110
F300000000
F300000000
1000000000
ENDCHAR
STARTCHAR Pi
ENCODING 928
SWIDTH 605 0
DWIDTH 15 0
BBX 14 16 0 -1
BITMAP
1FFFFFFFFFFFF9
0008C00004F100
0007B00003F000
0007B00003F000
0007B00003F000
0007B00003F000
0007B00003F000
0007B00003F000
0007B00003F000
0007B00003F000
0007B00003F000
0007B00003F000
0007B00003F000
0007B00003F000
0007B00003F000
00035000017000
ENDCHAR
STARTCHAR Sigma
ENCODING 931
SWIDTH 481 0
DWIDTH 12 0
BBX 10 16 1 -1
BITMAP
8FFFFFFFF2
4F30000000
09C0000000
01E6000000
005E200000
000BA00000
0002E50000
00008C0000
0001D70000
0009C00000
003F300000
00D8000000
08D1000000
3F40000000
8FEEEEEEE2
1222222220
ENDCHAR
STARTCHAR uni0901
ENCODING 2305
SWIDTH 0 0
DWIDTH 0 0
BBX 9 5 -7 16
BITMAP
0003D00000
6800001E10
5D10006D00
09FEEED400
0001110000
ENDCHAR
STARTCHAR uni0902
ENCODING 2306
SWIDTH 0 0
DWIDTH 0 0
BBX 2 2 -4 17
BITMAP
7B
11
ENDCHAR
STARTCHAR uni0903
ENCODING 2307
SWIDTH 247 0
DWIDTH 6 0
BBX 2 9 2 1
BITMAP
98
11
00
00
00
00
00
98
11
ENDCHAR
STARTCHAR uni0905
ENCODING 2309
SWIDTH 598 0
DWIDTH 14 0
BBX 15 15 0 0
BITMAP
04FFEC40000EFFA0
000016E2000F3000
000000B7000F2000
00000099000F2000
000000A8000F2000
000004E3000F2000
009EFF40000F2000
001238D0000F2000
000000BEEEEF2000
00000099222F2000
00000099000F2000
000000B7000F2000
000005E2000F2000
2EEEFD40000F2000
02221000000F2000
ENDCHAR
STARTCHAR uni0906
ENCODING 2310
SWIDTH 828 0
DWIDTH 20 0
BBX 21 15 0 0
BITMAP
05FFEB30000EFFFFFFFF30
000017E2001F20008A0000
000000B6001F10007A0000
00000098001F10007A0000
000000B7001F10007A0000
000005E2001F10007A0000
00AEFF40001F10007A0000
001238C0001F10007A0000
000000CEEEEF10007A0000
00000099223F10007A0000
00000098001F10007A0000
000000C6001F10007A0000
000006E2001F10007A0000
2EEEFD40001F10007A0000
02221000001F10007A0000
ENDCHAR
STARTCHAR uni0907
ENCODING 2311
SWIDTH 478 0
DWIDTH 11 0
BBX 13 16 -1 -1
BITMAP
5FFFFFFFFFFFC0
000000001E5000
000000000D4000
000000000E4000
0004BDEEEF3000
001E6222210000
004E0000000000
002F3000000000
0006EEEED91000
000001223B9000
0000000004D000
005B000003E000
005D000003E000
005F600009A000
005DBEEEFC2000
005C0122100000
ENDCHAR
STARTCHAR uni0908
ENCODING 2312
SWIDTH 478 0
DWIDTH 11 0
BBX 13 22 -1 -1
BITMAP
000000008DFD00
00000008C31000
0000000D500000
0000000F300000
0000000F300000
0000000C600000
5FFFFFFFFFFFC0
000000001E5000
000000000D4000
000000000E4000
0004BDEEEF3000
001E6222210000
004E0000000000
002F3000000000
0006EEEED91000
000001223B9000
0000000004D000
005B000003E000
005D000003E000
005F600009A000
005DBEEEFC2000
005C0122100000
ENDCHAR
STARTCHAR uni0909
ENCODING 2313
SWIDTH 471 0
DWIDTH 11 0
BBX 13 16 -1 -1
BITMAP
5FFFFFFFFFFF90
000000017C1000
000000000C6000
00000000098000
00000000098000
000000000B7000
000000005E2000
000007EFF60000
000001227E3000
000000000A9000
00C4000007A000
00D5000007A000
00B60000098000
006D30004E3000
0007EEEFD50000
00000121000000
ENDCHAR
STARTCHAR uni090A
ENCODING 2314
SWIDTH 661 0
DWIDTH 16 0
BBX 18 16 -1 -1
BITMAP
5FFFFFFFFFFFFFFFF3
000000017D10000000
000000000C60000000
000000000980000000
000000000980000000
000000000B60000000
000000005C10000000
000007EFFEEEEC7000
000001227F7224D800
003100000A90004E00
00D4000007A0001F10
00C5000007A0001F10
00A700000980003E00
005E30004E2001BA00
0006EEEED400CFA100
000001210000100000
ENDCHAR
STARTCHAR uni090B
ENCODING 2315
SWIDTH 753 0
DWIDTH 18 0
BBX 20 16 -1 -1
BITMAP
5FFFFFFFFFFFFFFFFFF6
0000000009A000000000
00000000089000000000
00000000089000000000
00000000089000000000
0003ADED9990004CE300
002E83226F9008E5D400
006C00000A93CB20D400
007A000008DE7000D400
003500000BD302BEE300
00000002CF900C800000
0000004E88900F200000
000007E508900F200000
0001AD2008900C800000
001CA100089003CFE800
00010000011000012100
ENDCHAR
STARTCHAR uni090C
ENCODING 2316
SWIDTH 676 0
DWIDTH 16 0
BBX 18 21 -1 -6
BITMAP
5FFFFFFFFFFFFFFFF8
00000000000003F100
00000000000002F100
00000000000002F100
00019DDA14BDC6F100
000BA338CE624DF100
002F1000D90005F100
004D0000B70002F100
004D0000B70002F100
004D0000A70002F100
004D0000000002F100
003F0000000002F100
000D8100000002F100
0003CFE8000002F100
000000210003BDF100
00000000000D721000
00000000003E000000
00000000003E000000
00000000000E6003B7
000000000003CFEE81
000000000000001000
ENDCHAR
STARTCHAR uni090D
ENCODING 2317
SWIDTH 521 0
DWIDTH 13 0
BBX 14 21 -1 0
BITMAP
0002E00000C400
0001F10000E300
0000B81016D000
00002BEFFC3000
00000000000000
00000000000000
5FFFFFFFFFFFFE
000C6000004E10
000C5000003E00
000C5000003E00
000C5000003E00
000C5000005D00
000C500001C800
000C5008EFA100
000C5001200000
000C5000000000
000C5000000000
000A8000000000
0004E400000000
00005DFEEEE400
00000012222000
ENDCHAR
STARTCHAR uni090E
ENCODING 2318
SWIDTH 522 0
DWIDTH 13 0
BBX 14 21 -1 0
BITMAP
000003E0000000
000001F2000000
0000008D500000
00000005DC4000
0000000006E700
00000000004E00
5FFFFFFFFFFFFE
000C6000004E10
000C5000003E00
000C5000003E00
000C5000003E00
000C5000005D00
000C500001C800
000C5008EFA100
000C5001200000
000C5000000000
000C5000000000
000A8000000000
0004E400000000
00005DFEEEE400
00000012222000
ENDCHAR
STARTCHAR uni090F
ENCODING 2319
SWIDTH 526 0
DWIDTH 13 0
BBX 14 15 -1 0
BITMAP
5FFFFFFFFFFFFE
000C6000004E10
000C5000003E00
000C5000003E00
000C5000003E00
000C5000005D00
000C500001C800
000C5008EFA100
000C5001200000
000C5000000000
000C5000000000
000A8000000000
0004E400000000
00005DFEEEE400
00000012222000
ENDCHAR
STARTCHAR uni0910
ENCODING 2320
SWIDTH 526 0
DWIDTH 13 0
BBX 14 21 -1 0
BITMAP
0000001E400000
00000006D10000
00000000B90000
000000002E4000
0000000005D100
00000000008900
5FFFFFFFFFFFFE
000C6000004E10
000C5000003E00
000C5000003E00
000C5000003E00
000C5000005D00
000C500001C800
000C5008EFA100
000C5001200000
000C5000000000
000C5000000000
000A8000000000
0004E400000000
00005DFEEEE400
00000012222000
ENDCHAR
STARTCHAR uni0911
ENCODING 2321
SWIDTH 829 0
DWIDTH 20 0
BBX 21 20 0 0
BITMAP
00000000003C00000D2000
00000000001F40004E0000
000000000006EEEEE50000
0000000000000111000000
0000000000000000000000
04FFEC40000EFFFFFFFF30
000016E2000F30007B0000
000000B7000F20007B0000
00000099000F20007B0000
000000A8000F20007B0000
000004E3000F20007B0000
009EFF40000F20007B0000
001238D0000F20007B0000
000000BEEEEF20007B0000
00000099222F20007B0000
00000099000F20007B0000
000000B7000F20007B0000
000005E2000F20007B0000
2EEEFD40000F20007B0000
02221000000F20006B0000
ENDCHAR
STARTCHAR uni0912
ENCODING 2322
SWIDTH 828 0
DWIDTH 20 0
BBX 21 21 0 0
BITMAP
0000000000079000000000
000000000005D000000000
000000000001CB30000000
00000000000007EA200000
0000000000000018E40000
00000000000000008A0000
04FFEC40000EFFFFFFFF30
000016E2000F30008A0000
000000B7000F20007A0000
00000099000F20007A0000
000000A8000F20007A0000
000004E3000F20007A0000
009EFF40000F20007A0000
001238D0000F20007A0000
000000BEEEEF20007A0000
00000099222F20007A0000
00000099000F20007A0000
000000B7000F20007A0000
000005E2000F20007A0000
2EEEFD40000F20007A0000
02221000000F20007A0000
ENDCHAR
STARTCHAR uni0913
ENCODING 2323
SWIDTH 829 0
DWIDTH 20 0
BBX 21 21 0 0
BITMAP
0000000000005E20000000
0000000000000AB0000000
00000000000001E6000000
000000000000005E100000
0000000000000009A00000
0000000000000000B60000
04FFEC40000EFFFFFFFF30
000016E2000F30007B0000
000000B7000F20007B0000
00000099000F20007B0000
000000A8000F20007B0000
000004E3000F20007B0000
009EFF40000F20007B0000
001238D0000F20007B0000
000000BEEEEF20007B0000
00000099222F20007B0000
00000099000F20007B0000
000000B7000F20007B0000
000005E2000F20007B0000
2EEEFD40000F20007B0000
02221000000F20006B0000
ENDCHAR
STARTCHAR uni0914
ENCODING 2324
SWIDTH 829 0
DWIDTH 20 0
BBX 21 21 0 0
BITMAP
0000000000008B006A0000
0000000000001D606B0000
00000000000004E26B0000
000000000000008B5B0000
000000000000000B8B0000
0000000000000001BB0000
04FFEC40000EFFFFFFFF30
000016E2000F30007B0000
000000B7000F20007B0000
00000099000F20007B0000
000000A8000F20007B0000
000004E3000F20007B0000
009EFF40000F20007B0000
001238D0000F20007B0000
000000BEEEEF20007B0000
00000099222F20007B0000
00000099000F20007B0000
000000B7000F20007B0000
000005E2000F20007B0000
2EEEFD40000F20007B0000
02221000000F20006B0000
ENDCHAR
STARTCHAR uni0915
ENCODING 2325
SWIDTH 725 0
DWIDTH 17 0
BBX 19 15 -1 0
BITMAP
5FFFFFFFFFFFFFFFFFB0
000000001D5000000000
000000000D4000000000
00019DE50D6BDEB50000
000D93200DD5226E4000
005D00000D700007B000
007A00000D400004D000
008900000D400003E000
008900000D400003E000
008900000D400004E000
006C00000F400006C000
001E60019F40003D6000
0003CFEF8D40DEE70000
000001210D4011000000
000000000D4000000000
ENDCHAR
STARTCHAR uni0916
ENCODING 2326
SWIDTH 696 0
DWIDTH 17 0
BBX 18 15 -1 0
BITMAP
5FFFFFFFFFFFFFFFFF
000001F3000000A800
000000F20000009800
000000F20000009800
000000F2019D809800
000001F10CA3109800
000008C03E10009800
02EEFC305D00009800
01D810005C0000A800
004E20003E0000C800
0008C0000D8006F800
0001D70003CFFBA800
00003E300001109800
000008C00000009800
000000C60000009700
ENDCHAR
STARTCHAR uni0917
ENCODING 2327
SWIDTH 494 0
DWIDTH 12 0
BBX 14 15 -1 0
BITMAP
5FFFFFFFFFFFF2
0000D60008A000
0000C60008A000
0000C60008A000
0000C60008A000
0000C60008A000
0000C50008A000
0000E40008A000
0007E10008A000
07FD400008A000
0110000008A000
0000000008A000
0000000008A000
0000000008A000
00000000079000
ENDCHAR
STARTCHAR uni0918
ENCODING 2328
SWIDTH 559 0
DWIDTH 13 0
BBX 15 15 -1 0
BITMAP
5FFFFFFFFFFFFFB0
001D8100001E4000
003E0000000E4000
004D0000000E4000
003E0000000E4000
000D6000000E4000
0003EFE8000E4000
000C9221000E4000
003E0000000E4000
004D0000000E4000
003E0000002F4000
000D700001BF4000
0003CFEEEF7E4000
00000122200E4000
00000000000E3000
ENDCHAR
STARTCHAR uni0919
ENCODING 2329
SWIDTH 505 0
DWIDTH 12 0
BBX 14 16 -1 -1
BITMAP
5FFFFFFFFFFFF6
000000001E4000
000000000E3000
000000000E3000
0004BDEEEF2000
001E6222210000
003F0000000D40
001F4000000100
0006EEEED91000
000001223C9000
0000000005D000
0027000004E000
004D000005D000
001E40001AA000
0005EEEEFB2000
00000122000000
ENDCHAR
STARTCHAR uni091A
ENCODING 2330
SWIDTH 563 0
DWIDTH 14 0
BBX 15 15 -1 0
BITMAP
5FFFFFFFFFFFFFD0
00000000000D6000
00000000000D5000
00000000000D5000
00000000000D5000
06EEEEEEA00D5000
0122D822100D5000
0005C000000D5000
0007B000000D5000
0006C000000E5000
0002E600019F5000
00005DFEEF9D5000
00000012210D5000
00000000000D5000
00000000000C5000
ENDCHAR
STARTCHAR uni091B
ENCODING 2331
SWIDTH 581 0
DWIDTH 14 0
BBX 16 15 -1 0
BITMAP
5FFFFFFFFFFFFFF4
000B9100000A9000
001F200000098000
003F000000098000
003F00001EDE6000
002F1000013AC000
000C80000001F200
0002EFE30000E300
000BA3200000E300
002F10000000E300
003F00000000E300
002F10000002F100
000D8000001AA000
0003CFEEEEFA1000
0000012222000000
ENDCHAR
STARTCHAR uni091C
ENCODING 2332
SWIDTH 547 0
DWIDTH 13 0
BBX 15 15 -1 0
BITMAP
5FFFFFFFFFFFFF70
00000000004E1000
00000000004E0000
00000000004E0000
00000000004E0000
004EEEEEEEEE0000
000226E4225E0000
00000099004E0000
0000007A004E0000
0000007A004E0000
00000099004E0000
000003E5004E0000
03EEEE80004E0000
00221000004E0000
00000000003E0000
ENDCHAR
STARTCHAR uni091D
ENCODING 2333
SWIDTH 664 0
DWIDTH 16 0
BBX 18 15 -1 0
BITMAP
5FFFFFFFFFFFFFFFF3
00000000B70007C000
00000000B60006B000
0003BDEEF60006B000
000E8222200006B000
003E0000000006B000
003E0000000006B000
001E5000000007B000
0005DEEEEEEEEFB000
000001228D2228B000
005B00001F2006B000
006D00001F2006B000
006F50006E0006B000
006DCEEFD40006B000
005B01210000047000
ENDCHAR
STARTCHAR uni091E
ENCODING 2334
SWIDTH 592 0
DWIDTH 14 0
BBX 16 15 -1 0
BITMAP
5FFFFFFFFFFFFFF8
000000000003F100
000000000002F000
000000000002F000
008EEC700002F000
001224C70002F000
0000004C0002F000
0000002E0003F000
0000001FEEEEF000
0000001F2224F000
0000003D0002F000
000001A90002F000
00DEEFA10002F000
001220000002F000
000000000002F000
ENDCHAR
STARTCHAR uni091F
ENCODING 2335
SWIDTH 485 0
DWIDTH 12 0
BBX 13 15 -1 0
BITMAP
5FFFFFFFFFFFE0
000000002F2000
000000001F1000
000000001F1000
00019DEEEF1000
000BB322210000
003E1000000000
005C0000000000
006C0000000000
006C0000008500
006C000000B600
004E000000D400
000D800007D100
0002CFEEFC3000
00000022100000
ENDCHAR
STARTCHAR uni0920
ENCODING 2336
SWIDTH 512 0
DWIDTH 12 0
BBX 14 15 -1 0
BITMAP
5FFFFFFFFFFFF9
000000000C7000
000000000C6000
000000002E3000
00019DEEFB1000
000CA3223AC000
004E100000D500
006B000000A700
006B000000A700
006B000000A700
006B000000A700
004D000000C500
000D800007E100
0003CFEEFC3000
00000122100000
ENDCHAR
STARTCHAR uni0921
ENCODING 2337
SWIDTH 475 0
DWIDTH 11 0
BBX 13 16 -1 -1
BITMAP
5FFFFFFFFFFFB0
000000001E4000
000000000E3000
000000000E3000
0003ADEEEF2000
000D8222210000
002F0000000000
003F0000000000
001E5000000000
0005DEEED91000
000001223BA000
0001000004D000
004D000004D000
002E40001AB000
0006EEEEFC2000
00000122000000
ENDCHAR
STARTCHAR uni0922
ENCODING 2338
SWIDTH 485 0
DWIDTH 12 0
BBX 13 15 -1 0
BITMAP
5FFFFFFFFFFFE0
000000001E4000
000000000E4000
000000000E4000
00019DEEEF3000
000BA322210000
003E1000000000
005C0000000000
005C0006DD8000
005C002E43D400
005C004C009700
003E001300A600
000C800003E300
0002BFEEEE7000
00000022100000
ENDCHAR
STARTCHAR uni0923
ENCODING 2339
SWIDTH 681 0
DWIDTH 16 0
BBX 18 15 -1 0
BITMAP
5FFFFFFFFFFFFFFFFA
001F20005E0001F300
000F10004D0000F200
000F10004D0000F200
000F10004D0000F200
000F10004D0000F200
000F10004D0000F200
000F10004D0000F200
000E30005B0000F200
000AA101C70000F200
0001AFEF900000F200
00000020000000F200
00000000000000F200
00000000000000F200
00000000000000F200
ENDCHAR
STARTCHAR uni0924
ENCODING 2340
SWIDTH 496 0
DWIDTH 12 0
BBX 14 16 -1 -1
BITMAP
5FFFFFFFFFFFF3
0000000007B000
0000000007B000
0000000007B000
0000000007B000
0002ADEEEFB000
001D932228B000
004D000007B000
006B000007B000
006B000007B000
006B000007B000
006B000007B000
005D000007B000
001E700007B000
0004CF9007A000
00000110001000
ENDCHAR
STARTCHAR uni0925
ENCODING 2341
SWIDTH 593 0
DWIDTH 14 0
BBX 14 15 1 0
BITMAP
01AEEA1001EFF8
09A22B9002F100
0D4004D002F100
0D3004D002F100
000005C002F100
00001C8002F100
7EEEFA1002F100
8A21000002F100
8900000002F100
5C00000005F100
1D8100004DF100
02BFEEEFD6F100
0000222102F100
0000000002F100
0000000002F100
ENDCHAR
STARTCHAR uni0926
ENCODING 2342
SWIDTH 489 0
DWIDTH 12 0
BBX 14 15 -1 0
BITMAP
5FFFFFFFFFFFF1
00000000099000
00000000099000
00000000099000
00019DEEEF8000
000CA322220000
003E1000000000
005C0000000000
006C0000000000
006C000002E000
004E000003E000
000D80001AE000
0003CFEEE9E000
0000012203E000
0000000002E000
ENDCHAR
STARTCHAR uni0927
ENCODING 2343
SWIDTH 560 0
DWIDTH 13 0
BBX 15 15 -1 0
BITMAP
5FFFFF805FFFFFB0
001C8100001E4000
003F0000000E4000
004E0000000E4000
003F0000000E4000
000D7000000E4000
0003EFE9000E4000
000C9221000E4000
003F0000000E4000
004E0000000E4000
003F0000001F4000
000D700001AF4000
0003CFEEEF8E4000
00000122200E4000
00000000000E3000
ENDCHAR
STARTCHAR uni0928
ENCODING 2344
SWIDTH 473 0
DWIDTH 11 0
BBX 13 15 -1 0
BITMAP
5FFFFFFFFFFFA0
000000001F3000
000000000F2000
000000000F2000
000000000F2000
000000000F2000
002BEEEEEF2000
00BA22222F2000
00D400000F2000
00B600000F2000
003200000F2000
000000000F2000
000000000F2000
000000000F2000
000000000F2000
ENDCHAR
STARTCHAR uni0928093C
ENCODING 2345
SWIDTH 473 0
DWIDTH 11 0
BBX 13 16 -1 -1
BITMAP
5FFFFFFFFFFFA0
000000001F3000
000000000F2000
000000000F2000
000000000F2000
000000000F2000
002BEEEEEF2000
00B922222F2000
00D400000F2000
00B600000F2000
001200000F2000
000000000F2000
000000000F2000
000000000F2000
00006B00091000
00001100000000
ENDCHAR
STARTCHAR uni092A
ENCODING 2346
SWIDTH 503 0
DWIDTH 12 0
BBX 14 15 -1 0
BITMAP
5FFFFFFFFFFFF6
001F300005E100
000F200004D000
000F200004D000
000F200004D000
000F200004D000
000F200004D000
000F200004D000
000D400006D000
0008B1003DD000
00019EEED8D000
0000002104D000
0000000004D000
0000000004D000
0000000004D000
ENDCHAR
STARTCHAR uni092B
ENCODING 2347
SWIDTH 739 0
DWIDTH 18 0
BBX 20 15 -1 0
BITMAP
5FFFFFFFFFFFFFFFFFF1
001F3000099000000000
000F2000089000000000
000F20000899DEC70000
000F200008F8324C9000
000F200008C00002F100
000F200008900000E300
000E30000A900000E400
0009B1005F900000E400
0001AFEFCA900000E300
0000002108900001F100
000000000890001AB000
0000000008908EFA1000
00000000089012000000
00000000089000000000
ENDCHAR
STARTCHAR uni092C
ENCODING 2348
SWIDTH 491 0
DWIDTH 12 0
BBX 14 15 -1 0
BITMAP
5FFFFFFFFFFFF1
00000000099000
00000000099000
00019DE8099000
000CB321099000
004ED200099000
007A4D20099000
007A04D1099000
007A005C199000
007A0006C99000
005C00007F9000
001E60006F9000
0003CFEEBA9000
00000121099000
00000000088000
ENDCHAR
STARTCHAR uni092D
ENCODING 2349
SWIDTH 491 0
DWIDTH 12 0
BBX 14 15 -1 0
BITMAP
5EA2000FFFFFF1
019B0000099000
002F0000099000
001F1000099000
001F1000099000
001F1000099000
001F1000099000
001FEEEEEF9000
001F32222A9000
001F1000099000
001E1000099000
00000000099000
00000000099000
00000000099000
00000000088000
ENDCHAR
STARTCHAR uni092E
ENCODING 2350
SWIDTH 490 0
DWIDTH 12 0
BBX 14 15 -1 0
BITMAP
5FFFFFFFFFFFF1
002F2000099000
002F1000098000
002F1000098000
002F1000098000
002F1000098000
002F1000098000
002FEEEEEF8000
002F32222A8000
002F1000098000
001E0000098000
00000000098000
00000000098000
00000000098000
00000000098000
ENDCHAR
STARTCHAR uni092F
ENCODING 2351
SWIDTH 564 0
DWIDTH 14 0
BBX 15 15 -1 0
BITMAP
5FFFFFFFFFFFFFD0
000016C1000D6000
000000D4000C5000
000000D5000C5000
000004F2000C5000
005EEE60000C5000
006C1000000C5000
006C0000000C5000
005C0000000D5000
003E1000001F5000
000BA10002BF5000
0001AFEEEE7C5000
00000022100C5000
00000000000C5000
00000000000C5000
ENDCHAR
STARTCHAR uni0930
ENCODING 2352
SWIDTH 337 0
DWIDTH 8 0
BBX 10 15 -1 0
BITMAP
5FFFFFFFF6
000001F300
000000F200
000000F200
000000F200
000001F100
000008C000
02EEFC3000
01D8100000
004E200000
0009B00000
0001D60000
00004E2000
000009B000
000001D500
ENDCHAR
STARTCHAR uni0930093C
ENCODING 2353
SWIDTH 347 0
DWIDTH 8 0
BBX 10 17 -1 -2
BITMAP
5FFFFFFFF9
000000C600
000000C500
000000C500
000000C500
000000D400
000005E100
00DEEE5000
00AB100000
001E400000
0006D00000
0000C70000
00003E2000
000009A000
000001E400
0890004500
0110000000
ENDCHAR
STARTCHAR uni0932
ENCODING 2354
SWIDTH 676 0
DWIDTH 16 0
BBX 18 15 -1 0
BITMAP
5FFFFFFFFFFFFFFFF8
00000000000003F100
00000000000002F100
00000000000002F100
00019DDA14BDC6F100
000BA338BE624DF100
002F1000D90005F100
004D0000B70002F100
004D0000B60002F100
004D0000A60002F100
004D0000000002F100
003F0000000002F100
000D8100000002F100
0003CFE8000002F100
00000021000002F100
ENDCHAR
STARTCHAR uni0933
ENCODING 2355
SWIDTH 672 0
DWIDTH 16 0
BBX 18 15 -1 0
BITMAP
5FFFFFFFFFFFFFFFF7
000000000009900000
000000000008800000
000000000008800000
00019DDA218EE91000
000C9327DD8239D000
003E0000BC0000D400
006B0000990000B600
006B0000890000B600
006B0000890000B600
006B0000990000B600
004D0000AB0000D400
001D7004EE5006E100
0003CFFD54DFFC3000
000001100001100000
ENDCHAR
STARTCHAR uni0933093C
ENCODING 2356
SWIDTH 672 0
DWIDTH 16 0
BBX 18 17 -1 -2
BITMAP
5FFFFFFFFFFFFFFFF7
000000000009900000
000000000008800000
000000000008800000
00019DDA218EE91000
000C9327DD8239D000
003E0000BC0000D400
006B0000990000B600
006B0000890000B600
006B0000890000B600
006B0000990000B600
004D0000AB0000D400
001D7004EE5006E100
0003CFFD54DFFC3000
000001100001100000
000009800000000000
000001100000000000
ENDCHAR
STARTCHAR uni0935
ENCODING 2357
SWIDTH 484 0
DWIDTH 12 0
BBX 13 15 -1 0
BITMAP
5FFFFFFFFFFFE0
000000000B7000
000000000B6000
00019DE70B6000
000CA3210B6000
004E00000B6000
007B00000B6000
007A00000B6000
007A00000B6000
007B00000B6000
005D00000D6000
001D70007F6000
0003CFEFAB6000
000001210B6000
000000000B6000
ENDCHAR
STARTCHAR uni0936
ENCODING 2358
SWIDTH 614 0
DWIDTH 15 0
BBX 15 15 1 0
BITMAP
03BEEA20008FFF10
0D712AB000990000
2F0002F000980000
3E0002F100980000
140002F100980000
000003E000980000
00001AA000980000
DEEEFB1000980000
AC22000000980000
1E50000000980000
06E1000000980000
00BA000000980000
002E400000980000
0006D10000980000
0000B80000980000
ENDCHAR
STARTCHAR uni0937
ENCODING 2359
SWIDTH 505 0
DWIDTH 12 0
BBX 14 15 -1 0
BITMAP
5FFFFFFFFFFFF7
001F800004E100
000FD50003E000
000F3D3003E000
000F23D203E000
000F205C13E000
000F2007A3E000
000F20009BE000
000E40000BE000
0008B1002DE000
00019FEEE8E000
0000002103E000
0000000003E000
0000000003E000
0000000003E000
ENDCHAR
STARTCHAR uni0938
ENCODING 2360
SWIDTH 575 0
DWIDTH 14 0
BBX 16 15 -1 0
BITMAP
5FFFFFFFFFFFFFF2
000009A00009A000
000008A000089000
000008A000089000
000008A000089000
0000099000089000
00003E4000099000
02EEFFEEEEEF9000
01D82222222A9000
004E100000089000
000B900000089000
0002F30000089000
00008B0000089000
00001E5000089000
000006D000089000
ENDCHAR
STARTCHAR uni0939
ENCODING 2361
SWIDTH 481 0
DWIDTH 12 0
BBX 13 17 -1 -2
BITMAP
5FFFFFFFFFFFD0
000000000C7000
000000000B6000
000000000B6000
0003ADEEEF5000
000D9222220000
001F1000000000
000D6000000000
0003EFEEC70000
0009C3224D6000
001F200006B000
003E000005C000
003E0000013000
001F1000000000
000AA100000000
0001AFEEEE7000
00000012221000
ENDCHAR
STARTCHAR uni093C
ENCODING 2364
SWIDTH 0 0
DWIDTH 0 0
BBX 2 2 -4 -3
BITMAP
B6
11
ENDCHAR
STARTCHAR uni093D
ENCODING 2365
SWIDTH 529 0
DWIDTH 13 0
BBX 9 16 2 -1
BITMAP
03CFFFF800
0C92000000
0F30000000
0F30000000
0C90000000
04F9100000
004DD60000
00017EC200
000001AE20
0000000C70
0000000990
0000000890
B600000A80
2E81003E40
02AFEEE700
0000210000
ENDCHAR
STARTCHAR uni093E
ENCODING 2366
SWIDTH 231 0
DWIDTH 6 0
BBX 7 15 -1 0
BITMAP
4FFFFFD0
000C6000
000C5000
000C5000
000C5000
000C5000
000C5000
000C5000
000C5000
000C5000
000C5000
000C5000
000C5000
000C5000
000C5000
ENDCHAR
STARTCHAR uni093F
ENCODING 2367
SWIDTH 231 0
DWIDTH 6 0
BBX 16 21 -1 0
BITMAP
00007DFFFFFFFD91
0006D310000012BA
000B70000000003E
000C50000000002F
000C500000000016
000C600000000000
4FFFFFD000000000
000C600000000000
000C500000000000
000C500000000000
000C500000000000
000C500000000000
000C500000000000
000C500000000000
000C500000000000
000C500000000000
000C500000000000
000C500000000000
000C500000000000
000C500000000000
000C500000000000
ENDCHAR
STARTCHAR uni0940
ENCODING 2368
SWIDTH 231 0
DWIDTH 6 0
BBX 10 21 -4 0
BITMAP
03BEEB3000
1E7117E100
5D0000D400
6B0000C500
240000C500
000000C600
0004FFFFFD
000000C600
000000C500
000000C500
000000C500
000000C500
000000C500
000000C500
000000C500
000000C500
000000C500
000000C500
000000C500
000000C500
000000C500
ENDCHAR
STARTCHAR uni0941
ENCODING 2369
SWIDTH 0 0
DWIDTH 0 0
BBX 10 6 -9 -6
BITMAP
000004ED91
27000002B7
1E3000006A
06C000007A
00BB3102C6
0008DFFE90
ENDCHAR
STARTCHAR uni0942
ENCODING 2370
SWIDTH 0 0
DWIDTH 0 0
BBX 10 6 -7 -6
BITMAP
03BDEC6000
0D7224CA00
2E00001D50
3D000005C0
1E510000D4
05DFB00043
ENDCHAR
STARTCHAR uni0943
ENCODING 2371
SWIDTH 0 0
DWIDTH 0 0
BBX 8 6 -7 -6
BITMAP
06CEB000
3E421000
7A000000
6A000013
3E4115E7
06DFFC40
ENDCHAR
STARTCHAR uni0945
ENCODING 2373
SWIDTH 0 0
DWIDTH 0 0
BBX 8 5 -7 16
BITMAP
24000006
6B00002E
3E30008B
07EEEFC2
00011100
ENDCHAR
STARTCHAR uni0946
ENCODING 2374
SWIDTH 0 0
DWIDTH 0 0
BBX 8 7 -9 14
BITMAP
6B000000
4E100000
0BC40000
007EB300
00018E50
000007C0
00000CF3
ENDCHAR
STARTCHAR uni0947
ENCODING 2375
SWIDTH 0 0
DWIDTH 0 0
BBX 7 7 -8 14
BITMAP
3E200000
0AC00000
01E70000
005E2000
000AB000
0001E600
00004F30
ENDCHAR
STARTCHAR uni0948
ENCODING 2376
SWIDTH 0 0
DWIDTH 0 0
BBX 7 7 -8 14
BITMAP
6D105C00
0C805C00
03F35C00
008C4C00
000D9C00
0003EC00
00006F30
ENDCHAR
STARTCHAR uni0949
ENCODING 2377
SWIDTH 231 0
DWIDTH 6 0
BBX 8 20 -1 0
BITMAP
D2000096
B70001D4
3CFEEE80
00111000
00000000
4FFFFFD0
000C6000
000C5000
000C5000
000C5000
000C5000
000C5000
000C5000
000C5000
000C5000
000C5000
000C5000
000C5000
000C5000
000C5000
ENDCHAR
STARTCHAR uni094A
ENCODING 2378
SWIDTH 231 0
DWIDTH 6 0
BBX 9 21 -3 0
BITMAP
D400000000
B800000000
4E81000000
02AE700000
0003CC1000
00000D5000
004FFFFFD0
00000C6000
00000C5000
00000C5000
00000C5000
00000C5000
00000C5000
00000C5000
00000C5000
00000C5000
00000C5000
00000C5000
00000C5000
00000C5000
00000C5000
ENDCHAR
STARTCHAR uni094B
ENCODING 2379
SWIDTH 231 0
DWIDTH 6 0
BBX 8 21 -2 0
BITMAP
AA000000
2E500000
05E10000
00AA0000
001D4000
0003D100
04FFFFFD
0000C600
0000C500
0000C500
0000C500
0000C500
0000C500
0000C500
0000C500
0000C500
0000C500
0000C500
0000C500
0000C500
0000C500
ENDCHAR
STARTCHAR uni094C
ENCODING 2380
SWIDTH 231 0
DWIDTH 6 0
BBX 8 21 -2 0
BITMAP
C700B500
3E20B500
08B0B500
00C5A500
002CA500
0003E600
04FFFFFD
0000C600
0000C500
0000C500
0000C500
0000C500
0000C500
0000C500
0000C500
0000C500
0000C500
0000C500
0000C500
0000C500
0000C500
ENDCHAR
STARTCHAR uni094D
ENCODING 2381
SWIDTH 0 0
DWIDTH 0 0
BBX 4 4 -4 -5
BITMAP
3E10
09A0
01E5
005D
ENDCHAR
STARTCHAR uni0950
ENCODING 2384
SWIDTH 847 0
DWIDTH 20 0
BBX 18 19 1 0
BITMAP
00000000000A700000
000000000001100000
000000000000000010
0000000000000016E2
00CFFD81000BFFFC40
000013C90000000000
0000003E0000000000
0000001F1000000000
0000003F000AEEDA20
000001BA00012239D0
001EEFB100000000E4
000224D600000000C6
0000004FEEEB0000B6
4300002F323F0000B6
A800001F101F0000B6
8900004E001F1000C5
3E4002C9000D7003F2
05DFEF910003DFEE60
000110000000011000
ENDCHAR
STARTCHAR uni0951
ENCODING 2385
SWIDTH 0 0
DWIDTH 0 0
BBX 2 4 -4 17
BITMAP
5C
5C
5C
5C
ENDCHAR
STARTCHAR uni0952
ENCODING 2386
SWIDTH 0 0
DWIDTH 0 0
BBX 8 2 -10 -3
BITMAP
DEEEEEEB
12222221
ENDCHAR
STARTCHAR uni0953
ENCODING 2387
SWIDTH 0 0
DWIDTH 0 0
BBX 5 5 -7 16
BITMAP
1E5000
05D100
00A900
001E40
000440
ENDCHAR
STARTCHAR uni0954
ENCODING 2388
SWIDTH 0 0
DWIDTH 0 0
BBX 5 5 -4 16
BITMAP
001D40
009A00
04E100
1D6000
260000
ENDCHAR
STARTCHAR uni0915093C
ENCODING 2392
SWIDTH 725 0
DWIDTH 17 0
BBX 19 17 -1 -2
BITMAP
5FFFFFFFFFFFFFFFFFB0
000000001D5000000000
000000000D4000000000
00019DE50D6BDEB50000
000D93200DD5226E4000
005D00000D700007B000
007A00000D400004D000
008900000D400003E000
008900000D400003E000
008900000D400004E000
006C00000F400006C000
001E60019F40003D6000
0003CFEF8D40DEE70000
000001210D4011000000
000000000D4000000000
00007A00031000000000
00001100000000000000
ENDCHAR
STARTCHAR uni0916093C
ENCODING 2393
SWIDTH 696 0
DWIDTH 17 0
BBX 18 17 -1 -2
BITMAP
5FFFFFFFFFFFFFFFFF
000001F3000000A800
000000F20000009800
000000F20000009800
000000F2019D809800
000001F10CA3109800
000008C03E10009800
02EEFC305D00009800
01D810005C0000A800
004E20003E0000C800
0009B0000D8006F800
0001E60003CFFBA800
00005E100001109800
00000AA00000009800
000002E40000009800
00C500320000003200
001000000000000000
ENDCHAR
STARTCHAR uni0917093C
ENCODING 2394
SWIDTH 494 0
DWIDTH 12 0
BBX 14 17 -1 -2
BITMAP
5FFFFFFFFFFFF2
0000D60008A000
0000C60008A000
0000C60008A000
0000C60008A000
0000C60008A000
0000C50008A000
0000E40008A000
0007E10008A000
07FD400008A000
0110000008A000
0000000008A000
0000000008A000
0000000008A000
0000000008A000
00088000034000
00011000000000
ENDCHAR
STARTCHAR uni091C093C
ENCODING 2395
SWIDTH 547 0
DWIDTH 13 0
BBX 15 17 -1 -2
BITMAP
5FFFFFFFFFFFFF70
00000000004E1000
00000000004E0000
00000000004E0000
00000000004E0000
004EEEEEEEEE0000
000226E4225E0000
00000099004E0000
0000007A004E0000
0000007A004E0000
00000099004E0000
000003E5004E0000
03EEEE80004E0000
00221000004E0000
00000000003E0000
000D400000010000
0001000000000000
ENDCHAR
STARTCHAR uni0921093C
ENCODING 2396
SWIDTH 475 0
DWIDTH 11 0
BBX 13 19 -1 -4
BITMAP
5FFFFFFFFFFFB0
000000001E4000
000000000E3000
000000000E3000
0003ADEEEF2000
000D8222210000
002F0000000000
003F0000000000
001E5000000000
0005DEEED91000
000001223BA000
0001000004D000
004D000004D000
002E40001AB000
0006EEEEFC2000
00000122000000
00000000000000
000000B6000000
00000011000000
ENDCHAR
STARTCHAR uni0922093C
ENCODING 2397
SWIDTH 485 0
DWIDTH 12 0
BBX 13 18 -1 -3
BITMAP
5FFFFFFFFFFFE0
000000001E4000
000000000E4000
000000000E4000
00019DEEEF3000
000BA322210000
003E1000000000
005C0000000000
005C0006DD8000
005C002E43D400
005C004C009700
003E001300A600
000C800003E300
0002BFEEEE7000
00000022100000
00000000000000
00000088000000
00000011000000
ENDCHAR
STARTCHAR uni092B093C
ENCODING 2398
SWIDTH 739 0
DWIDTH 18 0
BBX 20 17 -1 -2
BITMAP
5FFFFFFFFFFFFFFFFFF1
001F3000099000000000
000F2000089000000000
000F20000899DEC70000
000F200008F8324C9000
000F200008C00002F100
000F200008900000E300
000E30000A900000E400
0009B1005F900000E400
0001AFEFCA900000E300
0000002108900001F100
000000000890001AB000
0000000008908EFA1000
00000000089012000000
00000000089000000000
0000A700033000000000
00001100000000000000
ENDCHAR
STARTCHAR uni092F093C
ENCODING 2399
SWIDTH 564 0
DWIDTH 14 0
BBX 15 17 -1 -2
BITMAP
5FFFFFFFFFFFFFD0
000016C1000D6000
000000D4000C5000
000000D5000C5000
000004F2000C5000
005EEE60000C5000
006C1000000C5000
006C0000000C5000
005C0000000D5000
003E1000001F5000
000BA10002BF5000
0001AFEEEE7C5000
00000022100C5000
00000000000C5000
00000000000C5000
0007A00000031000
0001100000000000
ENDCHAR
STARTCHAR uni0960
ENCODING 2400
SWIDTH 753 0
DWIDTH 18 0
BBX 20 19 -1 -4
BITMAP
5FFFFFFFFFFFFFFFFFF6
0000000009A000000000
00000000089000000000
00000000089000000000
00000000089000000000
0003ADED9990005DE300
002E72226E902AE5D400
006B00000996E910D400
007A000008FD43BEE300
001200002DC10D700000
00000005EC900F200000
0000007E38900D700000
00001AC2089004FFE800
0002DA1008900AA32100
001D700007800F300000
0000000000000F200000
0000000000000C800000
00000000000003DFEC00
00000000000000012100
ENDCHAR
STARTCHAR uni0961
ENCODING 2401
SWIDTH 676 0
DWIDTH 16 0
BBX 18 21 -1 -6
BITMAP
5FFFFFFFFFFFFFFFF8
00000000000003F100
00000000000002F100
00000000000002F100
00000000000002F100
00019DDA24BDC6F100
000BA328CD524CF100
002F1000C80004F100
004D0000B60002F100
004D0000B60002F100
004D0000530002F100
004D00000003BEF100
003F0000000E821000
000D8100003E000000
0003CFE8003E000000
00000021001F500000
000000000007FEE500
00000000001E622000
00000000003E000000
00000000001F510000
000000000005DFF900
ENDCHAR
STARTCHAR uni0964
ENCODING 2404
SWIDTH 286 0
DWIDTH 7 0
BBX 2 15 3 0
BITMAP
88
89
89
89
89
89
89
89
89
89
89
89
89
89
88
ENDCHAR
STARTCHAR uni0965
ENCODING 2405
SWIDTH 518 0
DWIDTH 12 0
BBX 8 15 3 0
BITMAP
880000F2
890000F2
890000F2
890000F2
890000F2
890000F2
890000F2
890000F2
890000F2
890000F2
890000F2
890000F2
890000F2
890000F2
880000F2
ENDCHAR
STARTCHAR uni0966
ENCODING 2406
SWIDTH 519 0
DWIDTH 12 0
BBX 10 16 1 -1
BITMAP
02AEFFFC50
0CA20015E4
3E0000008A
5D0000006C
5C0000006C
5C0000006C
5C0000006C
5C0000006C
5C0000006C
5C0000006C
5C0000006C
5D0000006C
3E0000008A
0D800003E5
03CFEEEE70
0001221000
ENDCHAR
STARTCHAR uni0967
ENCODING 2407
SWIDTH 288 0
DWIDTH 7 0
BBX 5 16 0 -1
BITMAP
002AF0
07ECF0
9C42F0
2002F0
0002F0
0002F0
0002F0
0002F0
0002F0
0002F0
0002F0
0002F0
0002F0
0002F0
0002F0
000170
ENDCHAR
STARTCHAR uni0968
ENCODING 2408
SWIDTH 453 0
DWIDTH 11 0
BBX 9 16 1 -1
BITMAP
05CFFFD600
5E41014D60
A8000006B0
C6000004D0
73000005C0
0000000990
0000007E20
00001AC200
0003D91000
007E500000
0AD2000000
6D10000000
A900000000
B800000000
AEEEEEEED0
1222222210
ENDCHAR
STARTCHAR uni0969
ENCODING 2409
SWIDTH 489 0
DWIDTH 12 0
BBX 10 16 1 -1
BITMAP
04CFFFD800
3E51013C80
99000004E0
A7000002F1
53000001F1
00000003E0
0000001B80
0001EEF900
0000224C70
00000004E0
53000002F1
B7000001F1
98000003E0
4E30001BA0
06EEEEFA10
0001220000
ENDCHAR
STARTCHAR uni096A
ENCODING 2410
SWIDTH 453 0
DWIDTH 11 0
BBX 11 16 0 -1
BITMAP
0000003FC000
000000CBD000
000007D4D000
00001E44D000
0000AA04D000
0004E104D000
000C6004D000
007C0004D000
02E30004D000
0A900004D000
4E100004D000
9FEEEEEEFEC0
12222225D210
00000004D000
00000004D000
000000026000
ENDCHAR
STARTCHAR uni096B
ENCODING 2411
SWIDTH 480 0
DWIDTH 12 0
BBX 10 16 1 -1
BITMAP
5FFFFFFFE0
5D00000000
5C00000000
5C00000000
5C00000000
5C00000000
5C8DEED910
5F72223BC0
13000001F2
00000000E4
01000000E4
6C000000E4
4E000000F3
1E700019D0
03CFEEFB20
0001220000
ENDCHAR
STARTCHAR uni096C
ENCODING 2412
SWIDTH 495 0
DWIDTH 12 0
BBX 10 16 1 -1
BITMAP
02AEFFFFD0
0CA2000000
3E10000000
5D00000000
5C00000000
5C00000000
5C5CEEDA30
5EA32228E2
5E100000B7
5D00000089
5C00000089
5C00000089
3E000000A8
0D800005F3
03CFEEFD50
0001221000
ENDCHAR
STARTCHAR uni096D
ENCODING 2413
SWIDTH 380 0
DWIDTH 9 0
BBX 9 16 0 -1
BITMAP
9FFFFFFFA0
0000000C70
0000003F20
0000008B00
000000E600
000004E100
00000A9000
00001F4000
00006D0000
0000C80000
0003F20000
0008B00000
000E600000
004E100000
00AA000000
0072000000
ENDCHAR
STARTCHAR uni096E
ENCODING 2414
SWIDTH 523 0
DWIDTH 13 0
BBX 10 16 1 -1
BITMAP
02AEFFFD60
0C920014D5
3E0000006B
5D0000004D
5D0000004D
4E0000006C
0D800002D6
02EFEEEF90
0BA32225E4
3E1000007B
5D0000004D
5C0000004D
4E0000006C
1D700002D7
03CFEEEE80
0001221000
ENDCHAR
STARTCHAR uni096F
ENCODING 2415
SWIDTH 493 0
DWIDTH 12 0
BBX 10 16 1 -1
BITMAP
05CFFFD910
4E51013BA0
A8000002F0
C6000000F2
C6000000F2
C6000000F2
A7000000F2
5E300000F2
07EEEEEEF2
00012222F2
00000000F2
00000000F2
00000002F1
0000001AB0
1EEEEEFA10
0222220000
ENDCHAR
STARTCHAR uni0970
ENCODING 2416
SWIDTH 391 0
DWIDTH 9 0
BBX 9 9 0 3
BITMAP
006CED9100
07D423AC00
0D50000E40
0F20000C60
1F20000B60
0E40000D40
09B1007D10
019FEFC300
0000210000
ENDCHAR
STARTCHAR uni0972
ENCODING 2418
SWIDTH 598 0
DWIDTH 14 0
BBX 16 20 0 0
BITMAP
00000002E00000C3
00000000E50003E1
000000005DEEEE60
0000000000111000
0000000000000000
04FFEC40000EFFA0
000016E2000F3000
000000B7000F2000
00000099000F2000
000000A8000F2000
000004E3000F2000
009EFF40000F2000
001238D0000F2000
000000BEEEEF2000
00000099222F2000
00000099000F2000
000000B7000F2000
000005E2000F2000
2EEEFD40000F2000
02221000000F2000
ENDCHAR
STARTCHAR Wgrave
ENCODING 7808
SWIDTH 795 0
DWIDTH 19 0
BBX 19 20 0 0
BITMAP
00000027200000000000
0000000AB00000000000
00000001C60000000000
00000000160000000000
00000000000000000000
2F2000005F5000002F30
0E6000009EA000005F00
0B900000D7E000008C00
08C00002E0E30000B800
04F00006B0A70000E500
01F3000A606B0003F100
00C7000E202F1006D000
009A004D000D4009A000
005D00890008800C6000
002F10C50004C01F3000
000E41F10001F24E0000
000A85C00000B67B0000
0007B98000007AA80000
0003ED4000003ED40000
0000EE0000000EF10000
ENDCHAR
STARTCHAR wgrave
ENCODING 7809
SWIDTH 682 0
DWIDTH 16 0
BBX 16 17 0 0
BITMAP
000007E200000000
000000BA00000000
0000001D30000000
0000000230000000
0000000000000000
6C000008E000007C
2F20000CF30000B8
0D60001E970001F3
08A0005A5B0005E0
04E000A61E000990
00E300E20C400D50
00A703D008802F10
006C079004C06B00
001F1B5000E1B700
000C5E1000B5E300
0008DC00007DD000
0003F800002F9000
ENDCHAR
STARTCHAR Wacute
ENCODING 7810
SWIDTH 795 0
DWIDTH 19 0
BBX 19 20 0 0
BITMAP
00000000001730000000
0000000000BB00000000
0000000005D100000000
00000000052000000000
00000000000000000000
2F2000005F5000002F30
0E6000009EA000005F00
0B900000D7E000008C00
08C00002E0E30000B800
04F00006B0A70000E500
01F3000A606B0003F100
00C7000E202F1006D000
009A004D000D4009A000
005D00890008800C6000
002F10C50004C01F3000
000E41F10001F24E0000
000A85C00000B67B0000
0007B98000007AA80000
0003ED4000003ED40000
0000EE0000000EF10000
ENDCHAR
STARTCHAR wacute
ENCODING 7811
SWIDTH 682 0
DWIDTH 16 0
BBX 16 17 0 0
BITMAP
000000000BC00000
000000004E200000
00000000C5000000
0000000140000000
0000000000000000
6C000008E000007C
2F20000CF30000B8
0D60001E970001F3
08A0005A5B0005E0
04E000A61E000990
00E300E20C400D50
00A703D008802F10
006C079004C06B00
001F1B5000E1B700
000C5E1000B5E300
0008DC00007DD000
0003F800002F9000
ENDCHAR
STARTCHAR Wdieresis
ENCODING 7812
SWIDTH 795 0
DWIDTH 19 0
BBX 19 20 0 0
BITMAP
0000000F201F10000000
0000000F202F10000000
0000000F201F10000000
00000000000000000000
00000000000000000000
2F2000005F5000002F30
0E6000009EA000005F00
0B900000D7E000008C00
08C00002E0E30000B800
04F00006B0A70000E500
01F3000A606B0003F100
00C7000E202F1006D000
009A004D000D4009A000
005D00890008800C6000
002F10C50004C01F3000
000E41F10001F24E0000
000A85C00000B67B0000
0007B98000007AA80000
0003ED4000003ED40000
0000EE0000000EF10000
ENDCHAR
STARTCHAR wdieresis
ENCODING 7813
SWIDTH 682 0
DWIDTH 16 0
BBX 16 17 0 0
BITMAP
000005C007B00000
000005C007B00000
000005C007B00000
0000000000000000
0000000000000000
6C000008E000007C
2F20000CF30000B8
0D60001E970001F3
08A0005A5B0005E0
04E000A61E000990
00E300E20C400D50
00A703D008802F10
006C079004C06B00
001F1B5000E1B700
000C5E1000B5E300
0008DC00007DD000
0003F800002F9000
ENDCHAR
STARTCHAR uni1E9E
ENCODING 7838
SWIDTH 542 0
DWIDTH 13 0
BBX 11 15 1 0
BITMAP
008DFFFFFF20
08D411116D00
0E500000D500
1F200007B000
1F20001E3000
1F20008A0000
1F2000DEC500
1F2000127F30
1F2000000B80
1F20000008A0
1F20000008A0
1F2000000890
1F2000000B70
1F2001127E20
1F202FFEC300
ENDCHAR
STARTCHAR Ygrave
ENCODING 7922
SWIDTH 493 0
DWIDTH 12 0
BBX 12 20 0 0
BITMAP
000560000000
0002E5000000
00004D100000
000004300000
000000000000
3F20000005E1
0B9000000C80
03F200005E10
00B90000C800
003F2005E100
000AA00C7000
0003F25E1000
0000AAC70000
00002FE10000
00000B800000
00000B800000
00000B800000
00000B800000
00000B800000
00000A700000
ENDCHAR
STARTCHAR ygrave
ENCODING 7923
SWIDTH 459 0
DWIDTH 11 0
BBX 11 20 0 -3
BITMAP
0009D1000000
0001C8000000
00002E200000
000003200000
000000000000
3E1000001E40
0D6000005D00
07B00000B800
02F20001F300
00B70007C000
006D000C7000
001E303F1000
000A808B0000
0004E0D50000
0000E8E10000
00008F900000
00000E400000
00006D000000
0126E4000000
0BFD50000000
ENDCHAR
STARTCHAR uni200B
ENCODING 8203
SWIDTH 0 0
DWIDTH 0 0
BBX 1 1 0 0
BITMAP
00
ENDCHAR
STARTCHAR uni200C
ENCODING 8204
SWIDTH 0 0
DWIDTH 0 0
BBX 2 25 -1 -5
BITMAP
44
89
89
89
89
89
89
89
89
89
89
89
89
89
89
89
89
89
89
89
89
89
89
89
89
ENDCHAR
STARTCHAR uni200D
ENCODING 8205
SWIDTH 0 0
DWIDTH 0 0
BBX 6 25 -3 -5
BITMAP
510015
AC11CA
0ACCA0
01EE20
1CEED1
B9899C
208902
008900
008900
008900
008900
008900
008900
008900
008900
008900
008900
008900
008900
008900
008900
008900
008900
008900
008900
ENDCHAR
STARTCHAR endash
ENCODING 8211
SWIDTH 408 0
DWIDTH 10 0
BBX 8 2 1 6
BITMAP
EEEEEEEB
22222221
ENDCHAR
STARTCHAR emdash
ENCODING 8212
SWIDTH 537 0
DWIDTH 13 0
BBX 11 2 1 6
BITMAP
EEEEEEEEEED0
222222222210
ENDCHAR
STARTCHAR quoteleft
ENCODING 8216
SWIDTH 179 0
DWIDTH 4 0
BBX 2 6 1 10
BITMAP
04
0A
3C
6C
7C
7B
ENDCHAR
STARTCHAR quoteright
ENCODING 8217
SWIDTH 179 0
DWIDTH 4 0
BBX 2 6 1 9
BITMAP
7B
7C
7A
77
73
40
ENDCHAR
STARTCHAR quotesinglbase
ENCODING 8218
SWIDTH 187 0
DWIDTH 4 0
BBX 2 6 1 -2
BITMAP
6D
6D
6C
69
65
51
ENDCHAR
STARTCHAR quotedblleft
ENCODING 8220
SWIDTH 329 0
DWIDTH 8 0
BBX 6 6 1 10
BITMAP
040014
0A0056
3C0096
6C00C6
7C00D6
7B00D6
ENDCHAR
STARTCHAR quotedblright
ENCODING 8221
SWIDTH 329 0
DWIDTH 8 0
BBX 6 6 1 9
BITMAP
7B00D6
7C00D6
7A00D5
7700D1
7300A0
400040
ENDCHAR
STARTCHAR quotedblbase
ENCODING 8222
SWIDTH 337 0
DWIDTH 8 0
BBX 6 6 1 -2
BITMAP
6D00C7
6D00C7
6C00C6
6800C3
6400B0
400070
ENDCHAR
STARTCHAR dagger
ENCODING 8224
SWIDTH 427 0
DWIDTH 10 0
BBX 9 15 1 0
BITMAP
0007A00000
0006A00000
0006900000
0005900000
DEEFFEEE20
0006900000
0007A00000
0007B00000
0007A00000
0007A00000
0006A00000
0006900000
0005900000
0005800000
0004700000
ENDCHAR
STARTCHAR daggerdbl
ENCODING 8225
SWIDTH 427 0
DWIDTH 10 0
BBX 9 15 1 0
BITMAP
0007A00000
0006A00000
0006900000
0005900000
DEEFFEEE20
0006900000
0007A00000
0007B00000
0007A00000
0006900000
DEEEFEEE20
2226922200
0006900000
0006A00000
0007A00000
ENDCHAR
STARTCHAR bullet
ENCODING 8226
SWIDTH 273 0
DWIDTH 7 0
BBX 3 4 2 6
BITMAP
BF40
CF50
CF50
BF40
ENDCHAR
STARTCHAR ellipsis
ENCODING 8230
SWIDTH 591 0
DWIDTH 14 0
BBX 12 3 1 0
BITMAP
6E0008B000B8
6E0008C000C9
6E0008B000B8
ENDCHAR
STARTCHAR perthousand
ENCODING 8240
SWIDTH 1027 0
DWIDTH 25 0
BBX 23 15 1 0
BITMAP
1AEFD50000C3000000000000
8A214E1003C0000000000000
B4000B400A50000000000000
C3000B402D00000000000000
B4000B409700000000000000
99003E11E100000000000000
1CFEE6078000000000000000
0012000D2000000000000000
0000005A02BDDB2004CDDA10
000000C30C5006B01D300890
000004C01E0000E03C0003C0
00000B501E0000F04C0002C0
00002D001F0000E03C0003C0
000097000D7117B01E512A90
0001D10003CFEB2004DFEA10
ENDCHAR
STARTCHAR guilsinglleft
ENCODING 8249
SWIDTH 290 0
DWIDTH 7 0
BBX 5 9 1 2
BITMAP
000010
000860
008B10
08B100
5B1000
4D2000
05D200
005D20
000450
ENDCHAR
STARTCHAR guilsinglright
ENCODING 8250
SWIDTH 290 0
DWIDTH 7 0
BBX 5 9 1 2
BITMAP
100000
670000
1C8000
01B800
001C50
002D30
02D400
2D4000
540000
ENDCHAR
STARTCHAR fraction
ENCODING 8260
SWIDTH 117 0
DWIDTH 3 0
BBX 13 15 -5 0
BITMAP
00000000001C40
0000000000A800
0000000006B000
000000003D1000
00000001D40000
0000000A700000
0000007B000000
000003D1000000
00001D30000000
0000B700000000
0007A000000000
004D1000000000
01D30000000000
0B600000000000
7A000000000000
ENDCHAR
STARTCHAR Euro
ENCODING 8364
SWIDTH 523 0
DWIDTH 13 0
BBX 11 15 0 0
BITMAP
0003BEFFD700
001E82114D80
005E000006D0
006C000003A0
006C00000000
2EEFEEEC0000
027D22210000
006C00000000
2EEFEEEC0000
027D22210000
006C00000150
006C000004E0
004E000007C0
000DA2114E60
0002AEFFD600
ENDCHAR
STARTCHAR uni20B9
ENCODING 8377
SWIDTH 414 0
DWIDTH 10 0
BBX 10 15 0 0
BITMAP
1FFFFFFFF2
00014D3000
00000A7000
1EEEEFEEE2
02222A9220
00000B6000
00005E2000
1EEED50000
0BA1000000
02E4000000
005E100000
000AA00000
0001D60000
00004E2000
000008B000
ENDCHAR
STARTCHAR trademark
ENCODING 8482
SWIDTH 591 0
DWIDTH 14 0
BBX 12 6 1 9
BITMAP
6FFFF0D40079
009300CB01DA
009300C8477A
009300C1BB2A
009300C0532A
009200B00029
ENDCHAR
STARTCHAR uni2126
ENCODING 8486
SWIDTH 629 0
DWIDTH 15 0
BBX 14 16 1 -1
BITMAP
004CEFFFFC5000
03E6100015E300
08A00000008900
0A800000006B00
0A800000006B00
0A800000006B00
0A800000006B00
0A800000006B00
0A800000006B00
0A800000006B00
0A800000006B00
0A800000006B00
08A00000008900
01D4000004D300
EEEFE807EFFEE2
12222101222220
ENDCHAR
STARTCHAR partialdiff
ENCODING 8706
SWIDTH 481 0
DWIDTH 12 0
BBX 10 17 1 -1
BITMAP
00DDA50000
00236CC200
0000009D00
0000000C60
00000006B0
00000003E0
02ADEEB4F1
1E93225DF1
6D000005F2
8A000002F2
8A000002F2
8A000002F2
8A000002F1
6C000004E0
2E60002C90
04DFEEF910
0001220000
ENDCHAR
STARTCHAR uni2206
ENCODING 8710
SWIDTH 594 0
DWIDTH 14 0
BBX 14 16 0 -1
BITMAP
000000BE100000
000002FD600000
000008A7C00000
00000E51F30000
00005E00A90000
0000A9005E0000
0001F3000E5000
0007C00009B000
000C700003F200
003F100000C700
009A0000007D00
01E50000001F40
05E00000000A90
0B9000000005E1
2FEEEEEEEEEEF6
02222222222221
ENDCHAR
STARTCHAR minus
ENCODING 8722
SWIDTH 523 0
DWIDTH 13 0
BBX 10 2 1 6
BITMAP
4EEEEEEEEC
0222222221
ENDCHAR
STARTCHAR approxequal
ENCODING 8776
SWIDTH 523 0
DWIDTH 13 0
BBX 10 7 1 4
BITMAP
19DDA6103A
5B336AEEE8
0000000100
0000000000
19DDA6103A
5B336AEEE8
0000000100
ENDCHAR
STARTCHAR notequal
ENCODING 8800
SWIDTH 523 0
DWIDTH 13 0
BBX 10 11 1 2
BITMAP
0000007600
000000C300
000002D000
4EEEEEFEEC
02222D4221
00003D0000
0000970000
4EEEFEEEEC
0225C22221
0009600000
0007100000
ENDCHAR
STARTCHAR lessequal
ENCODING 8804
SWIDTH 523 0
DWIDTH 13 0
BBX 10 10 1 2
BITMAP
00000016BC
00027CEA61
18DD940000
4FB3000000
038CE95100
000027BEB6
0000000158
0000000000
4EEEEEEEEC
0222222221
ENDCHAR
STARTCHAR greaterequal
ENCODING 8805
SWIDTH 523 0
DWIDTH 13 0
BBX 10 10 1 2
BITMAP
4D94000000
038CEA5100
000026BEB5
00000016ED
00027BEA61
18DE940000
3830000000
0000000000
4EEEEEEEEC
0222222221
ENDCHAR
STARTCHAR uni25CC
ENCODING 9676
SWIDTH 701 0
DWIDTH 17 0
BBX 15 14 1 1
BITMAP
000001DB1DB00000
000BD1EC1EC00000
000DE1100109D100
00111000000BF200
0CE1000000001100
0BD1000000008F40
0100000000007E40
2FA0000000000000
2E9000000000AD10
000100000000AD10
00DE0000006E4000
00BB5E50107F5000
00007F66F6010000
00000205E5000000
ENDCHAR
STARTCHAR commaaccent
ENCODING 63171
SWIDTH 0 0
DWIDTH 0 0
BBX 3 5 4 -6
BITMAP
3F10
3F10
3D00
3900
3400
ENDCHAR
STARTCHAR .notdef
ENCODING -1
SWIDTH 600 0
DWIDTH 14 0
BBX 10 15 2 -1
BITMAP
2EEEEEEEE7
2F322222B8
2F100000A8
2F100000A8
2F100000A8
2F100000A8
2F100000A8
2F100000A8
2F100000A8
2F100000A8
2F100000A8
2F100000A8
2F100000A8
2FEEEEEEF8
0222222221
ENDCHAR
STARTCHAR .null
ENCODING -1
SWIDTH 0 0
DWIDTH 0 0
BBX 1 1 0 0
BITMAP
00
ENDCHAR
STARTCHAR nonmarkingreturn
ENCODING -1
SWIDTH 333 0
DWIDTH 8 0
BBX 1 1 0 0
BITMAP
00
ENDCHAR
STARTCHAR uni0915094D
ENCODING -1
SWIDTH 519 0
DWIDTH 12 0
BBX 17 15 -1 0
BITMAP
5FFFFFFFFFFFFFFF80
000000001D50000000
000000000D40000000
00019DE50D6BEEC500
000D93200DE5225E40
005D00000D70000430
007A00000D40000000
008900000D40000000
008900000D40000000
008900000D40000000
006C00000F40000000
001E60019F40000000
0003CFEF8D40000000
000001210D40000000
000000000D40000000
ENDCHAR
STARTCHAR uni0916094D
ENCODING -1
SWIDTH 468 0
DWIDTH 11 0
BBX 15 15 -1 0
BITMAP
5FFFFFFFFFFFFFC0
000001F300000000
000000F200000000
000000F200000000
000000F2019D8000
000001F10CA31000
000008C03E100000
02EEFC305D000000
01D810005C000000
003E20003E000020
0008C0000D8006D0
0000D70003CFEB20
00003E3000011000
000008C000000000
000000C600000000
ENDCHAR
STARTCHAR uni0917094D
ENCODING -1
SWIDTH 264 0
DWIDTH 6 0
BBX 8 11 -1 4
BITMAP
5FFFFFFA
0000D600
0000C600
0000C600
0000C600
0000C600
0000C500
0000E400
0007E100
07FD4000
01100000
ENDCHAR
STARTCHAR uni0918094D
ENCODING -1
SWIDTH 321 0
DWIDTH 8 0
BBX 12 14 -1 1
BITMAP
5FFFFFFFFFFA
001D81000000
003E00000000
004D00000000
003E00000000
000D60000000
0003EFE80000
000C92210000
003E00000000
004D00000000
003E00000001
000D700001B8
0003CFEEEE80
000001222000
ENDCHAR
STARTCHAR uni0919094D
ENCODING -1
SWIDTH 505 0
DWIDTH 12 0
BBX 14 20 -1 -5
BITMAP
5FFFFFFFFFFFF6
000000001E4000
000000000E3000
000000000E3000
0004BDEEEF2000
001E6222210000
003F0000000D40
001F4000000100
0006EEEED91000
000001223C9000
0000000005D000
0027000004E000
004D000005D000
001E40001AA000
0005EEEEFB2000
00000122000000
00000075000000
0000003E200000
00000007C00000
00000000C70000
ENDCHAR
STARTCHAR uni091A094D
ENCODING -1
SWIDTH 330 0
DWIDTH 8 0
BBX 12 13 -1 2
BITMAP
5FFFFFFFFFFB
000000000000
000000000000
000000000000
000000000000
06EEEEEEA000
0122D8221000
0005C0000000
0007B0000000
0006C0000000
0002E600018A
00005DFEEEA1
000000122000
ENDCHAR
STARTCHAR uni091B094D
ENCODING -1
SWIDTH 581 0
DWIDTH 14 0
BBX 16 15 -1 0
BITMAP
5FFFFFFFFFFFFFF4
000B910000000000
001F200000000000
003F00001EDA2000
003F0000012AC000
002F10000001F100
000C80000000E300
0002EFE30000E300
000BA3200000E300
002F10000000E300
003F00000000E300
002F10000001F100
000D8000001AA000
0003CFEEEEFA1000
0000012222000000
ENDCHAR
STARTCHAR uni091C094D
ENCODING -1
SWIDTH 309 0
DWIDTH 7 0
BBX 11 14 -1 1
BITMAP
5FFFFFFFFFE0
000000000000
000000000000
000000000000
000000000000
004EEEEEEED0
000226E42210
000000990000
0000007A0000
0000007A0000
000000990000
000003E50000
03EEEE800000
002210000000
ENDCHAR
STARTCHAR uni091D094D
ENCODING -1
SWIDTH 432 0
DWIDTH 10 0
BBX 14 16 -1 -1
BITMAP
5FFFFFFFFFFFFC
00000000B70000
00000000B60000
0003ADEEF60000
000D8222200000
003E0000000000
003E0000000000
001E5000000000
0004DEEEEEEEEC
000001228D2221
005B00001F2000
006D00001F2000
006F50006E0000
006DCEEFD40000
006C0121000000
005B0000000000
ENDCHAR
STARTCHAR uni091E094D
ENCODING -1
SWIDTH 359 0
DWIDTH 9 0
BBX 13 14 -1 1
BITMAP
5FFFFFFFFFFF10
00000000000000
00000000000000
00000000000000
008EEC70000000
001224C7000000
0000004C000000
0000002E000000
0000001FEEEE10
0000001F222200
0000003D000000
000001A9000000
00DEEFA1000000
00122000000000
ENDCHAR
STARTCHAR uni091F094D
ENCODING -1
SWIDTH 485 0
DWIDTH 12 0
BBX 13 20 -1 -5
BITMAP
5FFFFFFFFFFFE0
000000002F2000
000000001F1000
000000001F1000
00019DEEEF1000
000BB322210000
003E1000000000
005C0000000000
006C0000000000
006C0000008500
006C000000B600
004E000000D400
000D800007D100
0002CFEEFC3000
00000022100000
00000022000000
0000004E100000
00000009B00000
00000001D60000
00000000360000
ENDCHAR
STARTCHAR uni0920094D
ENCODING -1
SWIDTH 512 0
DWIDTH 12 0
BBX 14 20 -1 -5
BITMAP
5FFFFFFFFFFFF9
000000000C7000
000000000C6000
000000002E3000
00019DEEFB1000
000CA3223AC000
004E100000D500
006B000000A700
006B000000A700
006B000000A700
006B000000A700
004D000000C500
000D800007E100
0003CFEEFC3000
00000122100000
00000021000000
0000006C000000
0000000B800000
00000002E40000
00000000450000
ENDCHAR
STARTCHAR uni0921094D
ENCODING -1
SWIDTH 475 0
DWIDTH 11 0
BBX 13 20 -1 -5
BITMAP
5FFFFFFFFFFFB0
000000001E4000
000000000E3000
000000000E3000
0003ADEEEF2000
000D8222210000
002F0000000000
003F0000000000
001E5000000000
0005DEEED91000
000001223BA000
0001000004D000
004D000004D000
002E40001AB000
0006EEEEFC2000
00000122000000
00000056000000
0000001E400000
00000005D10000
00000000A90000
ENDCHAR
STARTCHAR uni0922094D
ENCODING -1
SWIDTH 485 0
DWIDTH 12 0
BBX 13 20 -1 -5
BITMAP
5FFFFFFFFFFFE0
000000001E4000
000000000E4000
000000000E4000
00019DEEEF3000
000BA322210000
003E1000000000
005C0000000000
005C0006DD8000
005C002E43D400
005C004C009700
003E001300A600
000C800003E300
0002BFEEEE7000
00000022100000
00000022000000
0000005D100000
0000000AA00000
00000001E50000
00000000360000
ENDCHAR
STARTCHAR uni0923094D
ENCODING -1
SWIDTH 454 0
DWIDTH 11 0
BBX 13 12 -1 3
BITMAP
5FFFFFFFFFFF30
001F20005E0000
000F10004D0000
000F10004D0000
000F10004D0000
000F10004D0000
000F10004D0000
000F10004D0000
000E30005B0000
000AA101C70000
0001AFEF900000
00000020000000
ENDCHAR
STARTCHAR uni0924094D
ENCODING -1
SWIDTH 263 0
DWIDTH 6 0
BBX 10 16 -1 -1
BITMAP
5FFFFFFFFB
0000000000
0000000000
0000000000
0000000000
0002ADEEEA
001D932221
004D000000
006B000000
006B000000
006B000000
006B000000
005D000000
001E600000
0004DF9000
0000011000
ENDCHAR
STARTCHAR uni0925094D
ENCODING -1
SWIDTH 359 0
DWIDTH 9 0
BBX 11 13 1 2
BITMAP
01AEEA100000
09A22B900000
0D4004D00000
0D3004D00000
000005C00000
00001C800000
7EEEFA100000
8A2100000000
890000000000
5C0000000210
1D8100004D50
02BFEEEED500
000022210000
ENDCHAR
STARTCHAR uni0926094D
ENCODING -1
SWIDTH 489 0
DWIDTH 12 0
BBX 14 19 -1 -4
BITMAP
5FFFFFFFFFFFF1
00000000099000
00000000099000
00000000099000
00019DEEEF8000
000CA322220000
003E1000000000
005C0000000000
006C0000000000
006C000002E000
004E000003E000
000D80001AE000
0003CFEEE9E000
0000012203E000
0000001002E000
0000008A000000
0000000D600000
00000003E20000
00000000540000
ENDCHAR
STARTCHAR uni0927094D
ENCODING -1
SWIDTH 321 0
DWIDTH 8 0
BBX 12 14 -1 1
BITMAP
5FFFFFB07FFD
001D81000000
003E00000000
004D00000000
003E00000000
000D60000000
0003EFE80000
000C92210000
003E00000000
004D00000000
003E00000001
000D700001B8
0003CFEEEE80
000001222000
ENDCHAR
STARTCHAR uni0928094D
ENCODING -1
SWIDTH 233 0
DWIDTH 6 0
BBX 9 11 -1 4
BITMAP
5FFFFFFFF0
0000000000
0000000000
0000000000
0000000000
0000000000
004CEEEEE0
00E7222210
01F1000000
00E3000000
0052000000
ENDCHAR
STARTCHAR uni092A094D
ENCODING -1
SWIDTH 269 0
DWIDTH 6 0
BBX 11 12 -1 3
BITMAP
5FFFFFFFFF80
001F30000000
000F20000000
000F20000000
000F20000000
000F20000000
000F20000000
000F20000000
000D40000110
0008B1003D50
00019EEED600
000000210000
ENDCHAR
STARTCHAR uni092B094D
ENCODING -1
SWIDTH 530 0
DWIDTH 13 0
BBX 17 15 -1 0
BITMAP
5FFFFFFFFFFFFFFFD0
001F30000990000000
000F20000890000000
000F20000899DED810
000F200008F8323B90
000F200008C0000130
000F20000890000000
000E30000A90000000
0009B1005F90000000
0001AFEFCA90000000
000000210890000000
000000000890000000
000000000890000000
000000000890000000
000000000890000000
ENDCHAR
STARTCHAR uni092C094D
ENCODING -1
SWIDTH 265 0
DWIDTH 6 0
BBX 11 14 -1 1
BITMAP
5FFFFFFFFF50
000000000000
000000000000
00019DE80000
000CB3210000
004ED2000000
007A4C100000
007A04C10000
007A005B1230
007A0006B770
005C00007E50
001E60005E10
0003CFEEC300
000001210000
ENDCHAR
STARTCHAR uni092D094D
ENCODING -1
SWIDTH 261 0
DWIDTH 6 0
BBX 10 11 -1 4
BITMAP
5EA2000FFC
019B000000
002F000000
001F100000
001F100000
001F100000
001F100000
001FEEEEEB
001F322221
001F100000
001F100000
ENDCHAR
STARTCHAR uni092E094D
ENCODING -1
SWIDTH 261 0
DWIDTH 6 0
BBX 10 11 -1 4
BITMAP
5FFFFFFFFC
002F200000
002F100000
002F100000
002F100000
002F100000
002F100000
002FEEEEEB
002F322221
002F100000
001F100000
ENDCHAR
STARTCHAR uni092F094D
ENCODING -1
SWIDTH 323 0
DWIDTH 8 0
BBX 12 13 -1 2
BITMAP
5FFFFFFFFFF1
000016C10000
000000D40000
000000D50000
000004F20000
005EEE600000
006C10000000
006C00000000
005C00000000
003E10000013
000BA10003C8
0001AFEEEE70
000000221000
ENDCHAR
STARTCHAR uni0930094D
ENCODING -1
SWIDTH 337 0
DWIDTH 8 0
BBX 10 20 -1 -5
BITMAP
5FFFFFFFF6
000001F300
000000F200
000000F200
000000F200
000001F100
000008C000
02EEFC3000
01D8100000
004E200000
0009B00000
0001D60000
00004E2000
000009B000
000001D500
0000000000
0000870000
00002E3000
000006C000
000000B700
ENDCHAR
STARTCHAR uni0932094D
ENCODING -1
SWIDTH 431 0
DWIDTH 10 0
BBX 15 15 -1 0
BITMAP
5FFFFFFFFFFFFF70
0000000000000000
0000000000000000
0000000000000000
00019DDA14BDC600
000BA338BE624C50
002F1000D9000000
004D0000B7000000
004D0000B6000000
004D0000A6000000
004D000000000000
003F000000000000
000D810000000000
0003CFE800000000
0000002100000000
ENDCHAR
STARTCHAR uni0933094D
ENCODING -1
SWIDTH 677 0
DWIDTH 16 0
BBX 18 15 -1 0
BITMAP
5FFFFFFFFFFFFFFFF8
000000000000000000
000000000000000000
000000000000000000
00019DDB32ADD91000
000C9327ED8239C000
003E0000BC0000D400
006B0000990000B600
006B0000890000B600
006B0000890000B600
006B0000990000B600
004D0000AB0000D400
001D7004EE5006E100
0003CFFD54DFFC3000
000001100001100000
ENDCHAR
STARTCHAR uni0935094D
ENCODING -1
SWIDTH 255 0
DWIDTH 6 0
BBX 11 14 -1 1
BITMAP
5FFFFFFFFF50
000000000000
000000000000
00019DE80000
000C93210000
004D00000000
007A00000000
007A00000000
007A00000230
007A00000770
005C00000950
001E60004D10
0003CFEEC300
000001210000
ENDCHAR
STARTCHAR uni0936094D
ENCODING -1
SWIDTH 378 0
DWIDTH 9 0
BBX 8 15 1 0
BITMAP
03BEEA20
0D712AB0
2F0002F0
3E0002F1
140002F1
000003E0
00001AA0
DEEEFB10
AC220000
1E500000
06E10000
00BA0000
002E4000
0006D100
0000B800
ENDCHAR
STARTCHAR uni0937094D
ENCODING -1
SWIDTH 282 0
DWIDTH 7 0
BBX 11 12 -1 3
BITMAP
5FFFFFFFFFD0
001F80000000
000FD5000000
000F3D300000
000F23D20000
000F204C1000
000F2007B000
000F20009800
000E40000BB0
0008B1003D60
00019FEED500
000000210000
ENDCHAR
STARTCHAR uni0938094D
ENCODING -1
SWIDTH 338 0
DWIDTH 8 0
BBX 12 15 -1 0
BITMAP
5FFFFFFFFFFD
000009A00000
000008A00000
000008A00000
000008A00000
000009900000
00003E400000
02EEFFEEEEEC
01D822222221
004E10000000
000B90000000
0002F3000000
00008B000000
00001E500000
000006D00000
ENDCHAR
STARTCHAR uni0939094D
ENCODING -1
SWIDTH 457 0
DWIDTH 11 0
BBX 15 17 -1 -2
BITMAP
5FFFFFFFFFFFC000
000000000C700000
000000000B600000
000000000B600000
0003ADEEEF500000
000D922222000000
001F100000000000
000D600000000000
0002EFEEEEEEEE60
0009C32222222210
001F200000000000
003E000000000000
003E000000000000
001F100000000000
000AA10000000000
0001AFEEEE700000
0000002222100000
ENDCHAR
STARTCHAR uni0915093C094D
ENCODING -1
SWIDTH 519 0
DWIDTH 12 0
BBX 17 17 -1 -2
BITMAP
5FFFFFFFFFFFFFFF80
000000001D50000000
000000000D40000000
00019DE50D6BEEC500
000D93200DE5225E40
005D00000D70000430
007A00000D40000000
008900000D40000000
008900000D40000000
008900000D40000000
006C00000F40000000
001E60019F40000000
0003CFEF8D40000000
000001210D40000000
000000000D40000000
0003E0000310000000
000010000000000000
ENDCHAR
STARTCHAR uni0916093C094D
ENCODING -1
SWIDTH 463 0
DWIDTH 11 0
BBX 15 17 -1 -2
BITMAP
5FFFFFFFFFFFFFC0
000001F300000000
000000F200000000
000000F200000000
000000F2019D8000
000001F10CA31000
000008C03E100000
02EEFC305D000000
01D810005C000000
004E20003E000020
0009B0000D8006D0
0001D60003CFEB20
00004E2000011000
00000AB000000000
000001E500000000
005C002100000000
0001000000000000
ENDCHAR
STARTCHAR uni0917093C094D
ENCODING -1
SWIDTH 264 0
DWIDTH 6 0
BBX 8 16 -1 -1
BITMAP
5FFFFFFA
0000D600
0000C600
0000C600
0000C600
0000C600
0000C500
0000E400
0007E100
07FD4000
01100000
00000000
00000000
00000000
00089000
00011000
ENDCHAR
STARTCHAR uni091C093C094D
ENCODING -1
SWIDTH 314 0
DWIDTH 8 0
BBX 11 18 -1 -3
BITMAP
5FFFFFFFFFE0
000000000000
000000000000
000000000000
000000000000
004EEEEEEED0
000226E42210
000000990000
0000007A0000
0000007A0000
000000990000
000003E50000
03EEEE800000
002210000000
000000000000
000000000000
000B60000000
000110000000
ENDCHAR
STARTCHAR uni0928093C094D
ENCODING -1
SWIDTH 241 0
DWIDTH 6 0
BBX 10 16 -1 -1
BITMAP
2FFFFFFFF3
0000000000
0000000000
0000000000
0000000000
0000000000
003BEEEEE2
00C9222220
00D4000000
00B6000000
0022000000
0000000000
0000000000
0000000000
0000E30000
0000100000
ENDCHAR
STARTCHAR uni092B093C094D
ENCODING -1
SWIDTH 530 0
DWIDTH 13 0
BBX 17 17 -1 -2
BITMAP
5FFFFFFFFFFFFFFFD0
001F30000990000000
000F20000890000000
000F20000899DED810
000F200008F8323B90
000F200008C0000130
000F20000890000000
000E30000A90000000
0009B1005F90000000
0001AFEFCA90000000
000000210890000000
000000000890000000
000000000890000000
000000000890000000
000000000890000000
000098000330000000
000011000000000000
ENDCHAR
STARTCHAR uni092F093C094D
ENCODING -1
SWIDTH 325 0
DWIDTH 8 0
BBX 12 17 -1 -2
BITMAP
5FFFFFFFFFF1
000016C10000
000000D40000
000000D50000
000004F20000
005EEE600000
006C10000000
006C00000000
005C00000000
003E10000013
000BA10003C8
0001AFEEEE70
000000221000
000000000000
000000000000
00006B000000
000011000000
ENDCHAR
STARTCHAR uni09080902
ENCODING -1
SWIDTH 478 0
DWIDTH 11 0
BBX 13 22 -1 -1
BITMAP
000000008DFD00
00000008C31000
0000000D400000
0000000F30E200
0000000F301000
0000000C600000
5FFFFFFFFFFFC0
000000001E5000
000000000D4000
000000000E4000
0004BDEEEF3000
001E6222210000
004E0000000000
002F3000000000
0006EEEED91000
000001223B9000
0000000004D000
005B000003E000
005D000003E000
005F600009A000
005DBEEEFC2000
005C0122100000
ENDCHAR
STARTCHAR uni09300941
ENCODING -1
SWIDTH 533 0
DWIDTH 13 0
BBX 15 15 -1 0
BITMAP
5FFFFFFFFFFFFF10
000001F300000000
000000F200000000
000000F200000000
000000FEEDB30000
000001F3227E1000
000008D0000D3000
02EEFD30000D4000
01D81000000E3000
004E2000006D0000
0009B00018E30000
0001D600BB200000
00004E2000000000
000009B000000000
000001D500000000
ENDCHAR
STARTCHAR uni09300942
ENCODING -1
SWIDTH 645 0
DWIDTH 15 0
BBX 17 15 -1 0
BITMAP
5FFFFFFFFFFFFFFFC0
000001F30000000000
000000F20000000000
000000F20000000000
000000F203BDD91000
000001F10D823BA000
000008C01F0003D000
02EEFC302E0002E000
01D81000010003D000
003E200000000A9000
0008B0000003BC1000
0000D60001AE700000
00003E200071000000
000008B00000000000
000001D50000000000
ENDCHAR
STARTCHAR uni09390941
ENCODING -1
SWIDTH 495 0
DWIDTH 12 0
BBX 14 21 -1 -6
BITMAP
5FFFFFFFFFFFF3
000000000C7000
000000000B6000
0002ADEEEF6000
000BA322220000
001F2000000000
001F1000000000
000C8000000000
0002DFEEC70000
0009C3224D6000
001F200006B000
003E000005C000
003E0000013000
001F1000000000
000AA100000000
0001AFEEDC5000
0000001225F200
0066000000C500
003E300000C400
0006E72117E100
00003ADFEB3000
ENDCHAR
STARTCHAR uni09390942
ENCODING -1
SWIDTH 492 0
DWIDTH 12 0
BBX 13 21 -1 -6
BITMAP
5FFFFFFFFFFFD0
000000000C7000
000000000B6000
000000000B6000
0002ADEEEF5000
000BA322220000
001F2000000000
001F1000000000
000C8000000000
0002DFEEC80000
0009B3224D7000
001F100006B000
003E000004B000
002F1000000000
000C9100000000
0002EFEDA20000
0007C3237E3000
000A600007C000
000B600000D400
0008B100007B00
0001AEF3001600
ENDCHAR
STARTCHAR uni09260943
ENCODING -1
SWIDTH 390 0
DWIDTH 9 0
BBX 11 15 -1 0
BITMAP
5FFFFFFFFFA0
0000000A8000
0000000A7000
0002ADEF7000
000C92220000
001F00000000
002F00000000
000D60000000
0004FFE90000
000C82210000
002F00000000
002F00000000
000E60000000
0004DFEEE200
000001222000
ENDCHAR
STARTCHAR uni09390943
ENCODING -1
SWIDTH 519 0
DWIDTH 12 0
BBX 14 19 -1 -4
BITMAP
5FFFFFFFFFFFFB
000000000C6000
000000000C5000
000000000C5000
0004BDEEEF5000
001E6222210000
004E0000000000
002E3000000000
0004FEEEEEC600
000C935E324F20
004E0079000C50
006B0088000520
007B0089000000
007B005D100000
006B000AFEEB00
004D0000022100
001D8000000000
0003CFEEEE6000
00000022220000
ENDCHAR
STARTCHAR uni094D0930
ENCODING -1
SWIDTH 0 0
DWIDTH 0 0
BBX 8 5 -10 -4
BITMAP
00055000
005EE400
02E56E20
0C900AB0
7C0001C7
ENDCHAR
STARTCHAR uni0930094D.1
ENCODING -1
SWIDTH 192 0
DWIDTH 5 0
BBX 10 8 -2 7
BITMAP
05FFFFE000
0000000000
0000000000
0000000000
2100000030
8B200007D1
08EEEEFB20
0001221000
ENDCHAR
STARTCHAR uni0930094D.2
ENCODING -1
SWIDTH 0 0
DWIDTH 0 0
BBX 5 7 -4 14
BITMAP
04CF70
1E6100
5D0000
5C0000
5C0000
5D0000
380000
ENDCHAR
STARTCHAR uni0930094D0902
ENCODING -1
SWIDTH 0 0
DWIDTH 0 0
BBX 5 7 -4 14
BITMAP
04CF70
2E6100
5D0000
5C0C30
5C0100
5C0000
380000
ENDCHAR
STARTCHAR uni093E0930094D
ENCODING -1
SWIDTH 231 0
DWIDTH 6 0
BBX 8 21 -1 0
BITMAP
00009EF1
0007C300
000B6000
000C5000
000C5000
000C6000
4FFFFFD0
000C6000
000C5000
000C5000
000C5000
000C5000
000C5000
000C5000
000C5000
000C5000
000C5000
000C5000
000C5000
000C5000
000C5000
ENDCHAR
STARTCHAR uni093E0930094D0902
ENCODING -1
SWIDTH 231 0
DWIDTH 6 0
BBX 8 21 -1 0
BITMAP
00019EF1
0008C300
000B6000
000C50D2
000C5010
000C6000
4FFFFFD0
000C6000
000C5000
000C5000
000C5000
000C5000
000C5000
000C5000
000C5000
000C5000
000C5000
000C5000
000C5000
000C5000
000C5000
ENDCHAR
STARTCHAR uni0930094D.aMatraI
ENCODING -1
SWIDTH 0 0
DWIDTH 0 0
BBX 5 5 -2 15
BITMAP
02ADA0
0CA210
1F1000
2F0000
2F0000
ENDCHAR
STARTCHAR uni0902.aMatraI
ENCODING -1
SWIDTH 0 0
DWIDTH 0 0
BBX 2 2 1 17
BITMAP
E4
10
ENDCHAR
STARTCHAR uni0930094D0902.aMatraI
ENCODING -1
SWIDTH 0 0
DWIDTH 0 0
BBX 5 5 -2 15
BITMAP
02ADA0
0CA210
1F1000
2F0960
2F0110
ENDCHAR
STARTCHAR uni09400930094D
ENCODING -1
SWIDTH 231 0
DWIDTH 6 0
BBX 11 21 -4 0
BITMAP
03BEEB37EF20
1E7117EC3000
5D0000D60000
6B0000C50000
240000C50000
000000C60000
0004FFFFFD00
000000C60000
000000C50000
000000C50000
000000C50000
000000C50000
000000C50000
000000C50000
000000C50000
000000C50000
000000C50000
000000C50000
000000C50000
000000C50000
000000C50000
ENDCHAR
STARTCHAR uni09400902
ENCODING -1
SWIDTH 231 0
DWIDTH 6 0
BBX 10 21 -4 0
BITMAP
04BEEB3000
1E6117E100
5C0000D45D
6B0000C501
120000C500
000000C600
0004FFFFFD
000000C600
000000C500
000000C500
000000C500
000000C500
000000C500
000000C500
000000C500
000000C500
000000C500
000000C500
000000C500
000000C500
000000C500
ENDCHAR
STARTCHAR uni09400930094D0902
ENCODING -1
SWIDTH 231 0
DWIDTH 6 0
BBX 11 21 -4 0
BITMAP
03BEEB37EF20
1E7117EC3000
5D0000D60000
6B0000C50D20
240000C50100
000000C60000
0004FFFFFD00
000000C60000
000000C50000
000000C50000
000000C50000
000000C50000
000000C50000
000000C50000
000000C50000
000000C50000
000000C50000
000000C50000
000000C50000
000000C50000
000000C50000
ENDCHAR
STARTCHAR uni0940.aLong
ENCODING -1
SWIDTH 231 0
DWIDTH 6 0
BBX 16 21 -10 0
BITMAP
02BEFFFFFFEB3000
0D8200000017E100
3E0000000000D400
4D0000000000C500
150000000000C500
000000000000C600
0000000004FFFFFD
000000000000C600
000000000000C500
000000000000C500
000000000000C500
000000000000C500
000000000000C500
000000000000C500
000000000000C500
000000000000C500
000000000000C500
000000000000C500
000000000000C500
000000000000C500
000000000000C500
ENDCHAR
STARTCHAR uni09400930094D.aLong
ENCODING -1
SWIDTH 231 0
DWIDTH 6 0
BBX 17 21 -10 0
BITMAP
02BEFFFFFFEB39EF10
0D8200000017FC3000
3E0000000000D60000
4D0000000000C50000
150000000000C50000
000000000000C60000
0000000004FFFFFD00
000000000000C60000
000000000000C50000
000000000000C50000
000000000000C50000
000000000000C50000
000000000000C50000
000000000000C50000
000000000000C50000
000000000000C50000
000000000000C50000
000000000000C50000
000000000000C50000
000000000000C50000
000000000000C50000
ENDCHAR
STARTCHAR uni09400902.aLong
ENCODING -1
SWIDTH 231 0
DWIDTH 6 0
BBX 17 21 -10 0
BITMAP
03BEFFFFFFEB300000
1E7100000017E10000
3E0000000000D40E40
4D0000000000C50100
010000000000C50000
000000000000C60000
0000000004FFFFFD00
000000000000C60000
000000000000C50000
000000000000C50000
000000000000C50000
000000000000C50000
000000000000C50000
000000000000C50000
000000000000C50000
000000000000C50000
000000000000C50000
000000000000C50000
000000000000C50000
000000000000C50000
000000000000C50000
ENDCHAR
STARTCHAR uni09400930094D0902.aLong
ENCODING -1
SWIDTH 231 0
DWIDTH 6 0
BBX 17 21 -10 0
BITMAP
03BEFFFFFFEB39EF10
0D8200000017FC3000
3E0000000000D60000
4D0000000000C50D20
140000000000C50100
000000000000C60000
0000000004FFFFFD00
000000000000C60000
000000000000C50000
000000000000C50000
000000000000C50000
000000000000C50000
000000000000C50000
000000000000C50000
000000000000C50000
000000000000C50000
000000000000C50000
000000000000C50000
000000000000C50000
000000000000C50000
000000000000C50000
ENDCHAR
STARTCHAR uni09470930094D
ENCODING -1
SWIDTH 0 0
DWIDTH 0 0
BBX 9 7 -8 14
BITMAP
3E3004CF70
09C01E6100
01D73D0000
003E5C0000
0007EC0000
00009C0000
0000070000
ENDCHAR
STARTCHAR uni09470902
ENCODING -1
SWIDTH 0 0
DWIDTH 0 0
BBX 8 7 -8 14
BITMAP
5E200000
0BC00000
02E70000
007E207A
000CB011
0002E600
00004F30
ENDCHAR
STARTCHAR uni09470901
ENCODING -1
SWIDTH 0 0
DWIDTH 0 0
BBX 13 7 -8 14
BITMAP
3E200000970000
0AC00B20000590
01E70C40000790
005E28A1001D50
000AB1BFEEE900
0001E600110000
00004F30000000
ENDCHAR
STARTCHAR uni09470930094D0902
ENCODING -1
SWIDTH 0 0
DWIDTH 0 0
BBX 9 7 -8 14
BITMAP
3E3004CF70
09D01E6100
01D83D0000
003F7C0C30
0007EC0100
00009C0000
0000070000
ENDCHAR
STARTCHAR uni09480930094D
ENCODING -1
SWIDTH 0 0
DWIDTH 0 0
BBX 9 6 -8 15
BITMAP
A803F09E90
1E42F6A200
04D2FA1000
006ACB0000
0008BC0000
0000AD0000
ENDCHAR
STARTCHAR uni09480902
ENCODING -1
SWIDTH 0 0
DWIDTH 0 0
BBX 9 6 -8 15
BITMAP
6D105C0000
0BA05C0000
01E55C0A80
003E5C0110
0005CC0000
00006D0000
ENDCHAR
STARTCHAR uni09480901
ENCODING -1
SWIDTH 0 0
DWIDTH 0 0
BBX 15 6 -8 15
BITMAP
6D105C0000C50000
0B905C0E10000770
01E55C0C60001C60
003D5C03DFEEF900
0006BC0001110000
00007D0000000000
ENDCHAR
STARTCHAR uni09480930094D0902
ENCODING -1
SWIDTH 0 0
DWIDTH 0 0
BBX 9 6 -8 15
BITMAP
A903F09E90
1E52F6A200
04E2FA1C30
006BBB0100
0008CC0000
0000AD0000
ENDCHAR
STARTCHAR uni094B0930094D
ENCODING -1
SWIDTH 231 0
DWIDTH 6 0
BBX 9 21 -2 0
BITMAP
AA0009EF10
2E506C3000
05E1A60000
009AA50000
000CE50000
0002E60000
04FFFFFD00
0000C60000
0000C50000
0000C50000
0000C50000
0000C50000
0000C50000
0000C50000
0000C50000
0000C50000
0000C50000
0000C50000
0000C50000
0000C50000
0000C50000
ENDCHAR
STARTCHAR uni094B0902
ENCODING -1
SWIDTH 231 0
DWIDTH 6 0
BBX 8 21 -2 0
BITMAP
AA000000
2E500000
05E104D0
00AA0010
001D4000
0003D100
04FFFFFD
0000C600
0000C500
0000C500
0000C500
0000C500
0000C500
0000C500
0000C500
0000C500
0000C500
0000C500
0000C500
0000C500
0000C500
ENDCHAR
STARTCHAR uni094B0930094D0902
ENCODING -1
SWIDTH 231 0
DWIDTH 6 0
BBX 9 21 -2 0
BITMAP
AB0009EF10
1E607C3000
05E2A60000
009BA50D20
000CE50100
0002E60000
04FFFFFD00
0000C60000
0000C50000
0000C50000
0000C50000
0000C50000
0000C50000
0000C50000
0000C50000
0000C50000
0000C50000
0000C50000
0000C50000
0000C50000
0000C50000
ENDCHAR
STARTCHAR uni094C0930094D
ENCODING -1
SWIDTH 231 0
DWIDTH 6 0
BBX 10 21 -3 0
BITMAP
2E20993CF2
08C099C510
00C67BA000
002E6D7000
0006BE6000
00008E6000
004FFFFFD0
00000C6000
00000C5000
00000C5000
00000C5000
00000C5000
00000C5000
00000C5000
00000C5000
00000C5000
00000C5000
00000C5000
00000C5000
00000C5000
00000C5000
ENDCHAR
STARTCHAR uni094C0902
ENCODING -1
SWIDTH 231 0
DWIDTH 6 0
BBX 8 21 -2 0
BITMAP
C700B500
3E20B500
08B0B55D
00C6A501
002DA500
0003E600
04FFFFFD
0000C600
0000C500
0000C500
0000C500
0000C500
0000C500
0000C500
0000C500
0000C500
0000C500
0000C500
0000C500
0000C500
0000C500
ENDCHAR
STARTCHAR uni094C0930094D0902
ENCODING -1
SWIDTH 231 0
DWIDTH 6 0
BBX 10 21 -3 0
BITMAP
2E20993CF2
08C099C510
00C67BA000
002E6D70D2
0006BE6010
00008E6000
004FFFFFD0
00000C6000
00000C5000
00000C5000
00000C5000
00000C5000
00000C5000
00000C5000
00000C5000
00000C5000
00000C5000
00000C5000
00000C5000
00000C5000
00000C5000
ENDCHAR
STARTCHAR uni0915094D0937
ENCODING -1
SWIDTH 656 0
DWIDTH 16 0
BBX 16 15 1 0
BITMAP
001AEEB20009FFF1
00BA217D000B8000
01F1000D300B7000
03E0000B500B7000
02F0000D400B7000
00B8006D000B7000
04BFFFFEEEEF7000
3F622222222C7000
6C000000000B7000
7B00000D400B7000
6B00000E400B7000
3E30007F400B7000
07EEEEAE400B7000
0001200D400B7000
0000000D40075000
ENDCHAR
STARTCHAR uni0915094D0937094D
ENCODING -1
SWIDTH 429 0
DWIDTH 10 0
BBX 13 15 1 0
BITMAP
001AEEB2000000
00BA217D000000
01F1000D300000
03E0000B500000
02F0000D400000
00B8006D000000
04BFFFFEEEEE10
3F622222222100
6C000000000000
7B00000D400000
6B00000E400000
3E30007F400000
07EEEEAE400000
0001200D400000
0000000D400000
ENDCHAR
STARTCHAR uni0915094D0937094D092E
ENCODING -1
SWIDTH 933 0
DWIDTH 22 0
BBX 22 15 1 0
BITMAP
001AEEB200DFFFFFFFFFFB
00BA217D0008B00001E400
01F1000D3007A00000E300
03E0000B5007A00000E300
02F0000D4007A00000E300
00B8006D0007A00000E300
04BFFFFEEEEEB00000E300
3E5211111118FEEEEEF300
6C0000000007B22222E300
7B00000D4007A00000E300
6B00000E4004600000E300
3E30007F4000000000E300
07EEEEAE4000000000E300
0001200D4000000000E300
0000000D40000000009200
ENDCHAR
STARTCHAR uni0915094D0937094D092E094D
ENCODING -1
SWIDTH 717 0
DWIDTH 17 0
BBX 19 15 1 0
BITMAP
001AEEB200DFFFFFFFD0
00BA217D0008B0000000
01F1000D3007A0000000
03E0000B5007A0000000
02F0000D4007A0000000
00B8006D0007A0000000
04BFFFFEEEEEB0000000
3E5211111118FEEEEEC0
6C0000000007B2222210
7B00000D4007A0000000
6B00000E400460000000
3E30007F400000000000
07EEEEAE400000000000
0001200D400000000000
0000000D400000000000
ENDCHAR
STARTCHAR uni0915094D0937094D092E094D092F
ENCODING -1
SWIDTH 1283 0
DWIDTH 31 0
BBX 31 15 1 0
BITMAP
001AEEB200DFFFFFFFFFFFFFFFFFFF10
00BA217D0008B00000014E3000990000
01F1000D3007A00000000A8000890000
03E0000B5007A0000000089000890000
02F0000D4007A0000000098000890000
00B8006D0007A00000003E4000890000
04BFFFFEEEEEB00001EEE70000890000
3E5211111118FEEEEEF2000000890000
6C0000000007B22223F1000000990000
7B00000D4007A00001F3000000C90000
6B00000E4003400000AB200018F90000
3E30007F400000000018EEEEFA990000
07EEEE9E400000000000012210890000
0001200D400000000000000000890000
0000000D400000000000000000560000
ENDCHAR
STARTCHAR uni0915094D0937094D092F
ENCODING -1
SWIDTH 989 0
DWIDTH 24 0
BBX 24 15 1 0
BITMAP
001AEEB200CFFFFFFFFFFFF1
00BA217D000015E2000A9000
01F1000D300000A700098000
03E0000B5000009800098000
02F0000D400000A700098000
00B8006D000003E400098000
04BFFFFEEEEEEE7000098000
2F622222224F100000098000
6C000000003F0000000A8000
7B00000D401F2000000D8000
6B00000E400AB200018F8000
3E30007F40018EEEEF9A8000
07EEEE9E4000001220098000
0001200D4000000000098000
0000000D4000000000065000
ENDCHAR
STARTCHAR uni0915094D0937094D0935
ENCODING -1
SWIDTH 936 0
DWIDTH 22 0
BBX 22 15 1 0
BITMAP
001AEEB200CFFFFFFFFFFB
00BA217D0000000001E500
01F1000D3000000000D400
03E0000B50002ADE50D400
02F0000D4000C83200D400
00B8006D0004B00000D400
04BFFFFEEEEE800000D400
3F622222222A800000D400
6C0000000009800000D400
7B00000D4009800000D400
6B00000E4007A00001F400
3E30007F4003F50019F400
07EEEFCE40005DFEF8D400
0001210D4000001200D400
0000000D40000000009200
ENDCHAR
STARTCHAR uni091C094D091E
ENCODING -1
SWIDTH 629 0
DWIDTH 15 0
BBX 17 16 -1 -1
BITMAP
4FFFFFFFFFFFFFFF60
0000000000006D0000
0000000000005C0000
0000000000005C0000
0004BDEEEEEEEC0000
001E722222227C0000
004F000000005C0000
002F400000005C0000
0006EEEEC7005C0000
000001224D605C0000
004D000007A05C0000
004E000007A05C0000
004F60001C705C0000
004EBFEEFA105C0000
004D01220000380000
004D00000000000000
ENDCHAR
STARTCHAR uni091C094D091E094D
ENCODING -1
SWIDTH 398 0
DWIDTH 10 0
BBX 13 16 -1 -1
BITMAP
5FFFFFFFFFFFF0
00000000000000
00000000000000
00000000000000
0004BDEEEEEEE0
001E7222222210
004F0000000000
002F4000000000
0006EEEEC70000
000001224D6000
004D000007A000
004E000007A000
004F60001C7000
004EBFEEFA1000
004D0122000000
004D0000000000
ENDCHAR
STARTCHAR uni091C094D091E094D092F
ENCODING -1
SWIDTH 975 0
DWIDTH 23 0
BBX 25 16 -1 -1
BITMAP
5FFFFFFFFFFFFFFFFFFFFFFFB0
0000000000000018B0001E4000
0000000000000000F2000E3000
0000000000000000E3000E3000
0004BDEEEEED9000F2000E3000
001E72222224E606E0000E3000
004F000000009EFD40000E3000
002F40000000991000000E3000
0006EEEEC700980000000F3000
000001224D607B0000003F3000
004D000007A02E710003CF3000
004E000007A003BFEEEE5E3000
004F60001C70000022100E3000
004EBFEEFA10000000000E3000
004D01220000000000000A2000
004D0000000000000000000000
ENDCHAR
STARTCHAR uni0915094D0928
ENCODING -1
SWIDTH 1003 0
DWIDTH 24 0
BBX 26 15 -1 0
BITMAP
5FFFFFFFFFFFFFFFFFFFFFFFF6
000000001D500000000005D100
000000000D400000000004D000
00019DE50D6BEEB4000004D000
000D93200DE5226E200004D000
005D00000D700008800004D000
007A00000D400007FEEEEED000
008900000D40001F622226D000
008900000D40003F000004D000
008900000D40001F100004D000
006C00000F400007200004D000
001E60019F400000000004D000
0003CFEF8D400000000004D000
000001210D400000000004D000
000000000D400000000004D000
ENDCHAR
STARTCHAR uni0916094D0928
ENCODING -1
SWIDTH 958 0
DWIDTH 23 0
BBX 25 15 -1 0
BITMAP
5FFFFFFFFFFFFFFFFFFFFFFF40
000001F30000000000006C0000
000000F20000000000006C0000
000000F20000000000006C0000
000000F2019DDB4000006C0000
000001F10CA327F200006C0000
000008C03E1000CEEEEEEC0000
02EEFC305D0001E622227C0000
01D810003E0003E000006C0000
004E20001D7004E000006C0000
0008C00003CFEEF200006C0000
0001D700000122B500006C0000
00003E300000000000006C0000
000008C00000000000006C0000
000000C60000000000005C0000
ENDCHAR
STARTCHAR uni0917094D0928
ENCODING -1
SWIDTH 736 0
DWIDTH 18 0
BBX 19 15 -1 0
BITMAP
5FFFFFFFFFFFFFFFFFF0
0000D6000000000B8000
0000C6000000000B7000
0000C6000000000B7000
0000C6000000000B7000
0000C6000000000B7000
0000C50009DEEEEF7000
0000E4006D32222B7000
0007E1009900000B7000
07FD40007A00000B7000
011000002800000B7000
000000000000000B7000
000000000000000B7000
000000000000000B7000
000000000000000A7000
ENDCHAR
STARTCHAR uni0918094D0928
ENCODING -1
SWIDTH 814 0
DWIDTH 20 0
BBX 21 15 -1 0
BITMAP
5FFFFFFFFFFFFFFFFFFFD0
001D7100000000000D6000
003E0000000000000C5000
003E0000000000000C5000
001E6000000000000C5000
0004EFE8000000000D5000
000B8221001ADEEEEF5000
003E0000009C32222D5000
003E000000B700000C5000
001E700003D800000C5000
0003CFEEED8D00000C5000
00000122100100000C5000
00000000000000000C5000
00000000000000000C5000
00000000000000000C5000
ENDCHAR
STARTCHAR uni091A094D0928
ENCODING -1
SWIDTH 829 0
DWIDTH 20 0
BBX 22 15 -1 0
BITMAP
5FFFFFFFFFFFFFFFFFFFF3
000000000000000007B000
000000000000000007B000
000000000000000007B000
06EEEEEEA000000007B000
0122CA321000000007B000
0004E0000006DEEEEFB000
0006B000002F522228B000
0006B000005C000007B000
0004D000005C000007B000
0000D80002CF000007B000
00003CFEEE7D400007B000
000000121001000007B000
000000000000000007B000
000000000000000006B000
ENDCHAR
STARTCHAR uni091B094D0928
ENCODING -1
SWIDTH 977 0
DWIDTH 23 0
BBX 25 15 -1 0
BITMAP
5FFFFFFFFFFFFFFFFFFFFFFFB0
000B91000000000000001E4000
002F20000000000000000E4000
003F00001EDA200000000E4000
003F0000012AC00000000E4000
001F10000001F10000000E4000
000A80000000E32AEEEEEF4000
0002EFE30000E3AB22222E4000
000DA3200000E3C500000E4000
002F10000000E3A700000E4000
003F00000000E34500000E4000
001F10000001F10000000E4000
000D8000001AA00000000E4000
0003CFEEEEFA100000000E4000
000001222200000000000D3000
ENDCHAR
STARTCHAR uni091C094D0928
ENCODING -1
SWIDTH 831 0
DWIDTH 20 0
BBX 22 15 -1 0
BITMAP
5FFFFFFFFFFFFFFFFFFFF4
000000000000000007C000
000000000000000006B000
000000000000000006B000
000000000000000006B000
000000000000000007B000
004EEEEEEEEEEEEEEFB000
000226E4224F522228B000
00000098005D000006B000
0000007A003F000006B000
0000007A0005100006B000
000000990000000006B000
000003E50000000006B000
03EEEE800000000006B000
002210000000000006B000
ENDCHAR
STARTCHAR uni091D094D0928
ENCODING -1
SWIDTH 935 0
DWIDTH 22 0
BBX 24 16 -1 -1
BITMAP
5FFFFFFFFFFFFFFFFFFFFFFB
00000000B70000000001E400
00000000B60000000000E400
0003ADEEF60000000000E400
000D8222200000000000E400
003E0000000000000000E400
003E0000000001AEEEEEF400
001E5000000008A22222E400
0004DEEEEEEEEF500000E400
000001228D222B700000E400
005B00001F2003400000E400
006D00001F2000000000E400
006F50006E0000000000E400
006DCEEFD40000000000E400
006C0121000000000000E300
005B00000000000000001000
ENDCHAR
STARTCHAR uni091F094D0928
ENCODING -1
SWIDTH 494 0
DWIDTH 12 0
BBX 14 21 -1 -6
BITMAP
5FFFFFFFFFFFF2
000000000E5000
000000000D4000
000000000D4000
000000000D4000
00019DEEEF3000
000CA322210000
003E0000000000
006C0000004500
006C0000008900
004D000000A800
001D800004E300
0003CFEEFF7000
000001221C5000
000000000C5000
0006DEEEEF5000
002F52222D5000
004D00000C5000
003E00000C5000
000810000C5000
000000000C5000
ENDCHAR
STARTCHAR uni0920094D0928
ENCODING -1
SWIDTH 516 0
DWIDTH 12 0
BBX 14 21 -1 -6
BITMAP
5FFFFFFFFFFFFB
000000000A8000
000000000A7000
000000002E4000
00019DEEFC1000
000BB32239D100
003E100000C600
006C0000009800
006B0000008900
006B0000009900
004E000000B700
000D810006F200
0002CFEEFF7000
000001221C5000
000000000C5000
0006DEEEEF5000
002F52222D5000
004D00000C5000
003E00000C5000
000810000C5000
000000000C5000
ENDCHAR
STARTCHAR uni0921094D0928
ENCODING -1
SWIDTH 481 0
DWIDTH 12 0
BBX 13 21 -1 -6
BITMAP
5FFFFFFFFFFFD0
000000000C6000
000000000C5000
000000000C5000
0003BDEEEF4000
000E7222210000
003F0000000000
001F4000000000
0006EEEEDA3000
0000012229D000
004B000002F100
002E200007D000
0007EEEEFF6000
000001221C5000
000000000C5000
0005CEEEEF5000
001E62222D5000
003E00000C5000
002F10000C5000
000A20000C5000
000000000C5000
ENDCHAR
STARTCHAR uni0924094D0928
ENCODING -1
SWIDTH 756 0
DWIDTH 18 0
BBX 20 16 -1 -1
BITMAP
5FFFFFFFFFFFFFFFFFF7
0000000000000004E100
0000000000000003E000
0000000000000003E000
0000000000000003E000
0002ADEEDA100003E000
001D82112BEEEEEEE000
004D00000E722225E000
006B00001F100003E000
006B00000E300003E000
006B000004200003E000
006B000000000003E000
005D000000000003E000
001E600000000003E000
0004DF9000000003E000
00000110000000001000
ENDCHAR
STARTCHAR uni0925094D0928
ENCODING -1
SWIDTH 855 0
DWIDTH 21 0
BBX 20 15 1 0
BITMAP
01AEE9109FFFFFFFFFFC
09B22B9000000000D500
0D4004D000000000D500
0D3004D000000000D500
020005C000000000D500
00001C8000000000D500
7EEEFA1001ADEEEEF500
8A21000008C32222D500
7A0000000B600000D500
5C0000000B700000D500
0D8100017FA00000D500
02CFEEEFC5900000D500
0001222100000000D500
0000000000000000D500
0000000000000000C400
ENDCHAR
STARTCHAR uni0926094D0928
ENCODING -1
SWIDTH 955 0
DWIDTH 23 0
BBX 25 20 -1 -5
BITMAP
5FFFFFFFFFFFFFFFFFFFFFFF30
000000000990000000007B0000
000000000990000000007B0000
000000000990000000007B0000
00019DEEEF80000000007B0000
000CA3222200000000007B0000
003E10000000006DEEEEFB0000
005C0000000003F522228B0000
006C0000000005C000007B0000
006C000002E003E000007B0000
004E000003E0007000007B0000
000D80001AE0000000007B0000
0003CFEEE9E0000000007B0000
0000012203E0000000007B0000
0000000002E0000000006B0000
00000000000000000000000000
0000000001C200000000000000
00000000008B00000000000000
00000000000D70000000000000
000000000003E2000000000000
ENDCHAR
STARTCHAR uni0927094D0928
ENCODING -1
SWIDTH 814 0
DWIDTH 20 0
BBX 21 15 -1 0
BITMAP
5FFFFFF003FFFFFFFFFFD0
001D7100000000000D6000
003E0000000000000C5000
003E0000000000000C5000
001E6000000000000C5000
0004EFE8000000000D5000
000AA3210019DEEEEF5000
002F1000007C32222D5000
004E000000A700000C5000
002F000000A700000C5000
000C900005FA00000C5000
0002BFEEFC6B00000C5000
00000022100000000C5000
00000000000000000C5000
00000000000000000C5000
ENDCHAR
STARTCHAR uni0928094D0928
ENCODING -1
SWIDTH 738 0
DWIDTH 18 0
BBX 19 15 -1 0
BITMAP
5FFFFFFFFFFFFFFFFFF0
000000000000000A8000
000000000000000A8000
000000000000000A8000
000000000000000A8000
000000000000000A8000
002BEEEEEEEEEEEF8000
00BA22227D32222B8000
00D400008900000A8000
00B600006B00000A8000
003200001500000A8000
000000000000000A8000
000000000000000A8000
000000000000000A8000
00000000000000097000
ENDCHAR
STARTCHAR uni092A094D0928
ENCODING -1
SWIDTH 782 0
DWIDTH 19 0
BBX 21 15 -1 0
BITMAP
5FFFFFFFFFFFFFFFFFFF10
001F300000000000990000
000F200000000000990000
000F200000000000990000
000F200000000000990000
000F200000000000990000
000F2000008DEEEEF90000
000E300005E32222A90000
0009B1003DA00000990000
00019FEEEAD00000990000
0000002100500000990000
0000000000000000990000
0000000000000000990000
0000000000000000990000
0000000000000000980000
ENDCHAR
STARTCHAR uni092B094D0928
ENCODING -1
SWIDTH 1013 0
DWIDTH 24 0
BBX 26 15 -1 0
BITMAP
5FFFFFFFFFFFFFFFFFFFFFFFFA
001F300009900000000001F300
000F200008900000000000F200
000F20000899DEB4000000F200
000F200008E8326E300000F200
000F200008C00008900001F200
000F200008900005FEEEEEF200
000E30000A90000C822222F200
0009B1005F90000D400000F200
0001AFEFCA900008500000F200
0000002108900000000000F200
0000000008900000000000F200
0000000008900000000000F200
0000000008900000000000F200
0000000008900000000000F200
ENDCHAR
STARTCHAR uni092C094D0928
ENCODING -1
SWIDTH 810 0
DWIDTH 19 0
BBX 21 15 -1 0
BITMAP
5FFFFFFFFFFFFFFFFFFFB0
00000000000000001E4000
00000000000000000E4000
00019DE8000000000E4000
000CB321000000000E4000
004ED200000000000E4000
007A6D10002AEEEEEF4000
007A06C100AB22222E4000
007A007B10C500000E4000
007A0008B0A700000E4000
005C00009A3400000E4000
001E60017E1000000E4000
0003CFEFD30000000E4000
00000121000000000E4000
00000000000000000E3000
ENDCHAR
STARTCHAR uni092D094D0928
ENCODING -1
SWIDTH 757 0
DWIDTH 18 0
BBX 20 15 -1 0
BITMAP
5EA2000FFFFFFFFFFFF7
019B000000000004E100
002F000000000003E000
001F100000000003E000
001F100000000003E000
001F100000000003E000
001F100003BEEEEEE000
001FEEEEEF722225E000
001F32223F100003E000
001F10000E300003E000
001D100004200003E000
0000000000000003E000
0000000000000003E000
0000000000000003E000
0000000000000003E000
ENDCHAR
STARTCHAR uni092E094D0928
ENCODING -1
SWIDTH 757 0
DWIDTH 18 0
BBX 20 15 -1 0
BITMAP
5FFFFFFFFFFFFFFFFFF7
002F200000000004E100
002F100000000003E000
002F100000000003E000
002F100000000003E000
002F100000000003E000
002F100003BEEEEEE000
002FEEEEEF722225E000
002F32223F100003E000
002F10000E300003E000
001D000004200003E000
0000000000000003E000
0000000000000003E000
0000000000000003E000
0000000000000003E000
ENDCHAR
STARTCHAR uni092F094D0928
ENCODING -1
SWIDTH 829 0
DWIDTH 20 0
BBX 22 15 -1 0
BITMAP
5FFFFFFFFFFFFFFFFFFFF3
000016C10000000008B000
000000D40000000007A000
000000D50000000007A000
000004F20000000007A000
005EEE600000000007A000
006C10000007DEEEEFA000
005C0000003F422228A000
004E1000005C000007A000
000CA10004DE000007A000
0001AEEEFD4C300007A000
000000121000000007A000
000000000000000007A000
000000000000000007A000
000000000000000007A000
ENDCHAR
STARTCHAR uni0935094D0928
ENCODING -1
SWIDTH 798 0
DWIDTH 19 0
BBX 21 15 -1 0
BITMAP
5FFFFFFFFFFFFFFFFFFF70
00000000000000004E1000
00000000000000003E0000
00019DE8000000003E0000
000C9321000000003E0000
004D0000000000003E0000
007A0000004CEEEEEE0000
007A000000E722225E0000
007A000002F100003E0000
007A000000E300003E0000
005C0000035200003E0000
001E60006E2000003E0000
0003CFEFC30000003E0000
00000121000000003E0000
00000000000000003E0000
ENDCHAR
STARTCHAR uni0936094D0928
ENCODING -1
SWIDTH 845 0
DWIDTH 20 0
BBX 20 15 1 0
BITMAP
03BEEA202FFFFFFFFFF9
0D812AB000000002F200
2F0002F000000001F100
3E0002F100000001F100
280002F100000001F100
000003E000000001F100
00001AA003CEEEEEF100
DEEEFB100D811112F100
AC2200000E300001F100
1E5000000A600001F100
05E1000000000001F100
00BA000000000001F100
002E400000000001F100
0006D10000000001F100
0000B80000000001F100
ENDCHAR
STARTCHAR uni0938094D0928
ENCODING -1
SWIDTH 831 0
DWIDTH 20 0
BBX 22 15 -1 0
BITMAP
5FFFFFFFFFFFFFFFFFFFF4
000009A00000000007C000
000008A00000000006C000
000008A00000000006C000
000008A00000000006C000
000009900000000006C000
00003E400008DEEEEFC000
02EEFFEEEEEF411117C000
01D82222225D000006C000
004E1000002F100006C000
000B90000002000006C000
0002F3000000000006C000
00008B000000000006C000
00001E500000000006C000
000006D00000000006B000
ENDCHAR
STARTCHAR uni0939094D0928
ENCODING -1
SWIDTH 500 0
DWIDTH 12 0
BBX 14 18 -1 -3
BITMAP
5FFFFFFFFFFFF5
0000000004F100
0000000003E000
0000000003E000
0003ADEEEED000
000D9222221000
001F1000000000
000D6000000000
0002EFEEEEEA00
0009B3222CEB00
001F2002D96B00
003E001D605B00
003E004D005B00
003E001E205A00
001F1006500000
000BA100000000
0001AFEEEE7000
00000022221000
ENDCHAR
STARTCHAR uni0915094D0930
ENCODING -1
SWIDTH 725 0
DWIDTH 17 0
BBX 19 16 -1 -1
BITMAP
5FFFFFFFFFFFFFFFFFB0
000000001D5000000000
000000000D4000000000
00019DE50D6BDEB50000
000D93200DD5226E4000
005D00000D700007B000
007A00000D400004D000
008900000D400003E000
008900000D400003E000
008900000D400004E000
006C00000F400006C000
001E60019F40003D6000
0004DFEFBD40DEE70000
000001990D4011000000
00001B800D4000000000
0001C600020000000000
ENDCHAR
STARTCHAR uni0916094D0930
ENCODING -1
SWIDTH 698 0
DWIDTH 17 0
BBX 19 16 -1 -1
BITMAP
5FFFFFFFFFFFFFFFFF10
000001F3000000990000
000000F2000000980000
000000F2000000980000
000000F2029D90980000
000001F10C9310980000
000008C03E0000980000
02EEFC304D0000980000
01D810004E0000A80000
003E20001E7004F80000
0008C00004DFFEB80000
0000D7000002C6980000
00003E30000AA0980000
000008C0006D10980000
000000C602E300880000
000000000C7000000000
ENDCHAR
STARTCHAR uni0917094D0930
ENCODING -1
SWIDTH 494 0
DWIDTH 12 0
BBX 14 15 -1 0
BITMAP
5FFFFFFFFFFFF2
0000D60008A000
0000C60008A000
0000C60008A000
0000C60008A000
0000C60008A000
0000C50008A000
0000E40008A000
0007E1001DA000
07FD4001CEA000
0110000BA8A000
000000AB08A000
000009C108A000
00007C1008A000
0006C100079000
ENDCHAR
STARTCHAR uni0918094D0930
ENCODING -1
SWIDTH 559 0
DWIDTH 13 0
BBX 15 16 -1 -1
BITMAP
5FFFFFFFFFFFFFB0
001D8100001E4000
003E0000000E4000
004D0000000E4000
003E0000000E4000
000D6000000E4000
0003EFE8000E4000
000C9221000E4000
003E0000000E4000
004D0000000E4000
003E0000002F4000
000D800001BF4000
0003CFEEEF7E4000
00000126D40E4000
000001AB100D3000
00003D7000000000
ENDCHAR
STARTCHAR uni0919094D0930
ENCODING -1
SWIDTH 505 0
DWIDTH 12 0
BBX 14 19 -1 -4
BITMAP
5FFFFFFFFFFFF6
000000001E4000
000000000E3000
000000000E3000
0004BDEEEF2000
001E6222210000
003F0000000D40
001F4000000100
0006EEEED91000
000001223C9000
0000000005D000
0000000004E000
004C000005D000
002E20001AA000
0007EEEEFC2000
00000CBE500000
00006D16E10000
0002E400BA0000
000B90002E4000
ENDCHAR
STARTCHAR uni091A094D0930
ENCODING -1
SWIDTH 563 0
DWIDTH 14 0
BBX 15 16 -1 -1
BITMAP
5FFFFFFFFFFFFFD0
00000000000D6000
00000000000D5000
00000000000D5000
00000000000D5000
06EEEEEEA00D5000
0122D822100D5000
0005C000000D5000
0007B000000D5000
0006C000000E5000
0002F600019F5000
00005DFEEFAD5000
00000013D90D5000
0000004E700D5000
000006E5000A4000
0000183000000000
ENDCHAR
STARTCHAR uni091B094D0930
ENCODING -1
SWIDTH 581 0
DWIDTH 14 0
BBX 16 18 -1 -3
BITMAP
5FFFFFFFFFFFFFF4
000B9100000A9000
001F200000098000
003F000000098000
003F00001EDE6000
002F1000013AC000
000C80000001F200
0002EFE30000E300
000BA3200000E300
002F10000000E300
003F00000000E300
002F10000002F100
000D8000001AA000
0003CFEEEEFA1000
000001ABBB000000
000005E21E600000
00002E4004E30000
0000450000550000
ENDCHAR
STARTCHAR uni091C094D0930
ENCODING -1
SWIDTH 547 0
DWIDTH 13 0
BBX 15 16 -1 -1
BITMAP
5FFFFFFFFFFFFF70
00000000004E1000
00000000004E0000
00000000004E0000
00000000004E0000
004EEEEEEEEE0000
000226E4225E0000
000000A8004E0000
0000007A004E0000
0000007A004E0000
00000099005E0000
000003E504EE0000
04EEEE705E8E0000
00221005E44E0000
0000006E303C0000
0000018200000000
ENDCHAR
STARTCHAR uni091D094D0930
ENCODING -1
SWIDTH 684 0
DWIDTH 16 0
BBX 18 16 -1 -1
BITMAP
5FFFFFFFFFFFFFFFFB
00000000B70001E400
00000000B60000E400
0003ADEEF60000E400
000D8222200000E400
003E0000000000E400
003E0000000000E400
001E5000000000E400
0004DEEEEEEEEEF400
000001228D2222E400
005B00001F2003F400
006D00001F202EF400
006F50006E01D8E400
006DCEEFD41CA0E400
006C012100AC00E400
005B000008C1005100
ENDCHAR
STARTCHAR uni091E094D0930
ENCODING -1
SWIDTH 598 0
DWIDTH 14 0
BBX 16 16 -1 -1
BITMAP
5FFFFFFFFFFFFFFA
000000000001F300
000000000000F300
000000000000F300
008EEC700000F300
001224C70000F300
0000004C0000F300
0000002E0000F300
0000001FEEEEF300
0000001F2222F300
0000003D0006F300
000001A9007DF300
00DEEFA107D2F300
001220008D20F300
00000008D200F200
0000001720002000
ENDCHAR
STARTCHAR uni091F094D0930
ENCODING -1
SWIDTH 485 0
DWIDTH 12 0
BBX 13 17 -1 -2
BITMAP
5FFFFFFFFFFFE0
000000002F2000
000000001F1000
000000001F1000
00019DEEEF1000
000BB322210000
003E1000000000
005C0000000000
006C0000000000
006C000000A600
006C000000B600
004E000000D400
000D800008D000
0002CFEEFC2000
000007D8D10000
00005D209B0000
0003E3000AA000
ENDCHAR
STARTCHAR uni0920094D0930
ENCODING -1
SWIDTH 512 0
DWIDTH 12 0
BBX 14 18 -1 -3
BITMAP
5FFFFFFFFFFFF9
000000000C7000
000000000C6000
000000002E3000
00019DEEFB1000
000CA3223AC000
003E100000D500
006B000000A700
006B000000A700
006B000000A700
006B000000A700
004D000000C500
001D800007E100
0003CFEEFC3000
000006E9C00000
00003E40C90000
0001D7002E6000
00037000037000
ENDCHAR
STARTCHAR uni0921094D0930
ENCODING -1
SWIDTH 475 0
DWIDTH 11 0
BBX 13 19 -1 -4
BITMAP
5FFFFFFFFFFFB0
000000001E4000
000000000E3000
000000000E3000
0004BDEEEF2000
001E6222210000
003F0000000000
001F4000000000
0006EEEED91000
000001223C9000
0000000005D000
0000000004E000
004C000005D000
002E20001AA000
0007EEEEFB2000
00000ABC800000
00004E23F30000
0001E6008C0000
0009B0000D7000
ENDCHAR
STARTCHAR uni0922094D0930
ENCODING -1
SWIDTH 485 0
DWIDTH 12 0
BBX 13 18 -1 -3
BITMAP
5FFFFFFFFFFFE0
000000001E4000
000000000E4000
000000000E4000
00019DEEEF3000
000BA322210000
003E1000000000
005C0000000000
005C0006DD8000
005C002E43D400
005C004C009700
003E001300A600
000D800003E300
0002CFEEEE7000
000006EAD10000
00002E40CA0000
0001C8002E6000
00027000037000
ENDCHAR
STARTCHAR uni0923094D0930
ENCODING -1
SWIDTH 681 0
DWIDTH 16 0
BBX 18 15 -1 0
BITMAP
5FFFFFFFFFFFFFFFFA
001F20005E0001F300
000F10004D0000F200
000F10004D0000F200
000F10004D0000F200
000F10004D0000F200
000F10004D0000F200
000F10004D0000F200
000E30005B0004F200
000AA101C7003EF200
0001AFEF9002E5F200
00000020002D60F200
0000000001D700F200
000000001C8000F200
00000000B90000F200
ENDCHAR
STARTCHAR uni0924094D0930
ENCODING -1
SWIDTH 493 0
DWIDTH 12 0
BBX 14 15 -1 0
BITMAP
5FFFFFFFFFFFF2
0000000009A000
00000000089000
00000000089000
00000000089000
0003ADED999000
001E83227F9000
006C00000A9000
007A0000089000
00570000099000
00000001AF9000
0000003DA99000
000006E6089000
0001AC20089000
001D9100089000
ENDCHAR
STARTCHAR uni0925094D0930
ENCODING -1
SWIDTH 593 0
DWIDTH 14 0
BBX 14 16 1 -1
BITMAP
01AEEA1001EFF8
09A22B9002F100
0D4004D002F100
0D3004D002F100
000005C002F100
00001C8002F100
7EEEFA1002F100
8A21000002F100
8900000002F100
6C00000005F100
1E8100004DF100
03CFEEEFF6F100
0000229E42F100
00001AD302F100
0001CC1002F100
001DA100000000
ENDCHAR
STARTCHAR uni0926094D0930
ENCODING -1
SWIDTH 489 0
DWIDTH 12 0
BBX 14 16 -1 -1
BITMAP
5FFFFFFFFFFFF1
00000000099000
00000000099000
00000000099000
00019DEEEF8000
000CA322220000
003E1000000000
005C0000000000
006C0000000000
006C000002E000
004E000003E000
000D80001AE000
0003CFEEFAE000
0000014E73E000
000003D502E000
00000640000000
ENDCHAR
STARTCHAR uni0927094D0930
ENCODING -1
SWIDTH 560 0
DWIDTH 13 0
BBX 15 16 -1 -1
BITMAP
5FFFFF805FFFFFB0
001C8100001E4000
003F0000000E4000
004E0000000E4000
003F0000000E4000
000D7000000E4000
0003EFE9000E4000
000C9221000E4000
003F0000000E4000
004E0000000E4000
002F0000002F4000
000D800001BF4000
0003CFEEEF9E4000
00000025E70E4000
0000006E500E3000
000008C200020000
ENDCHAR
STARTCHAR uni0928094D0930
ENCODING -1
SWIDTH 473 0
DWIDTH 11 0
BBX 13 15 -1 0
BITMAP
5FFFFFFFFFFFA0
000000001F3000
000000000F2000
000000000F2000
000000000F2000
000000000F2000
002BEEEEEF2000
00BA22223F2000
00D40000AF2000
00B60008CF2000
0032007D2F2000
000005E20F2000
00004E300F2000
0003E5000F2000
001D60000F2000
ENDCHAR
STARTCHAR uni092A094D0930
ENCODING -1
SWIDTH 503 0
DWIDTH 12 0
BBX 14 16 -1 -1
BITMAP
5FFFFFFFFFFFF6
001F300005E100
000F200004D000
000F200004D000
000F200004D000
000F200004D000
000F200004D000
000F200004D000
000E400006D000
0009B1003DD000
0001AFEEF9D000
0000002C64D000
000001C604D000
00002D6004D000
0002D70004D000
00055000001000
ENDCHAR
STARTCHAR uni092B094D0930
ENCODING -1
SWIDTH 741 0
DWIDTH 18 0
BBX 20 16 -1 -1
BITMAP
5FFFFFFFFFFFFFFFFFF1
001F300009A000000000
000F200008A000000000
000F200008A8DEC80000
000F200008F9324CA000
000F200008C00002F200
000F200008A00000D400
000E30000AA00000D400
000AB1005FA00000D400
0001BFEFEBA00000D400
0000003E58A00001F200
000001C708A0001AB000
00000BA008A08EFB2000
00008C1008A012000000
0006E20008A000000000
00073000012000000000
ENDCHAR
STARTCHAR uni092C094D0930
ENCODING -1
SWIDTH 491 0
DWIDTH 12 0
BBX 14 16 -1 -1
BITMAP
5FFFFFFFFFFFF1
00000000099000
00000000099000
00019DE8099000
000CB321099000
004DD200099000
007A4D20099000
007A04C1099000
007A005C199000
007A0006B99000
005C00007F9000
001E60006F9000
0003CFEEDA9000
0000018C199000
000009B1099000
0000BA00011000
ENDCHAR
STARTCHAR uni092D094D0930
ENCODING -1
SWIDTH 491 0
DWIDTH 12 0
BBX 14 15 -1 0
BITMAP
5EA2000FFFFFF1
019B0000099000
002F0000099000
001F1000099000
001F1000099000
001F1000099000
001F1000099000
001FEEEEEF9000
001F32222D9000
001F1000BE9000
001D100AA99000
0000009B099000
000008B1099000
00006C10099000
0005C100088000
ENDCHAR
STARTCHAR uni092E094D0930
ENCODING -1
SWIDTH 490 0
DWIDTH 12 0
BBX 14 15 -1 0
BITMAP
5FFFFFFFFFFFF1
002F2000099000
002F1000098000
002F1000098000
002F1000098000
002F1000098000
002F1000098000
002FEEEEEF8000
002F32223E8000
002F1001CE8000
001D001C998000
000000BA098000
00000AB0098000
00009C10098000
0007C100098000
ENDCHAR
STARTCHAR uni092F094D0930
ENCODING -1
SWIDTH 564 0
DWIDTH 14 0
BBX 15 16 -1 -1
BITMAP
5FFFFFFFFFFFFFD0
000016C1000D6000
000000D4000C5000
000000D5000C5000
000004F2000C5000
005EEE60000C5000
006C1000000C5000
006C0000000C5000
005C0000000D5000
003E1000001F5000
000BA10002BF5000
0001BFEEEF9D5000
00000125E80C5000
0000005F700C5000
000006F6000C5000
00004E5000010000
ENDCHAR
STARTCHAR uni0935094D0930
ENCODING -1
SWIDTH 484 0
DWIDTH 12 0
BBX 13 16 -1 -1
BITMAP
5FFFFFFFFFFFE0
000000000B7000
000000000B6000
00019DE70B6000
000CA3210B6000
004E00000B6000
007B00000B6000
007A00000B6000
007A00000B6000
007B00000B6000
005D00000D6000
001E70007F6000
0003CFEFCC6000
0000019B1B6000
00001BA00B6000
0001C800031000
ENDCHAR
STARTCHAR uni0936094D0930
ENCODING -1
SWIDTH 558 0
DWIDTH 13 0
BBX 14 15 0 0
BITMAP
004CEEA100DFF9
02F612AA00F400
05C0003E00F300
05C0002F00F300
02F2006C00F300
009C12E500F300
0009EE7000F300
003CDEB200F300
08E8019E66F300
2B300005FDF300
0000005E91F300
00001AE400F300
0003EA1000F300
0002500000F300
0000000000E300
ENDCHAR
STARTCHAR uni0938094D0930
ENCODING -1
SWIDTH 604 0
DWIDTH 15 0
BBX 16 15 -1 0
BITMAP
5FFFFFFFFFFFFFFC
000009A00001D500
000008A00000D400
000008A00000D400
000008A00000D400
000009900000D400
00003E400000D400
02EEFFEEEEEEF400
01D82222227EE400
004E100003E3D400
000B90001D60D400
0002F300B900D400
00008B016000D400
00001E500000D400
000006D00000D400
ENDCHAR
STARTCHAR uni0939094D0930
ENCODING -1
SWIDTH 505 0
DWIDTH 12 0
BBX 14 18 -1 -3
BITMAP
5FFFFFFFFFFFF6
0000000007B000
0000000007B000
0000000007B000
0004BDEEEFA000
002F6222220000
005D0000000000
002E3000000000
0005FEEEEEE500
000C93224EB800
005D0001D78800
007B000AA08800
007A007D108800
007B0093007800
005D0000000000
001D7000000000
0003CFEEEE6000
00000022220000
ENDCHAR
STARTCHAR uni0915093C094D0930
ENCODING -1
SWIDTH 725 0
DWIDTH 17 0
BBX 19 18 -1 -3
BITMAP
5FFFFFFFFFFFFFFFFFB0
000000001D5000000000
000000000D4000000000
00019DE50D6BDEB50000
000D93200DD5226E4000
005D00000D700007B000
007A00000D400004D000
008900000D400003E000
008900000D400003E000
008900000D400004E000
006C00000F400006C000
001E60019F40003D6000
0004DFEFAD40DEE70000
000001990D4011000000
00002B700D4000000000
0001B400010000000000
000000C5000000000000
00000010000000000000
ENDCHAR
STARTCHAR uni0916093C094D0930
ENCODING -1
SWIDTH 698 0
DWIDTH 17 0
BBX 19 18 -1 -3
BITMAP
5FFFFFFFFFFFFFFFFF10
000001F3000000990000
000000F2000000980000
000000F2000000980000
000000F2029D90980000
000001F10C9310980000
000008C03E0000980000
02EEFC304D0000980000
01D810004E0000A80000
003E30001E7004F80000
0008C00004DFFEB80000
0000C8000002C5980000
00002E30000A90980000
000007D1007C00980000
000000A604E200770000
000000000A5000000000
00000000000980000000
00000000000110000000
ENDCHAR
STARTCHAR uni0917093C094D0930
ENCODING -1
SWIDTH 494 0
DWIDTH 12 0
BBX 14 18 -1 -3
BITMAP
5FFFFFFFFFFFF2
0000D60008A000
0000C60008A000
0000C60008A000
0000C60008A000
0000C60008A000
0000C50008A000
0000E40008A000
0007E1001CA000
07FD4001CEA000
0110000AA8A000
0000009B08A000
000008C108A000
00006D1008A000
0005D20007A000
00011000011000
000000D4000000
00000010000000
ENDCHAR
STARTCHAR uni091C093C094D0930
ENCODING -1
SWIDTH 547 0
DWIDTH 13 0
BBX 15 17 -1 -2
BITMAP
5FFFFFFFFFFFFF70
00000000004E1000
00000000004E0000
00000000004E0000
00000000004E0000
004EEEEEEEEE0000
000226E4225E0000
00000099004E0000
0000007A004E0000
0000007A004E0000
00000099006E0000
000003E505FE0000
04EEEE805E6E0000
00221005E34E0000
0000004E303E0000
05D001A400020000
0010000000000000
ENDCHAR
STARTCHAR uni0921093C094D0930
ENCODING -1
SWIDTH 475 0
DWIDTH 11 0
BBX 13 19 -1 -4
BITMAP
5FFFFFFFFFFFB0
000000001E4000
000000000E3000
000000000E3000
0004BDEEEF2000
001E6222210000
003F0000000000
001F4000000000
0006EEEED91000
000001223C9000
0000000005D000
0000000004E000
004C000005D000
002E20001AA000
0006EEEEFB1000
0B600A9B800000
01105E12E30000
0002E5007D0000
0009B0000C7000
ENDCHAR
STARTCHAR uni0922093C094D0930
ENCODING -1
SWIDTH 485 0
DWIDTH 12 0
BBX 13 18 -1 -3
BITMAP
5FFFFFFFFFFFE0
000000001E4000
000000000E4000
000000000E4000
00019DEEEF3000
000BA322210000
003E1000000000
005C0000000000
005C0006DD8000
005C002E43D400
005C004C009700
003E001300A600
000C800003E300
0002BEEEEE7000
0C5005D7D10000
01002E30A90000
0001D7001D6000
00027000037000
ENDCHAR
STARTCHAR uni0928093C094D0930
ENCODING -1
SWIDTH 473 0
DWIDTH 11 0
BBX 13 18 -1 -3
BITMAP
5FFFFFFFFFFFA0
000000001F3000
000000000F2000
000000000F2000
000000000F2000
000000000F2000
002BEEEEEF2000
00BA22223F2000
00D40000AF2000
00B60008CF2000
0032007D2F2000
000005E20F2000
00004E300F2000
0003E5000F2000
001D60000F2000
00000000000000
00000D50000000
00000100000000
ENDCHAR
STARTCHAR uni092B093C094D0930
ENCODING -1
SWIDTH 741 0
DWIDTH 18 0
BBX 20 18 -1 -3
BITMAP
5FFFFFFFFFFFFFFFFFF1
001F300009A000000000
000F200008A000000000
000F200008A8DEC80000
000F200008F9324CA000
000F200008C00002F200
000F200008A00000D400
000E30000AA00000D400
000AB1005FA00000D400
0001BFEFEBA00000D400
0000003E58A00001F200
000001C708A0001AB000
00000BA008A08EFB2000
00008C1008A012000000
0006E20008A000000000
00073000012000000000
000001E2000000000000
00000020000000000000
ENDCHAR
STARTCHAR uni092F093C094D0930
ENCODING -1
SWIDTH 564 0
DWIDTH 14 0
BBX 15 18 -1 -3
BITMAP
5FFFFFFFFFFFFFD0
000016C1000D6000
000000D4000C5000
000000D5000C5000
000004F2000C5000
005EEE60000C5000
006C1000000C5000
006C0000000C5000
005C0000000D5000
003E1000001F5000
000BA10002BF5000
0001BFEEEF9D5000
00000125E80C5000
0000005F600C5000
000006F5000C5000
00004D4000000000
00000006B0000000
0000000110000000
ENDCHAR
STARTCHAR uni0915094D0930094D
ENCODING -1
SWIDTH 518 0
DWIDTH 12 0
BBX 17 16 -1 -1
BITMAP
5FFFFFFFFFFFFFFF80
000000001D50000000
000000000D40000000
00019DE50D6BEEC500
000D93200DE5225E40
005D00000D70000430
007A00000D40000000
008900000D40000000
008900000D40000000
008900000D40000000
006C00000F40000000
001E60019F40000000
0004DFEFBD40000000
000001990D40000000
00001B800D40000000
0001C6000200000000
ENDCHAR
STARTCHAR uni0916094D0930094D
ENCODING -1
SWIDTH 469 0
DWIDTH 11 0
BBX 16 16 -1 -1
BITMAP
5FFFFFFFFFFFFFC0
000001F300000000
000000F200000000
000000F200000000
000000F2029D9000
000001F10C931000
000008C03E000000
02EEFC304D000000
01D810004E000040
003E20001E7007D1
0008C00004DFFF30
0000D7000002C700
00003E30000AB000
000008C0006E1000
000000C602E40000
000000000C700000
ENDCHAR
STARTCHAR uni0917094D0930094D
ENCODING -1
SWIDTH 264 0
DWIDTH 6 0
BBX 11 15 -1 0
BITMAP
5FFFFFFA0000
0000D6000000
0000C6000000
0000C6000000
0000C6000000
0000C6000000
0000C5000000
0000E4000100
0007E1001D30
07FD4001C700
0110000B8000
000000AA0000
000009B00000
00008C100000
0006C1000000
ENDCHAR
STARTCHAR uni0918094D0930094D
ENCODING -1
SWIDTH 319 0
DWIDTH 8 0
BBX 12 16 -1 -1
BITMAP
5FFFFFFFFFF3
001D81000000
003E00000000
004D00000000
003E00000000
000D60000000
0003EFE80000
000C92210000
003E00000000
004D00000000
003E00000002
000D800002C7
0003CFEEEF60
00000126D400
000001AB1000
00003D700000
ENDCHAR
STARTCHAR uni091A094D0930094D
ENCODING -1
SWIDTH 331 0
DWIDTH 8 0
BBX 12 16 -1 -1
BITMAP
5FFFFFFFFFD0
000000000000
000000000000
000000000000
000000000000
06EEEEEEA000
0122D8221000
0005C0000000
0007B0000000
0006C0000003
0002F60001AB
00005DFEEFB1
00000013DA10
0000004E8000
000006E50000
000018300000
ENDCHAR
STARTCHAR uni091C094D0930094D
ENCODING -1
SWIDTH 312 0
DWIDTH 7 0
BBX 12 16 -1 -1
BITMAP
5FFFFFFFFFF0
000000000000
000000000000
000000000000
000000000000
004EEEEEEEE0
000226E42210
000000980000
0000007A0000
0000007A0000
000000990079
000003E507D1
04EEEE807D20
00221007D200
0000007E2000
000001820000
ENDCHAR
STARTCHAR uni091D094D0930094D
ENCODING -1
SWIDTH 441 0
DWIDTH 11 0
BBX 15 16 -1 -1
BITMAP
5FFFFFFFFFFFFF10
00000000B7000000
00000000B6000000
0003ADEEF6000000
000D822220000000
003E000000000000
003E000000000000
001E500000000000
0004DEEEEEEEEE80
000001228D222880
005B00001F200880
006D00001F202E40
006F50006E01D700
006DCEEFD41CA000
006C012100BB0000
005B000008C10000
ENDCHAR
STARTCHAR uni091E094D0930094D
ENCODING -1
SWIDTH 374 0
DWIDTH 9 0
BBX 13 16 -1 -1
BITMAP
5FFFFFFFFFFF40
00000000000000
00000000000000
00000000000000
008EEC70000000
001224C7000000
0000004C000000
0000002F000000
0000001FEEEED0
0000001F2222F0
0000003D0003D0
000001A9002D50
00DEEFA103D500
001220003E5000
00000003E50000
00000006400000
ENDCHAR
STARTCHAR uni091F094D0930094D
ENCODING -1
SWIDTH 485 0
DWIDTH 12 0
BBX 13 22 -1 -7
BITMAP
5FFFFFFFFFFFE0
000000002F2000
000000001F1000
000000001F1000
00019DEEEF1000
000BB322210000
003E1000000000
005C0000000000
006C0000000000
006C000000A600
006C000000B600
004E000000D400
000D800008D000
0002CFEEFC3000
000007D8D10000
00005D209B1000
0003E3000AA000
0000003C000000
0000000C700000
00000003E20000
00000000AA0000
00000000180000
ENDCHAR
STARTCHAR uni0920094D0930094D
ENCODING -1
SWIDTH 512 0
DWIDTH 12 0
BBX 14 22 -1 -7
BITMAP
5FFFFFFFFFFFF9
000000000C7000
000000000C6000
000000002E3000
00019DEEFB1000
000CA3223AC000
003E100000D500
006B000000A700
006B000000A700
006B000000A700
006B000000A700
004D000000C500
001D800007E100
0003CFEEFC3000
000006E9C00000
00002E40C90000
0001C8002E5000
00038014047000
0000001D400000
00000005E10000
00000000AA0000
00000000171000
ENDCHAR
STARTCHAR uni0921094D0930094D
ENCODING -1
SWIDTH 475 0
DWIDTH 11 0
BBX 13 23 -1 -8
BITMAP
5FFFFFFFFFFFB0
000000001E4000
000000000E3000
000000000E3000
0004BDEEEF2000
001E6222210000
003F0000000000
001F4000000000
0006EEEED91000
000001223C9000
0000000005D000
0000000004E000
004C000005D000
002E20001AA000
0007EEEEFC2000
00000ACD800000
00005E23E30000
0002E4007D1000
00077011085000
0000005D100000
0000000A900000
00000001E50000
00000000360000
ENDCHAR
STARTCHAR uni0922094D0930094D
ENCODING -1
SWIDTH 485 0
DWIDTH 12 0
BBX 13 22 -1 -7
BITMAP
5FFFFFFFFFFFE0
000000001E4000
000000000E4000
000000000E4000
00019DEEEF3000
000BA322210000
003E1000000000
005C0000000000
005C0006DD8000
005C002E43D400
005C004C009700
003E001300A600
000C800003E300
0002BFEEEF8000
000005E9D10000
00002E50BA0000
0000C9001D6000
00038113038000
0000001D400000
00000005E10000
00000000AA0000
00000000171000
ENDCHAR
STARTCHAR uni0923094D0930094D
ENCODING -1
SWIDTH 457 0
DWIDTH 11 0
BBX 15 15 -1 0
BITMAP
5FFFFFFFFFFF3000
001F20005E000000
000F10004D000000
000F10004D000000
000F10004D000000
000F10004D000000
000F10004D000000
000F10004D000000
000E30005B0005B0
000AA101C7004E30
0001AFEF9003E400
00000020002E5000
0000000002D60000
000000001D700000
00000000B8000000
ENDCHAR
STARTCHAR uni0924094D0930094D
ENCODING -1
SWIDTH 268 0
DWIDTH 6 0
BBX 12 15 -1 0
BITMAP
5FFFFFFFFFF1
000000000000
000000000000
000000000000
000000000000
0003ADEDA200
001E83227D10
006C00000A40
007A00000860
005700000950
00000001AD10
0000003D9100
000006E60000
0001AC200000
001D91000000
ENDCHAR
STARTCHAR uni0925094D0930094D
ENCODING -1
SWIDTH 358 0
DWIDTH 9 0
BBX 11 16 1 -1
BITMAP
01AEEA100000
09A22B900000
0D4004D00000
0D3004D00000
000005C00000
00001C800000
7EEEFA100000
8A2100000000
890000000000
6C0000000210
1E8100005E30
03CFEEEFE400
0000229E4000
00001AD20000
0001CC100000
001DA1000000
ENDCHAR
STARTCHAR uni0926094D0930094D
ENCODING -1
SWIDTH 489 0
DWIDTH 12 0
BBX 14 20 -1 -5
BITMAP
5FFFFFFFFFFFF1
00000000099000
00000000099000
00000000099000
00019DEEEF8000
000CA322220000
003E1000000000
005C0000000000
006C0000000000
006C000002E000
004E000003E000
000D80001AE000
0003CFEEFAE000
0000013E73E000
000002D702E000
00000850200000
00000001E30000
000000005D1000
000000000A9000
00000000017100
ENDCHAR
STARTCHAR uni0927094D0930094D
ENCODING -1
SWIDTH 322 0
DWIDTH 8 0
BBX 12 16 -1 -1
BITMAP
5FFFFF806FF1
001D81000000
003E00000000
004D00000000
003E00000000
000D60000000
0003EFE80000
000C92210000
003E00000000
004D00000000
003E00000002
000D800002B8
0003CFEEEF90
00000125E700
0000006E4000
000008C20000
ENDCHAR
STARTCHAR uni0928094D0930094D
ENCODING -1
SWIDTH 247 0
DWIDTH 6 0
BBX 10 15 -1 0
BITMAP
5FFFFFFFFF
0000000000
0000000000
0000000000
0000000000
0000000000
002BEEEEEE
00BA22222E
00D400004D
00B60004E3
0032003E40
000003E500
00002E5000
0002E60000
001D700000
ENDCHAR
STARTCHAR uni092A094D0930094D
ENCODING -1
SWIDTH 270 0
DWIDTH 6 0
BBX 11 16 -1 -1
BITMAP
5FFFFFFFF200
001F30000000
000F20000000
000F20000000
000F20000000
000F20000000
000F20000000
000F20000000
000E40000230
0009B1004D50
0001AFEEF600
0000002C6000
000001C60000
00002D600000
0002D7000000
000550000000
ENDCHAR
STARTCHAR uni092B094D0930094D
ENCODING -1
SWIDTH 523 0
DWIDTH 13 0
BBX 17 16 -1 -1
BITMAP
9FFFFFFFFFFFFFFF70
005D00000D60000000
005C00000C50000000
005C00000C7BDEC600
005C00000CE6224D60
005C00000C80000220
005C00000C60000000
004E00000E50000000
001E80008F50000000
0003DFEFCD50000000
0000016E2C50000000
000003E40C50000000
00002E600C50000000
0001C9000C50000000
000BB0000C50000000
001810000210000000
ENDCHAR
STARTCHAR uni092C094D0930094D
ENCODING -1
SWIDTH 267 0
DWIDTH 6 0
BBX 11 16 -1 -1
BITMAP
5FFFFFFFFF40
000000000000
000000000000
00019DE80000
000CB3210000
004DD2000000
007A4D200000
007A04C10000
007A005C1000
007A0006B350
005C00007E60
001E60007B00
0003CFEFD100
0000017C1000
000009B10000
0000BA000000
ENDCHAR
STARTCHAR uni092D094D0930094D
ENCODING -1
SWIDTH 257 0
DWIDTH 6 0
BBX 11 15 -1 0
BITMAP
5EA2000FFF20
019B00000000
002F00000000
001F10000000
001F10000000
001F10000000
001F10000000
001FEEEEEE20
001F32224E10
001F1002D500
001C101C7000
000000B90000
00000AB00000
00008C100000
0006D1000000
ENDCHAR
STARTCHAR uni092E094D0930094D
ENCODING -1
SWIDTH 261 0
DWIDTH 6 0
BBX 11 15 -1 0
BITMAP
5FFFFFFFFF20
002F20000000
002F10000000
002F10000000
002F10000000
002F10000000
002F10000000
002FEEEEEE20
002F32224E10
002F1002D500
001C001C7000
000000B90000
00000AB00000
00008C100000
0006D1000000
ENDCHAR
STARTCHAR uni092F094D0930094D
ENCODING -1
SWIDTH 323 0
DWIDTH 8 0
BBX 12 16 -1 -1
BITMAP
5FFFFFFFFF50
000016C10000
000000D40000
000000D50000
000004F20000
005EEE600000
006C10000000
006C00000000
005C00000000
003E10000014
000BA10003C9
0001BFEEEFA0
00000125E900
0000005F8000
000006F70000
00004E500000
ENDCHAR
STARTCHAR uni0935094D0930094D
ENCODING -1
SWIDTH 255 0
DWIDTH 6 0
BBX 10 16 -1 -1
BITMAP
5FFFFFFFB0
0000000000
0000000000
00019DE700
000CA32100
004D000000
007B000000
007A000000
007A000000
007B000000
005D000003
001E70018C
0003CFEFB1
0000019B10
00001AA000
0001C80000
ENDCHAR
STARTCHAR uni0938094D0930094D
ENCODING -1
SWIDTH 347 0
DWIDTH 8 0
BBX 13 15 -1 0
BITMAP
5FFFFFFFFFF500
000009A0000000
000008A0000000
000008A0000000
000008A0000000
00000990000000
00003E40000000
02EEFFEEEEEE30
01D82222228D00
004E100005E200
000B90003E4000
0002F302E60000
00008B08700000
00001E50000000
000006D0000000
ENDCHAR
STARTCHAR uni0915093C094D0930094D
ENCODING -1
SWIDTH 518 0
DWIDTH 12 0
BBX 17 18 -1 -3
BITMAP
5FFFFFFFFFFFFFFF80
000000001D50000000
000000000D40000000
00019DE50D6BEEC500
000D93200DE5225E40
005D00000D70000430
007A00000D40000000
008900000D40000000
008900000D40000000
008900000D40000000
006C00000F40000000
001E60019F40000000
0004DFEFBD40000000
000001990D40000000
00001B800D40000000
0001C6000200000000
000000D40000000000
000000100000000000
ENDCHAR
STARTCHAR uni0916093C094D0930094D
ENCODING -1
SWIDTH 466 0
DWIDTH 11 0
BBX 16 18 -1 -3
BITMAP
5FFFFFFFFFFFFFC0
000001F300000000
000000F200000000
000000F200000000
000000F2029D9000
000001F10C931000
000008C03E000000
02EEFC304D000000
01D810004E000040
003E20001E7007D1
0008C00004DFFF30
0000D7000002C700
00003E30000AB000
000008C0006E1000
000000C603E40000
000000000C700000
000000000006B000
0000000000011000
ENDCHAR
STARTCHAR uni0917093C094D0930094D
ENCODING -1
SWIDTH 264 0
DWIDTH 6 0
BBX 11 18 -1 -3
BITMAP
5FFFFFFA0000
0000D6000000
0000C6000000
0000C6000000
0000C6000000
0000C6000000
0000C5000000
0000E4000100
0007E1001D40
07FD4001C700
0110000B9000
0000009B0000
000008C10000
00006D100000
0005E2000000
000210000000
000000B60000
000000110000
ENDCHAR
STARTCHAR uni091C093C094D0930094D
ENCODING -1
SWIDTH 320 0
DWIDTH 8 0
BBX 12 18 -1 -3
BITMAP
5FFFFFFFFFF0
000000000000
000000000000
000000000000
000000000000
004EEEEEEEE0
000226E42210
000000980000
0000007A0000
0000007A0000
000000990025
000003E502D5
04EEEE802D70
00221002D700
0000002D8000
000001D80000
04C000000000
001000000000
ENDCHAR
STARTCHAR uni0928093C094D0930094D
ENCODING -1
SWIDTH 247 0
DWIDTH 6 0
BBX 11 18 -1 -3
BITMAP
5FFFFFFFFF00
000000000000
000000000000
000000000000
000000000000
000000000000
002BEEEEEE00
00BA22222E10
00D400003D00
00C60002E500
0044002D6000
000001D70000
00001C900000
0000BA000000
000AB0000000
001510000000
000008900000
000001100000
ENDCHAR
STARTCHAR uni092B093C094D0930094D
ENCODING -1
SWIDTH 523 0
DWIDTH 13 0
BBX 17 18 -1 -3
BITMAP
9FFFFFFFFFFFFFFF70
005D00000D60000000
005C00000C50000000
005C00000C7BDEC600
005C00000CE6224D60
005C00000C80000220
005C00000C60000000
004E00000E50000000
001E80008F50000000
0003DFEFCD50000000
0000016E2C50000000
000003E30C50000000
00002E600C50000000
0001D9000C50000000
000BB0000C50000000
001710000100000000
000008900000000000
000001100000000000
ENDCHAR
STARTCHAR uni092F093C094D0930094D
ENCODING -1
SWIDTH 323 0
DWIDTH 8 0
BBX 12 18 -1 -3
BITMAP
5FFFFFFFFF50
000016C10000
000000D40000
000000D50000
000004F20000
005EEE600000
006C10000000
006C00000000
005C00000000
003E10000014
000BA10003C8
0001BFEEEF90
00000126E800
0000006F7000
000007F50000
00004C400000
00000005C000
000000001000
ENDCHAR
STARTCHAR uni0915094D0915
ENCODING -1
SWIDTH 1255 0
DWIDTH 30 0
BBX 32 15 -1 0
BITMAP
5FFFFFFFFFFFFFFFFFFFFFFFFFFFFFF7
000000001D500000000003F100000000
000000000D400000000002F000000000
00019DE50D6BDEB54BDE12F4CEDA2000
000D93200DD5225EF72202FB4238E100
005D00000D70000A900002F30000B700
007A00000D40000C600002F000008900
008900000D40000C500002F000008A00
008900000D40000C500002F000008A00
008900000D40000C500002F000008A00
006C00000F40000A800004F00000A700
001E60019F400004E4002CF00005E200
0003CFEF8D4000006EEEE7F03EFD4000
000001210D400000001102F002100000
000000000D400000000002F000000000
ENDCHAR
STARTCHAR uni0915094D0916
ENCODING -1
SWIDTH 1256 0
DWIDTH 30 0
BBX 32 15 -1 0
BITMAP
5FFFFFFFFFFFFFFFFFFFFFFFFFFFFFF7
000000001D500000000990000004E100
000000000D400000000890000003E000
00019DE50D6BDD91000890000003E000
000D93200DD523AB00089006CE13E000
005D00000D70001E200A805E5203E000
007A00000D40000C403E40B70003E000
008900000D40000BEEE700D40003E000
008900000D400007E20000D40003E000
008900000D400000C90000C60005E000
006C00000F4000002E40007D202CE000
001E60019F40000007D10008EED7E000
0003CFEF9D40000000B900000103E000
000001210D400000002E40000003E000
000000000D4000000006D0000003E000
ENDCHAR
STARTCHAR uni0915094D091A
ENCODING -1
SWIDTH 1086 0
DWIDTH 26 0
BBX 28 15 -1 0
BITMAP
5FFFFFFFFFFFFFFFFFFFFFFFFFF6
000000001D50000000000005D100
000000000D40000000000004D000
00019DE50D5ADC4000000004D000
000D93200DD526E100000004D000
005D00000D7000AEEEEEE304D000
007A00000D4000026D522004D000
008900000D400000C6000004D000
008900000D400000E4000004D000
008900000D400000C5000006D000
006C00000F4000008C20003DD000
001E60019F40000019EEEED8D000
0003CFEE7D40000000012104D000
000001200D40000000000004D000
000000000D40000000000004D000
ENDCHAR
STARTCHAR uni0915094D091C
ENCODING -1
SWIDTH 1071 0
DWIDTH 26 0
BBX 27 15 -1 0
BITMAP
5FFFFFFFFFFFFFFFFFFFFFFFFFF0
000000001D5000000000000A8000
000000000D4000000000000A8000
00019DE50D4000000000000A8000
000D92100D6BDE70EEEEEEEF8000
005D00000DD5221013BA222B8000
007A00000D700000001F200A8000
008900000D400000000E400A8000
008900000D400000000E400A8000
008900000D400000000E400A8000
006C00000F400000001F200A8000
001E60019F400000008D000A8000
0003CFEF8D40009EEFC3000A8000
000001200D4000122100000A8000
000000000D4000000000000A7000
ENDCHAR
STARTCHAR uni0915094D091F
ENCODING -1
SWIDTH 984 0
DWIDTH 24 0
BBX 25 15 -1 0
BITMAP
5FFFFFFFFFFFFFFFFFFFFFFFE0
000000001D50000000002F2000
000000000D40000000001F1000
00019DE50D6BEEC600001F1000
000D93200DE5226EBDEEEF1000
005D00000D70000CA322210000
007A00000D40004E1000000000
008900000D40006B0000000000
008900000D40006B0000000000
008900000D40006B0000006300
006C00000F40006B000000B600
001E60019F40004D000000D400
0003CFEE8D40000D800007D100
000000100D400003CFEEFC3000
000000000D4000000122100000
ENDCHAR
STARTCHAR uni0915094D0923
ENCODING -1
SWIDTH 1183 0
DWIDTH 28 0
BBX 30 15 -1 0
BITMAP
5FFFFFFFFFFFFFFFFFFFFFFFFFFFFB
000000001D50001E40003F1001E400
000000000D40000E30003F0000E400
00019DE50D40000E30003F0000E400
000D93200D6BDEEF30003F0000E400
005D00000DD5222E30003F0000E400
007A00000D70000E30003F0000E400
008900000D40000E30003E0000E400
008900000D40000C40004D0000E400
008900000D400008B101B80000E400
006C00000F4000019FEFA10000E400
001E60019F4000000020000000E400
0003CFEF8D4000000000000000E400
000001210D4000000000000000E400
000000000D4000000000000000E300
ENDCHAR
STARTCHAR uni0915094D0924
ENCODING -1
SWIDTH 761 0
DWIDTH 18 0
BBX 20 15 -1 0
BITMAP
5FFFFFFFFFFFFFFFFFF8
0000000001F400000000
0000000000E300000000
0000000000E300000000
0000000000E300000000
008EEEEEEEF6BEDB4000
0012C92222FD5226E400
0003E00000E600008A00
0005D00000E300006C00
0005D00000E300006C00
0004E00000E300007A00
0001E70000E30003D600
00004CFE10E30BEE7000
0000001200E301100000
0000000000E300000000
ENDCHAR
STARTCHAR uni0915094D0925
ENCODING -1
SWIDTH 1118 0
DWIDTH 27 0
BBX 29 15 -1 0
BITMAP
5FFFFFFFFFFFFD005CFD60007FFF20
000000001D500002E514E4008A0000
000000000D400004D000A700890000
00019DE50D4000026000A700890000
000D93200D4000000004E300890000
005D00000D6BEEEEEEEE6000890000
007A00000DE5222E52100000890000
008900000D70000E40000000890000
008900000D40000E40000000890000
008900000D40000B70000000B90000
006C00000F400005E4000018F90000
001E60019F4000006EFEEEFA990000
0003CFEE7D40000000122210890000
000001200D40000000000000890000
000000000D40000000000000890000
ENDCHAR
STARTCHAR uni0915094D0926
ENCODING -1
SWIDTH 1009 0
DWIDTH 24 0
BBX 26 15 -1 0
BITMAP
5FFFFFFFFFFFFFFFFFFFFFFFF8
000000001D500000000002F200
000000000D400000000001F100
00019DE50D6BDEC5000002F100
000D93200DD5227FBDEEEEF100
005D00000D70000AE522221000
007A00000D40000B7000000000
008900000D40000D4000000000
008900000D40000D4000000000
008900000D40000D400000A600
006C00000F40000B600000B600
001E60019F400006D20004F600
0003CFEE7D4000008EEEECC600
000001200D400000001210A600
000000000D400000000000A600
ENDCHAR
STARTCHAR uni0915094D092A
ENCODING -1
SWIDTH 1007 0
DWIDTH 24 0
BBX 26 15 -1 0
BITMAP
5FFFFFFFFFFFFFFFFFFFFFFFF7
000000001D50001E400004E100
000000000D40000E300003E000
00019DE50D40000E300003E000
000D93200D6BDEEF300003E000
005D00000DD5222E300003E000
007A00000D70000E300003E000
008900000D40000E300003E000
008900000D40000C500005E000
008900000D400006C2002DE000
006C00000F4000008EEEE7E000
001E60019F400000001103E000
0003CFEF8D400000000003E000
000001210D400000000003E000
000000000D400000000003E000
ENDCHAR
STARTCHAR uni0915094D092B
ENCODING -1
SWIDTH 1242 0
DWIDTH 30 0
BBX 32 15 -1 0
BITMAP
5FFFFFFFFFFFFFFFFFFFFFFFFFFFFFF2
000000001D50001E400008B000000000
000000000D40000E300007A000000000
00019DE50D40000E300007A8DEC81000
000D93200D6BDEEF300007F9324CA000
005D00000DD5222E300007D00001F200
007A00000D70000E300007A00000D400
008900000D40000D400009A00000C500
008900000D400009C2004EA00000C500
008900000D4000019FEEC9A00000D400
006C00000F400000001107A00001F200
001E60019F400000000007A00019C000
0003CFEF8D400000000007A07EFB2000
000001200D400000000007A012000000
000000000D400000000007A000000000
ENDCHAR
STARTCHAR uni0915094D092E
ENCODING -1
SWIDTH 994 0
DWIDTH 24 0
BBX 26 15 -1 0
BITMAP
5FFFFFFFFFFFFFFFFFFFFFFFF2
000000001D50001F300008A000
000000000D40000F200008A000
00019DE50D40000F200008A000
000D93200D6BDEEF200008A000
005D00000DD5222F200008A000
007A00000D70000F200008A000
008900000D40000FEEEEEFA000
008900000D40000F422229A000
008900000D40000F200008A000
006C00000F40000F200008A000
001E60019F400002000008A000
0003CFEF8D400000000008A000
000001210D400000000008A000
000000000D4000000000079000
ENDCHAR
STARTCHAR uni0915094D092F
ENCODING -1
SWIDTH 1076 0
DWIDTH 26 0
BBX 28 15 -1 0
BITMAP
5FFFFFFFFFFFFFFFFFFFFFFFFFF2
000000001D50000013D30009A000
000000000D400000008800089000
00019DE50D400000008900089000
000D93200D40000002D500089000
005D00000D6BDEEEEF9000089000
007A00000DD5223F200000089000
008900000D70001F100000089000
008900000D40001F200000089000
008900000D40000E4000000B9000
006C00000F400007D300018F9000
001E60019F4000008EEEEFA99000
0003CFEE8D400000001221089000
000001200D400000000000089000
000000000D400000000000089000
ENDCHAR
STARTCHAR uni0915094D0932
ENCODING -1
SWIDTH 1178 0
DWIDTH 28 0
BBX 30 15 -1 0
BITMAP
5FFFFFFFFFFFFFFFFFFFFFFFFFFFF9
000000001D5000000000000002F200
000000000D4000000000000001F100
00019DE50D6BEEC60000000001F100
000D93200DE5226EBDDA13BDC6F100
005D00000D70000CB338BD624CF100
007A00000D40002F1000DA0004F100
008900000D40003E0000A70002F100
008900000D40004E0000A70001F100
008900000D40004E0000A70001F100
006C00000F40004E0000320001F100
001E60019F40002F1000000001F100
0003CFEE8D40000C9100000001F100
000000100D400002BFE9000001F100
000000000D4000000021000001F100
ENDCHAR
STARTCHAR uni0915094D0935
ENCODING -1
SWIDTH 1013 0
DWIDTH 24 0
BBX 26 15 -1 0
BITMAP
5FFFFFFFFFFFFFFFFFFFFFFFF9
000000001D500000000001F200
000000000D400000000000F200
00019DE50D6BDEB54BDE20F200
000D93200DD5225EF72200F200
005D00000D700009900000F200
007A00000D40000B600000F200
008900000D40000C600000F200
008900000D40000C600000F200
008900000D40000C600001F200
006C00000F40000A800003F200
001E60019F400004E4001BF200
0003CFEF8D4000006EEEE7F200
000001210D400000001100F200
000000000D400000000000F100
ENDCHAR
STARTCHAR uni0915094D0936
ENCODING -1
SWIDTH 1194 0
DWIDTH 29 0
BBX 30 15 -1 0
BITMAP
5FFFFFFFFFFFFFD003CEEA10009FFE
000000001D5000001E712BA000B700
000000000D4000003E0004D000B700
00019DE50D4000004C0003E000B700
000D93200D6BEEB5000003E000B700
005D00000DD5226E400004D000B700
007A00000D60000890001B9000B700
008900000D400005FEEEFA1000B700
008900000D400002E622000000B700
008900000D4000006D10000000B700
006C00000F4000000AA0000000B700
001E60019F40000001E5000000B700
0003CFEF8D400000005E100000B700
000001200D4000000009B00000B700
000000000D4000000001D50000A700
ENDCHAR
STARTCHAR uni0915094D0938
ENCODING -1
SWIDTH 1143 0
DWIDTH 27 0
BBX 29 15 -1 0
BITMAP
5FFFFFFFFFFFFFFFFFFFFFFFFFFFB0
000000001D500000001E50001E4000
000000000D400000000E40000E4000
00019DE50D6BEDA2000E40000E4000
000D93200DE5238D100E40000E4000
005D00000D70000B500F30000E4000
007A00000D400009707D00000E4000
008900000D400008EFFEEEEEEF4000
008900000D400004F32222222E4000
008900000D400000AA0000000E4000
006C00000F4000002E3000000E4000
001E60019F40000008C000000E4000
0003CFEF8D40000001D600000E4000
000001200D400000006E10000E4000
000000000D400000000B70000E3000
ENDCHAR
STARTCHAR uni0916094D0916
ENCODING -1
SWIDTH 1223 0
DWIDTH 29 0
BBX 31 15 -1 0
BITMAP
5FFFFFFFFFFFFFFFFFFFFFFFFFFFFFA0
000001F300000000006C0000001F3000
000000F200000000005C0000000F2000
000000F200000000005C0000000F2000
000000F2019D8000005C004BD30F2000
000001F10CA31000006B02E6200F2000
000008C03E10000001C708A0000F2000
02EEFC305D00007EEFA10A70000F2000
01D810005C00005F40000A70000F2000
004E20003E00002FC0000990002F2000
0008C0000D8003C8E70004E301AF2000
0001D70003CFEE606F20006EEE6F2000
00003E30000110000AC00000100F2000
000008C00000000001D70000000F2000
000000C600000000004E2000000F2000
ENDCHAR
ENDFONT
